<svg width="1031" height="912" viewBox="0 0 1031 912" fill="none" xmlns="http://www.w3.org/2000/svg">
<path d="M539.068 180.183H555.737C593.631 180.183 629.972 195.236 656.767 222.031C683.562 248.826 698.615 285.168 698.615 323.061V604.957H396.189V323.061C396.189 285.168 411.243 248.826 438.037 222.031C464.832 195.236 501.174 180.183 539.068 180.183Z" fill="#FFB7D5"/>
<path d="M602.39 437.114V609.374H468.043V437.114H602.39ZM605.869 433.635H464.564V612.852H605.869V433.635Z" fill="#CA7358"/>
<path d="M605.869 433.635H464.564V470.687H605.869V433.635Z" fill="#CA7358"/>
<path d="M463.887 344.062V610.235H382.957V344.062H463.887ZM467.365 340.583H379.479V613.713H467.365V340.583Z" fill="#CA7358"/>
<path d="M713.32 290.209V609.339H606.547V290.209H713.32ZM716.799 286.731H603.068V612.818H716.799V286.731Z" fill="#CA7358"/>
<path d="M648.972 330.244H650.633C654.41 330.244 658.033 331.745 660.705 334.416C663.376 337.087 664.876 340.71 664.876 344.488V377.627H634.729V344.488C634.729 340.71 636.229 337.087 638.9 334.416C641.572 331.745 645.194 330.244 648.972 330.244Z" fill="#CA7358"/>
<path d="M631.287 356.087H668.331" stroke="#FFB7D5" stroke-width="3.47826" stroke-linecap="round" stroke-linejoin="round"/>
<path d="M648.972 415.253H650.633C654.41 415.253 658.033 416.753 660.705 419.425C663.376 422.096 664.876 425.719 664.876 429.496V462.653H634.729V429.505C634.729 425.727 636.229 422.104 638.9 419.433C641.572 416.762 645.194 415.261 648.972 415.261V415.253Z" fill="#F5EBDD"/>
<path d="M631.287 441.105H668.331" stroke="#FFB7D5" stroke-width="3.47826" stroke-linecap="round" stroke-linejoin="round"/>
<path d="M648.972 500.27H650.633C654.41 500.27 658.033 501.771 660.705 504.442C663.376 507.113 664.876 510.736 664.876 514.513V547.653H634.729V514.513C634.729 510.736 636.229 507.113 638.9 504.442C641.572 501.771 645.194 500.27 648.972 500.27Z" fill="#F5EBDD"/>
<path d="M631.287 526.113H668.331" stroke="#FFB7D5" stroke-width="3.47826" stroke-linecap="round" stroke-linejoin="round"/>
<path d="M648.972 585.261H650.633C654.41 585.261 658.033 586.762 660.705 589.433C663.376 592.104 664.876 595.727 664.876 599.505V629.939H634.729V599.505C634.729 595.727 636.229 592.104 638.9 589.433C641.572 586.762 645.194 585.261 648.972 585.261Z" fill="#30242A"/>
<path d="M405.493 400.679H407.154C410.932 400.679 414.555 402.179 417.226 404.851C419.897 407.522 421.398 411.145 421.398 414.922V448.061H391.25V414.922C391.25 411.145 392.751 407.522 395.422 404.851C398.093 402.179 401.716 400.679 405.493 400.679Z" fill="#F5EBDD"/>
<path d="M387.809 426.522H424.852" stroke="#FFB7D5" stroke-width="3.47826" stroke-linecap="round" stroke-linejoin="round"/>
<path d="M405.493 485.687H407.154C410.932 485.687 414.555 487.188 417.226 489.859C419.897 492.53 421.398 496.153 421.398 499.931V533.087H391.25V499.939C391.249 498.068 391.616 496.215 392.332 494.486C393.047 492.757 394.096 491.186 395.419 489.862C396.741 488.539 398.312 487.489 400.041 486.772C401.769 486.056 403.622 485.687 405.493 485.687Z" fill="#F5EBDD"/>
<path d="M387.809 511.54H424.852" stroke="#FFB7D5" stroke-width="3.47826" stroke-linecap="round" stroke-linejoin="round"/>
<path d="M405.493 570.705H407.154C410.932 570.705 414.555 572.205 417.226 574.876C419.897 577.548 421.398 581.17 421.398 584.948V618.087H391.25V584.948C391.25 581.17 392.751 577.548 395.422 574.876C398.093 572.205 401.716 570.705 405.493 570.705Z" fill="#CA7358"/>
<path d="M387.809 596.548H424.852" stroke="#FFB7D5" stroke-width="3.47826" stroke-linecap="round" stroke-linejoin="round"/>
<path d="M716.799 286.731H603.068V300.948H716.799V286.731Z" fill="#CA7358"/>
<path d="M467.365 333.688H379.479V347.905H467.365V333.688Z" fill="#CA7358"/>
<path d="M520.139 504.287H489.982V543.061H520.139V504.287Z" fill="#F5EBDD"/>
<path d="M486.529 521.522H523.581" stroke="#FFB7D5" stroke-width="3.47826" stroke-linecap="round" stroke-linejoin="round"/>
<path d="M505.061 544.783V521.522" stroke="#FFB7D5" stroke-width="3.47826" stroke-linecap="round" stroke-linejoin="round"/>
<path d="M520.139 574.313H489.982V613.087H520.139V574.313Z" fill="#CA7358"/>
<path d="M486.529 591.539H523.581" stroke="#FFB7D5" stroke-width="3.47826" stroke-linecap="round" stroke-linejoin="round"/>
<path d="M505.061 614.809V591.539" stroke="#FFB7D5" stroke-width="3.47826" stroke-linecap="round" stroke-linejoin="round"/>
<path d="M576.998 504.287H546.842V543.061H576.998V504.287Z" fill="#30242A"/>
<path d="M543.4 521.522H580.453" stroke="#FFB7D5" stroke-width="3.47826" stroke-linecap="round" stroke-linejoin="round"/>
<path d="M561.922 544.783V521.522" stroke="#FFB7D5" stroke-width="3.47826" stroke-linecap="round" stroke-linejoin="round"/>
<path d="M576.998 574.313H546.842V613.087H576.998V574.313Z" fill="#F5EBDD"/>
<path d="M543.4 591.539H580.453" stroke="#FFB7D5" stroke-width="3.47826" stroke-linecap="round" stroke-linejoin="round"/>
<path d="M561.922 614.809V591.539" stroke="#FFB7D5" stroke-width="3.47826" stroke-linecap="round" stroke-linejoin="round"/>
<path d="M484.591 285.435C496.963 285.435 506.991 275.406 506.991 263.035C506.991 250.664 496.963 240.635 484.591 240.635C472.22 240.635 462.191 250.664 462.191 263.035C462.191 275.406 472.22 285.435 484.591 285.435Z" fill="#F5EBDD"/>
<path d="M737.392 605.096H357.418V630.948H737.392V605.096Z" fill="#F5EBDD"/>
<path d="M553.408 154.47H541.4C446.956 154.47 370.348 231.061 370.348 325.531V630.948H724.469V325.531C724.469 231.061 647.878 154.47 553.408 154.47ZM534.478 605.096H396.217V389.696H534.478V605.096ZM534.478 363.844H396.217V326.409C396.217 289.019 410.553 253.052 436.274 225.915C461.995 198.777 497.142 182.534 534.478 180.531V363.844ZM698.617 605.096H560.356V389.696H698.617V605.096ZM698.617 363.844H560.356V180.531C597.693 182.534 632.84 198.777 658.56 225.915C684.281 253.052 698.617 289.019 698.617 326.409V363.844Z" fill="#F5EBDD"/>
<path d="M345.016 815.417V832.174H489.894V815.417H345.016Z" fill="#A15842"/>
<path d="M513.756 902.348L477.869 687H499.852C502.204 687 504.46 686.066 506.124 684.403C507.787 682.739 508.722 680.483 508.722 678.131C508.722 675.778 507.787 673.522 506.124 671.859C504.46 670.196 502.204 669.261 499.852 669.261H335.27C332.917 669.261 330.661 670.196 328.998 671.859C327.334 673.522 326.4 675.778 326.4 678.131C326.4 680.483 327.334 682.739 328.998 684.403C330.661 686.066 332.917 687 335.27 687H357.009L321.122 902.331C320.939 903.399 320.993 904.494 321.277 905.539C321.562 906.585 322.072 907.556 322.771 908.384C323.47 909.212 324.341 909.877 325.324 910.334C326.307 910.79 327.377 911.027 328.461 911.026C330.16 911.026 331.809 910.444 333.133 909.378C334.457 908.312 335.376 906.826 335.739 905.165L383.313 687H451.6L499.13 905.157C499.49 906.817 500.407 908.304 501.73 909.371C503.053 910.437 504.701 911.018 506.4 911.018C507.482 911.02 508.552 910.786 509.535 910.332C510.518 909.878 511.39 909.215 512.09 908.39C512.79 907.565 513.302 906.596 513.59 905.553C513.878 904.509 513.935 903.416 513.756 902.348Z" fill="#FFBE21"/>
<path d="M499.852 687C502.205 687 504.461 686.066 506.124 684.403C507.788 682.739 508.722 680.483 508.722 678.131C508.722 675.778 507.788 673.522 506.124 671.859C504.461 670.196 502.205 669.261 499.852 669.261H335.27C332.918 669.261 330.662 670.196 328.998 671.859C327.335 673.522 326.4 675.778 326.4 678.131C326.4 680.483 327.335 682.739 328.998 684.403C330.662 686.066 332.918 687 335.27 687H357.009L356.966 687.27H383.218L383.279 687H451.566L451.626 687.27H477.913L477.87 687H499.852Z" fill="#A15842"/>
<path d="M1054.86 503.905H1054.64C1053.1 506.705 1042.9 523.826 1024.97 523.826C1007.05 523.826 996.852 506.705 995.296 503.905H995.087L967.191 629.826H1082.76L1054.86 503.905Z" fill="#3EC1F3"/>
<path d="M980.408 570.887C1004.08 573.365 1040.83 594.505 1053.61 629.461" stroke="#F5EBDD" stroke-width="3.47826" stroke-miterlimit="10" stroke-linecap="round"/>
<path d="M995.748 630.478C998.4 602 1020.97 554.931 1061.57 540.209" stroke="#F5EBDD" stroke-width="3.47826" stroke-miterlimit="10" stroke-linecap="round"/>
<path d="M1024.55 514.548C1014.57 525.061 1002 534.852 987.773 541.426" stroke="#F5EBDD" stroke-width="3.47826" stroke-miterlimit="10" stroke-linecap="round"/>
<path d="M1024.97 523.826C1042.89 523.826 1053.09 506.705 1054.64 503.905H995.295C996.851 506.705 1007.04 523.826 1024.97 523.826Z" fill="#30242A"/>
<path d="M1220 628.4H826.469V853.687H1220V628.4Z" fill="#FFB7D5"/>
<path d="M1190.38 657.435V824.635H856.088V657.435H1190.38ZM1193.86 653.957H852.609V828.113H1193.86V653.957Z" fill="#CA7358"/>
<path d="M1022.87 653.644V828.444" stroke="#CA7358" stroke-width="3.47826" stroke-miterlimit="10"/>
<path d="M984.05 751.174C989.645 751.174 994.181 746.639 994.181 741.044C994.181 735.449 989.645 730.913 984.05 730.913C978.455 730.913 973.92 735.449 973.92 741.044C973.92 746.639 978.455 751.174 984.05 751.174Z" fill="#30242A"/>
<path d="M443.06 561.087C449.81 561.087 456.284 563.769 461.057 568.542C465.83 573.315 468.512 579.789 468.512 586.54V669.505H417.607V586.54C417.607 579.789 420.289 573.315 425.062 568.542C429.835 563.769 436.309 561.087 443.06 561.087Z" fill="#4756DF"/>
<path d="M468.52 593.6H417.607V641.035H468.52V593.6Z" fill="#3EC1F3"/>
<path d="M454.372 547.887H431.746V563.913H454.372V547.887Z" fill="#30242A"/>
<path d="M705.93 476.218L701.983 492.348C701.772 493.183 701.78 494.058 702.006 494.888C702.232 495.719 702.669 496.477 703.274 497.089C703.879 497.701 704.632 498.147 705.46 498.383C706.288 498.618 707.163 498.637 708 498.435L722.739 494.957C723.571 494.755 724.337 494.343 724.964 493.76C725.591 493.176 726.058 492.442 726.32 491.627C726.582 490.812 726.63 489.943 726.459 489.104C726.289 488.265 725.907 487.484 725.348 486.835L714.557 474.218C713.961 473.527 713.189 473.012 712.322 472.728C711.455 472.445 710.527 472.404 709.639 472.61C708.751 472.816 707.935 473.261 707.282 473.897C706.628 474.533 706.161 475.335 705.93 476.218Z" fill="#F4E6D8"/>
<path d="M870.27 751.913V752.113L879.087 749.331L870.27 751.913Z" fill="#A15842"/>
<path d="M1027.71 513.313C1029.55 502.426 1037.94 459.244 1058.45 435.879" stroke="#30242A" stroke-width="3.47826" stroke-miterlimit="10" stroke-linecap="round"/>
<path d="M1022.03 511.931C1021.43 499.565 1017.83 438.887 1004.37 403.052" stroke="#30242A" stroke-width="3.47826" stroke-miterlimit="10" stroke-linecap="round"/>
<path d="M977.634 477.129C1000.76 472.721 1018.88 465.836 1018.11 461.75C1017.33 457.665 997.945 457.927 974.815 462.335C951.684 466.743 933.565 473.628 934.343 477.714C935.122 481.799 954.504 481.537 977.634 477.129Z" fill="#30242A"/>
<path d="M1014.24 351.453C1010.05 350.531 1004.9 357.018 1001.32 366.879C996.104 355.262 988.939 347.635 984.365 349.34C979.791 351.044 979.348 361.514 983.026 373.688C973.87 368.575 965.731 367.053 963.165 370.496C959.887 374.844 966.931 385.67 978.896 394.601C982.304 397.165 985.95 399.398 989.783 401.27C990.327 398.704 991.503 396.313 993.204 394.317C994.906 392.32 997.079 390.779 999.527 389.835C1001.97 388.891 1004.62 388.573 1007.22 388.911C1009.82 389.248 1012.3 390.229 1014.43 391.766C1016.02 387.954 1017.26 384.004 1018.14 379.966C1021.33 365.392 1019.59 352.627 1014.24 351.453Z" fill="#FFBE21"/>
<path d="M999.686 389.783C997.199 390.708 994.987 392.247 993.255 394.257C991.523 396.267 990.328 398.683 989.781 401.279C996.155 404.331 1001.72 405.462 1004.79 404.131C1008.04 403.105 1011.59 398.453 1014.42 391.775C1012.32 390.254 1009.88 389.277 1007.31 388.929C1004.73 388.582 1002.12 388.875 999.686 389.783Z" fill="#30242A"/>
<path d="M959.556 416.079V416.131C962.993 418.073 965.576 421.234 966.795 424.988C968.014 428.743 967.78 432.819 966.139 436.409C964.494 439.994 961.565 442.833 957.931 444.367C954.297 445.901 950.22 446.018 946.504 444.696V444.757C965.965 453.653 984.669 454.435 988.243 446.496C991.817 438.557 979.017 424.966 959.556 416.079Z" fill="#FFBE21"/>
<path d="M961.121 442.54C959.442 441.599 958.179 440.061 957.583 438.231C956.987 436.401 957.103 434.414 957.907 432.666C958.711 430.917 960.144 429.536 961.921 428.797C963.698 428.058 965.688 428.016 967.495 428.679C967.299 426.094 966.47 423.597 965.081 421.409C963.692 419.221 961.785 417.408 959.53 416.131L946.486 444.696C948.916 445.563 951.521 445.82 954.073 445.444C956.625 445.068 959.045 444.071 961.121 442.54Z" fill="#F5EBDD"/>
<path d="M957.904 432.687C957.107 434.434 956.995 436.416 957.591 438.241C958.187 440.066 959.447 441.6 961.122 442.54C963.273 440.96 964.986 438.858 966.101 436.434C967.216 434.009 967.696 431.34 967.495 428.679C965.686 428.019 963.693 428.064 961.916 428.807C960.138 429.55 958.706 430.936 957.904 432.687Z" fill="#30242A"/>
</svg>
