<svg width="533" height="660" viewBox="0 0 533 660" fill="none" xmlns="http://www.w3.org/2000/svg">
<path d="M148.852 354.767H130.834V661.011H148.852V354.767Z" fill="#FFBE21"/>
<path d="M148.86 358.979H130.834" stroke="#A15842" stroke-width="2.93456" stroke-miterlimit="10"/>
<path d="M49.0677 599.561C50.8929 594.326 54.3015 589.789 58.8209 586.579C63.3403 583.368 68.7466 581.643 74.2903 581.643C79.8339 581.643 85.2402 583.368 89.7597 586.579C94.2791 589.789 97.6877 594.326 99.5129 599.561C101.255 594.563 104.442 590.196 108.67 587.013C112.898 583.83 117.977 581.974 123.261 581.682C120.902 577.477 118.092 573.541 114.883 569.944L105.184 559.034C102.169 555.645 100.27 551.41 99.7447 546.904C99.2197 542.398 100.094 537.84 102.249 533.848L110.481 518.552C108.17 520.878 94.8102 533.386 74.5324 533.386C54.2545 533.386 40.8949 520.878 38.584 518.552H38.5473L46.7861 533.848C48.9317 537.848 49.7928 542.412 49.2519 546.919C48.7111 551.425 46.7946 555.656 43.7635 559.034L34.0721 569.9C30.8564 573.498 28.0399 577.433 25.6719 581.638C30.8994 582.002 35.9045 583.895 40.0644 587.082C44.2242 590.269 47.3552 594.608 49.0677 599.561Z" fill="#4756DF"/>
<path d="M124.736 615.018C119.191 615.019 113.784 616.746 109.264 619.959C104.744 623.171 101.337 627.711 99.5138 632.948C97.6921 627.71 94.2848 623.169 89.7649 619.956C85.2451 616.743 79.837 615.016 74.2912 615.016C68.7455 615.016 63.3374 616.743 58.8175 619.956C54.2977 623.169 50.8904 627.71 49.0686 632.948C46.8626 626.619 42.3591 621.35 36.4509 618.185C30.5426 615.021 23.6609 614.191 17.1699 615.862C17.5426 632.792 24.3654 648.941 36.2446 661.01H112.683C124.538 648.967 131.359 632.859 131.757 615.965C129.47 615.337 127.108 615.019 124.736 615.018Z" fill="#4756DF"/>
<path d="M74.4738 533.415C94.7516 533.415 108.111 520.907 110.422 518.581H38.5254C40.8364 520.885 54.196 533.415 74.4738 533.415Z" fill="#30242A"/>
<path d="M49.0689 632.949C50.8906 627.711 54.2979 623.17 58.8177 619.957C63.3376 616.743 68.7457 615.017 74.2915 615.017C79.8372 615.017 85.2453 616.743 89.7652 619.957C94.285 623.17 97.6923 627.711 99.514 632.949C101.738 626.553 106.31 621.241 112.303 618.087C118.296 614.934 125.263 614.176 131.794 615.965C132.096 603.979 129.153 592.134 123.277 581.682C117.992 581.975 112.914 583.83 108.686 587.013C104.458 590.196 101.271 594.564 99.5287 599.561C97.7035 594.326 94.2949 589.789 89.7755 586.579C85.2561 583.369 79.8498 581.644 74.3061 581.644C68.7625 581.644 63.3562 583.369 58.8367 586.579C54.3173 589.789 50.9087 594.326 49.0835 599.561C47.3605 594.621 44.2249 590.295 40.0659 587.121C35.9069 583.947 30.9074 582.063 25.6877 581.704C19.8379 592.12 16.9008 603.92 17.1848 615.863C23.6758 614.192 30.5575 615.021 36.4657 618.186C42.374 621.351 46.8775 626.62 49.0835 632.949H49.0689Z" fill="#3EC1F3"/>
<path d="M79.8008 531.318C81.2681 522.338 87.9369 486.742 104.708 467.396" stroke="#30242A" stroke-width="2.93456" stroke-miterlimit="10" stroke-linecap="round"/>
<path d="M72.0619 531.573C71.9519 521.376 70.9028 471.305 60.9473 441.431" stroke="#30242A" stroke-width="2.93456" stroke-miterlimit="10" stroke-linecap="round"/>
<path d="M116.186 496.539C130.89 490.068 141.631 482.142 140.175 478.833C138.72 475.525 125.619 478.089 110.914 484.559C96.2097 491.029 85.4691 498.956 86.9247 502.264C88.3803 505.572 101.481 503.009 116.186 496.539Z" fill="#30242A"/>
<path d="M116.178 405.52C121.465 398.373 123.73 391.085 121.238 389.242C118.746 387.398 112.441 391.698 107.154 398.845C101.868 405.992 99.6022 413.28 102.094 415.123C104.586 416.966 110.892 412.667 116.178 405.52Z" fill="#30242A"/>
<path d="M36.564 501.62C55.7339 498.721 70.859 493.626 70.347 490.241C69.8351 486.856 53.8798 486.462 34.71 489.361C15.5402 492.26 0.415038 497.355 0.927011 500.74C1.43898 504.125 17.3942 504.519 36.564 501.62Z" fill="#30242A"/>
<path d="M23.1719 451.615V451.666C26.0043 453.25 28.1406 455.837 29.1595 458.919C30.1785 462 30.0062 465.351 28.6766 468.311C27.347 471.271 24.9566 473.626 21.9766 474.911C18.9967 476.196 15.6435 476.318 12.5781 475.253V475.297C28.6449 482.516 44.0586 483.066 46.9932 476.529C49.9278 469.992 39.246 458.834 23.1719 451.615Z" fill="#FF7235"/>
<path d="M70.6751 399.29C67.2563 398.403 62.8105 403.575 59.5604 411.579C55.6501 401.858 49.9791 395.351 46.1568 396.613C42.3345 397.875 41.6523 406.473 44.3007 416.612C36.9203 412.122 30.2735 410.611 28.0506 413.362C25.2187 416.869 30.677 425.966 40.2437 433.691C42.9654 435.908 45.8938 437.859 48.9887 439.516C49.5162 437.421 50.5589 435.49 52.0221 433.9C53.4852 432.31 55.3225 431.11 57.3669 430.411C59.4114 429.711 61.5982 429.533 63.7289 429.893C65.8595 430.253 67.8664 431.14 69.5673 432.473C71.0012 429.387 72.1457 426.175 72.9861 422.877C76.0747 410.985 75.0402 400.42 70.6751 399.29Z" fill="#FF7235"/>
<path d="M145.256 453.294C144.199 449.919 137.457 448.892 128.947 450.359C135.124 441.9 137.648 433.647 134.559 431.072C131.471 428.497 123.804 432.466 116.6 440.073C116.512 431.431 114.274 424.99 110.767 424.557C106.3 424.007 101.457 433.456 99.9609 445.649C99.5174 449.135 99.4093 452.656 99.6381 456.162C101.696 455.499 103.888 455.361 106.013 455.76C108.138 456.16 110.13 457.085 111.807 458.45C113.484 459.816 114.792 461.579 115.614 463.579C116.436 465.579 116.744 467.753 116.512 469.903C119.891 469.476 123.223 468.739 126.467 467.702C138.184 464.056 146.598 457.593 145.256 453.294Z" fill="#FF7235"/>
<path d="M111.905 458.527C110.227 457.128 108.223 456.175 106.078 455.759C103.934 455.342 101.718 455.474 99.6387 456.143C100.057 461.946 101.524 466.414 103.732 468.035C105.794 469.943 110.563 470.581 116.498 469.884C116.729 467.759 116.431 465.61 115.629 463.628C114.828 461.647 113.549 459.894 111.905 458.527Z" fill="#30242A"/>
<path d="M57.4985 430.369C55.4241 431.054 53.5563 432.251 52.0685 433.851C50.5807 435.45 49.5211 437.399 48.9883 439.518C54.1238 442.232 58.687 443.333 61.2548 442.335C63.9619 441.601 67.0212 437.882 69.5669 432.475C67.8854 431.155 65.9033 430.272 63.7975 429.905C61.6917 429.537 59.5276 429.697 57.4985 430.369Z" fill="#30242A"/>
<path d="M24.603 473.396C23.2234 472.626 22.1831 471.367 21.688 469.867C21.1928 468.367 21.2791 466.736 21.9296 465.296C22.5801 463.857 23.7474 462.714 25.2004 462.095C26.6534 461.475 28.2861 461.424 29.7752 461.951C29.6029 459.828 28.9104 457.781 27.7588 455.989C26.6072 454.198 25.032 452.718 23.1724 451.68L12.5566 475.252C14.5631 475.952 16.7108 476.15 18.8113 475.826C20.9117 475.502 22.9005 474.668 24.603 473.396Z" fill="#F5EBDD"/>
<path d="M21.9028 465.305C21.263 466.744 21.1852 468.371 21.6849 469.864C22.1846 471.358 23.2256 472.61 24.6026 473.375C26.366 472.064 27.7661 470.325 28.6711 468.322C29.576 466.32 29.9559 464.12 29.7748 461.93C28.2788 461.397 26.6369 461.449 25.1774 462.075C23.7179 462.7 22.5484 463.854 21.9028 465.305Z" fill="#4856DF"/>
<path d="M506.737 477.146H320.15L323.305 464.631H405.209L436.447 342.465C440.703 325.824 450.377 311.074 463.944 300.539C477.51 290.005 494.198 284.287 511.374 284.287C553.404 284.287 584.159 323.903 573.733 364.621L554.431 440.105C551.722 450.698 545.565 460.088 536.929 466.795C528.294 473.502 517.671 477.144 506.737 477.146Z" fill="#FFB7D5"/>
<path d="M321.594 592.76V606.01H440.51V592.76H321.594Z" fill="#A15842"/>
<path d="M460.099 653.894L429.169 469.787H332.93L301.999 653.894C301.853 654.77 301.9 655.667 302.136 656.523C302.371 657.379 302.791 658.173 303.365 658.85C303.939 659.528 304.654 660.072 305.459 660.445C306.265 660.818 307.142 661.011 308.03 661.011C309.425 661.009 310.777 660.531 311.863 659.656C312.949 658.781 313.704 657.561 314.002 656.198L354.513 469.787H407.614L448.111 656.198C448.408 657.561 449.162 658.782 450.248 659.658C451.335 660.533 452.688 661.011 454.083 661.011C454.97 661.009 455.845 660.814 456.649 660.44C457.453 660.066 458.166 659.522 458.738 658.845C459.31 658.168 459.728 657.374 459.963 656.519C460.198 655.665 460.245 654.769 460.099 653.894Z" fill="#A15842"/>
<path d="M420.109 592.76V606.01H539.025V592.76H420.109Z" fill="#FFBE21"/>
<path d="M558.611 653.894L527.651 469.787H431.449L400.519 653.894C400.373 654.77 400.419 655.667 400.655 656.523C400.891 657.379 401.31 658.173 401.884 658.85C402.458 659.528 403.173 660.072 403.979 660.445C404.784 660.818 405.661 661.011 406.549 661.011C407.944 661.01 409.296 660.533 410.381 659.657C411.466 658.782 412.219 657.561 412.514 656.198L453.011 469.787H506.119L546.616 656.198C546.913 657.563 547.668 658.784 548.756 659.66C549.844 660.536 551.199 661.012 552.595 661.011C553.482 661.009 554.357 660.814 555.161 660.44C555.965 660.066 556.678 659.522 557.25 658.845C557.822 658.168 558.241 657.374 558.476 656.519C558.711 655.665 558.757 654.769 558.611 653.894Z" fill="#FFBE21"/>
<path d="M461.413 440.104L473.21 393.965H395.026C379.694 393.966 364.798 399.069 352.688 408.472C340.577 417.874 331.941 431.039 328.14 445.893L320.15 477.146H413.712C424.647 477.145 435.271 473.503 443.908 466.796C452.545 460.09 458.704 450.698 461.413 440.104Z" fill="#FFB7D5"/>
<path d="M325.234 463.404H424.496" stroke="#A15842" stroke-width="2.93456" stroke-linecap="round" stroke-linejoin="round"/>
<path d="M405.561 462.942L422.955 394.933" stroke="#A15842" stroke-width="2.93456" stroke-linecap="round" stroke-linejoin="round"/>
<path d="M565.068 392.387H518.115" stroke="#A15842" stroke-width="2.93456" stroke-linecap="round" stroke-linejoin="round"/>
<path d="M573.871 359.374H513.713" stroke="#A15842" stroke-width="2.93456" stroke-linecap="round" stroke-linejoin="round"/>
<path d="M354.741 344.467C354.741 344.467 295.881 360.497 270.878 373.005C229.655 393.613 229.794 407.215 204.66 483.36C181.455 553.73 178.902 587.837 146.893 589.187C122.455 590.214 114.444 598.211 110.482 609.172L207.184 655.054C208.292 655.578 209.559 655.659 210.725 655.28C211.891 654.901 212.868 654.09 213.456 653.014C214.055 651.914 214.201 650.624 213.862 649.418C213.524 648.212 212.728 647.186 211.644 646.558L209.612 645.384C218.599 634.497 235.935 611.299 253.22 576.062L264.224 581.198C264.224 581.198 282 558.096 284.818 531.89C288.486 498.047 286.285 475.238 301.743 461.996L481.998 344.437L354.741 344.467Z" fill="#FF7235"/>
<path d="M137.393 594.623C139.307 590.64 149.945 566.371 156.064 569.306C164.024 573.12 143.364 597.485 143.364 597.485L137.393 594.623Z" fill="#30242A"/>
<path d="M110.475 609.515L207.176 655.39C208.295 655.924 209.578 656.004 210.755 655.613C211.933 655.222 212.912 654.39 213.489 653.292C214.066 652.194 214.196 650.915 213.85 649.723C213.505 648.532 212.711 647.521 211.636 646.902L209.604 645.728L209.81 645.478L143.342 614.101C144.338 611.341 145.036 608.483 145.425 605.576C155.373 607.3 175.505 609.156 175.607 600.858C175.717 593.126 153.73 596.229 145.697 598.415C145.524 595.443 144.946 592.509 143.98 589.692C121.817 591.218 114.275 598.995 110.475 609.515Z" fill="#30242A"/>
<path d="M270.88 373.005C266.25 375.316 262.149 377.539 258.474 379.77L252.832 397.839L274.548 382.543L294.569 398.507L287.188 376.622L309.865 366.234L292.339 364.033C285.031 366.64 277.868 369.635 270.88 373.005Z" fill="#FFB7D5"/>
<path d="M334.858 363.6L333.391 373.159L342.957 369.484L334.858 363.6Z" fill="#FFB7D5"/>
<path d="M279.682 411.417L265.707 429.81L245.84 420.251L257.607 440.11L239.215 455.561L262.757 452.619L270.857 479.844L278.949 452.619L304.7 445.26L279.682 434.96V411.417Z" fill="#FFB7D5"/>
<path d="M201.108 551.852L202.824 546.952L226.301 545.705L207.226 532.719L215.722 512.375L196.508 525.185L192.84 521.223C189.905 530.885 187.308 539.491 184.77 547.054H184.887C185.166 546.225 185.444 545.389 185.723 544.538L201.108 551.852Z" fill="#FFB7D5"/>
<path d="M201.108 551.852L185.702 544.567C185.423 545.418 185.144 546.254 184.865 547.083C175.555 574.815 167.075 588.68 146.907 589.532C145.916 589.532 144.963 589.627 144.024 589.693C144.99 592.509 145.567 595.444 145.74 598.416C153.81 596.215 175.761 593.126 175.651 600.859C175.533 609.156 155.417 607.3 145.469 605.576C145.073 608.485 144.367 611.343 143.363 614.101L209.831 645.479C218.87 634.474 236.059 611.394 253.211 576.451L201.108 551.852Z" fill="#EAA58B"/>
<path d="M259.815 496.029L257.614 515.896L237.014 515.162L254.672 528.411L248.07 551.954L265.743 536.496L281.626 547.09C282.067 545.686 282.47 544.265 282.837 542.828L276.748 527.663L286.182 517.326C286.336 515.404 286.483 513.511 286.622 511.67L270.145 514.421L259.815 496.029Z" fill="#FFB7D5"/>
<path d="M213.926 454.733C212.069 460.47 210.074 466.699 207.873 473.47L227.447 474.666L213.926 454.733Z" fill="#FFB7D5"/>
<path d="M283.043 633.962C283.351 629.56 284.312 603.076 291.076 603.553C299.88 604.169 289.646 634.424 289.646 634.424L283.043 633.962Z" fill="#30242A"/>
<path d="M445.975 345.544C445.975 345.544 372.399 359.19 331.931 376.108C291.075 393.194 291.471 423.538 298.822 505.962C305.425 579.752 317.222 615.583 292.953 626.617C270.694 636.741 262.961 649.433 264.018 661.039H373.587C374.205 661.039 374.816 660.918 375.387 660.681C375.957 660.445 376.476 660.099 376.912 659.662C377.349 659.225 377.695 658.707 377.932 658.136C378.168 657.566 378.29 656.954 378.29 656.337C378.29 655.09 377.794 653.893 376.912 653.011C376.03 652.13 374.834 651.634 373.587 651.634H371.738C375.194 640.329 380.205 618.261 380.894 581.74H394.481C394.481 581.74 401.465 549.46 393.748 520.672C385.678 490.512 378.297 485.362 373.888 464.761H439.82C490.17 464.761 527.857 418.189 516.904 369.05C513.485 353.695 508.526 345.574 508.526 345.574L445.975 345.544Z" fill="#FF7235"/>
<path d="M400.359 388.609L386.853 405.6L365.819 398.374L378.284 418.776L362.1 440.851L383.434 432.018L395.326 453.94L396.676 429.81L417.277 425.401L399.625 414.36L400.359 388.609Z" fill="#FFB7D5"/>
<path d="M370.968 519.771L383.44 540.173L367.256 562.249L388.59 553.445L396.499 568.022C397.658 556.695 398.23 539.939 394.533 523.85L392.009 527.026L370.968 519.771Z" fill="#FFB7D5"/>
<path d="M315.96 581.712L315.014 570.34L338.901 561.126L316.291 556.438L318.785 531.619L304.112 550.818L303.672 550.635C305.08 562.483 306.313 572.835 307.003 581.792V581.712H315.96Z" fill="#FFB7D5"/>
<path d="M373.587 651.605H371.738C375.194 640.299 380.205 618.231 380.894 581.711H306.98V581.777C307.039 582.51 307.09 583.244 307.141 583.978C307.141 584.044 307.141 584.117 307.141 584.183C308.675 607.109 306.173 620.52 292.923 626.544C270.665 636.668 262.932 649.36 263.989 660.966H373.587C374.834 660.966 376.031 660.47 376.912 659.589C377.794 658.707 378.29 657.511 378.29 656.263C378.29 655.016 377.794 653.82 376.912 652.938C376.031 652.056 374.834 651.561 373.587 651.561V651.605Z" fill="#EAA58B"/>
<path d="M471.691 347.446L437.892 350.439L441.413 364.026L419.793 375.559L446.725 379.161L455.837 399.343L465.205 378.442L492.6 374.113L468.808 361.862L471.691 347.446Z" fill="#FFB7D5"/>
<path d="M310.597 443.053L318.667 417.302L342.21 420.971L323.817 404.786L337.023 389.336L312.747 398.14L308.866 391.486C302.622 398.558 298.851 407.339 296.834 418.63L300.972 418.762L310.597 443.053Z" fill="#FFB7D5"/>
<path d="M373.588 362.273C368.622 363.652 363.677 365.097 358.85 366.586L378.298 379.792L373.588 362.273Z" fill="#FFB7D5"/>
<path d="M341.498 481.312L331.198 459.978L326.048 483.521L306.922 482.053L324.573 497.504L313.539 523.255L332.695 505.398L348.571 523.702L343.707 496.029L359.891 474.695L341.498 481.312Z" fill="#FFB7D5"/>
<path d="M297.825 643C307.553 640.315 326.539 633.404 323.106 625.855C319.907 618.812 301.346 630.991 295.015 636.412C293.417 633.48 291.375 630.812 288.962 628.504C269.755 638.283 263.013 650.124 264.018 661.011H373.588C374.835 661.011 376.031 660.516 376.913 659.634C377.795 658.752 378.29 657.556 378.29 656.309C378.29 655.061 377.795 653.865 376.913 652.983C376.031 652.101 374.835 651.606 373.588 651.606H299.563C299.288 648.684 298.705 645.8 297.825 643Z" fill="#30242A"/>
<path d="M373.587 466.383L354.645 466.118" stroke="#A15842" stroke-width="2.93456" stroke-miterlimit="10" stroke-linecap="round"/>
<path d="M387.673 359.058C368.048 364.061 347.073 370.202 331.183 376.834C297.289 391.03 291.794 414.331 295.088 468.972" stroke="#A15842" stroke-width="2.93456" stroke-miterlimit="10" stroke-linecap="round"/>
<path d="M375.341 124.484C365.07 123.017 341.542 134.058 340.765 155.884C339.987 177.709 359.473 184.723 362.591 186.286L407.805 179.265L410.923 129.377L375.341 124.484Z" fill="#A15842"/>
<path d="M455.22 70.2828C474.628 70.2828 490.361 54.5495 490.361 35.1414C490.361 15.7333 474.628 0 455.22 0C435.811 0 420.078 15.7333 420.078 35.1414C420.078 54.5495 435.811 70.2828 455.22 70.2828Z" fill="#A15842"/>
<path d="M432.427 59.3072C434.569 60.2976 416.529 17.4897 407.321 24.1658C398.657 30.4678 421.547 54.2891 432.427 59.3072Z" fill="#30242A"/>
<path d="M433.424 61.9259C435.39 64.2735 481.419 48.1701 475.051 38.8822C468.962 29.9465 431.458 59.5709 433.424 61.9259Z" fill="#30242A"/>
<path d="M494.529 179.661C494.529 179.661 525.43 153.911 505.534 125.218C492.871 106.928 458.441 114.213 458.441 114.213C459.278 104.17 462.007 75.235 440.247 59.337C418.487 43.439 390.88 51.8098 380.822 64.3551C370.764 76.9003 373.295 100.34 369.949 117.075C366.604 133.809 368.834 145.188 379.149 150.543C388.533 155.415 399.574 152.473 399.574 152.473L398.4 170.131C398.4 170.131 377.125 170.931 364.088 175.648C332.673 187.02 277.481 265.006 277.481 265.006C242.905 263.539 210.529 262.071 210.529 262.071L227.454 312.106C227.454 312.106 270.123 326.082 301.024 317.975C332.372 309.765 362.092 265.74 362.092 265.74L372.363 295.166L354.704 344.459H508.476L482.725 298.841C487.178 258.388 494.529 179.661 494.529 179.661Z" fill="#EAA58B"/>
<path d="M445.118 168.297L404.768 241.463L388.261 170.865C381.005 171.599 371.336 173.022 364.161 175.619C332.673 187.02 277.481 265.006 277.481 265.006C242.905 263.539 210.529 262.071 210.529 262.071L227.454 312.106C227.454 312.106 270.123 326.082 301.024 317.975C332.372 309.765 362.092 265.74 362.092 265.74L372.363 295.166L354.704 344.459H508.476L482.725 298.849C487.127 258.381 494.463 179.654 494.463 179.654C487.651 175.507 480.191 172.531 472.395 170.85C463.613 168.87 453.959 170.051 445.118 168.297Z" fill="#4756DF"/>
<path d="M236.154 339.317H363.573L334.601 247.817C333.75 245.12 332.061 242.765 329.78 241.094C327.499 239.422 324.745 238.521 321.917 238.522H214.233C212.141 238.52 210.077 239.013 208.211 239.959C206.345 240.905 204.728 242.278 203.492 243.966C202.256 245.654 201.436 247.611 201.098 249.676C200.761 251.741 200.915 253.856 201.548 255.85L225.494 331.518C226.213 333.781 227.633 335.757 229.55 337.16C231.466 338.562 233.779 339.317 236.154 339.317Z" fill="#30242A"/>
<path d="M255.14 279.912C258.522 275.29 273.863 287.498 274.992 288.503C275.579 287.498 283.569 275.297 289.423 279.912C294.507 283.918 283.334 301.811 280.363 306.374C280.238 306.513 280.086 306.623 279.916 306.699C279.746 306.775 279.562 306.814 279.376 306.814C279.19 306.814 279.006 306.775 278.836 306.699C278.666 306.623 278.514 306.513 278.389 306.374C272.968 301.811 252.205 283.918 255.14 279.912Z" fill="#A15842"/>
<path d="M273.729 283.008C275.009 282.609 275.058 279.109 273.837 275.19C272.617 271.272 270.589 268.418 269.309 268.817C268.028 269.216 267.98 272.716 269.2 276.635C270.421 280.553 272.448 283.407 273.729 283.008Z" fill="#A15842"/>
<path d="M437.562 329.016C437.931 330.199 438.016 331.453 437.812 332.676C437.607 333.899 437.119 335.056 436.385 336.056C435.651 337.055 434.693 337.868 433.587 338.429C432.482 338.99 431.26 339.284 430.02 339.287H236.155C233.781 339.287 231.467 338.532 229.551 337.13C227.634 335.727 226.214 333.751 225.495 331.488L224.703 328.986L437.562 329.016Z" fill="#30242A"/>
<path d="M667.777 339.316H99.7852V357.709H667.777V339.316Z" fill="#FFBE21"/>
<path d="M554.421 440.104L566.218 393.965H497.403C482.072 393.966 467.177 399.07 455.068 408.472C442.959 417.874 434.323 431.04 430.524 445.893L422.527 477.146H506.713C517.649 477.145 528.274 473.504 536.912 466.797C545.55 460.09 551.71 450.699 554.421 440.104Z" fill="#FFB7D5"/>
<path d="M424.157 465.047L421.436 476.551" stroke="#A15842" stroke-width="2.93456" stroke-linecap="round" stroke-linejoin="round"/>
<path d="M204.395 264.72C195.834 268.997 191.557 276.128 191.557 281.125C191.557 288.417 198.981 289.789 198.981 289.789C198.981 289.789 193.442 298.497 203.075 302.584C203.075 302.584 203.075 311.549 212.047 311.549C212.047 311.549 210.859 318.54 220.22 319.201C229.581 319.861 239.214 314.975 240.028 311.813C240.96 308.079 238.444 304.953 231.65 303.963C231.65 303.963 240.821 299.678 239.368 294.271C237.915 288.864 231.716 288.989 231.716 288.989C231.716 288.989 237.651 285.431 234.482 280.185C231.313 274.94 225.253 276.759 225.253 276.759C225.253 276.759 226.837 273.091 224.064 270.296C220.763 266.995 206.567 271.162 206.567 271.162L204.395 264.72Z" fill="#EAA58A"/>
<path d="M212.113 311.894C219.839 310.042 227.334 307.335 234.46 303.824" stroke="#A15842" stroke-width="2.93456" stroke-miterlimit="10" stroke-linecap="round"/>
<path d="M203.053 302.539C213.764 299.602 223.99 295.121 233.411 289.238" stroke="#A15842" stroke-width="2.93456" stroke-miterlimit="10" stroke-linecap="round"/>
<path d="M198.248 290.831C208.174 287.894 217.552 283.351 226.009 277.383" stroke="#A15842" stroke-width="2.93456" stroke-miterlimit="10" stroke-linecap="round"/>
<path d="M505.568 125.218C492.906 106.928 458.476 114.213 458.476 114.213C459.312 104.17 462.041 75.235 440.282 59.337C418.522 43.439 390.915 51.8098 380.857 64.3551C376.763 69.4906 374.76 76.4014 373.594 83.9433C380.27 85.0658 390.064 82.7695 390.064 82.7695C403.453 97.8311 415.448 100.223 415.448 100.223C424.817 90.8542 441.25 91.1623 443.921 105.358C446.694 120.097 423.151 126.722 423.151 126.722C423.151 126.722 420.95 153.206 432.689 162.773C436.291 165.629 440.551 167.538 445.08 168.327C453.883 170.08 463.575 168.899 472.423 170.865C480.219 172.546 487.678 175.522 494.49 179.669C497.178 177.3 499.635 174.682 501.827 171.848C509.545 162.061 518.774 144.293 505.568 125.218Z" fill="#A15842"/>
<path d="M404.034 77.3997C399.633 81.0679 394.497 83.2688 388.584 84.7361" stroke="#EAA58B" stroke-width="2.93456" stroke-miterlimit="10" stroke-linecap="round"/>
<path d="M399.33 154.123C402.746 152.983 406.042 151.509 409.168 149.721" stroke="#A15842" stroke-width="2.93456" stroke-miterlimit="10" stroke-linecap="round"/>
<path d="M424.055 111.923L430.745 107.741" stroke="#A15842" stroke-width="2.93456" stroke-miterlimit="10" stroke-linecap="round"/>
<path d="M385.662 131.564C387.049 132.422 392.265 133.09 394.334 129.106" stroke="#A15842" stroke-width="2.93456" stroke-miterlimit="10" stroke-linecap="round"/>
<path d="M399.294 112.739C400.68 112.739 401.803 111.615 401.803 110.23C401.803 108.844 400.68 107.721 399.294 107.721C397.908 107.721 396.785 108.844 396.785 110.23C396.785 111.615 397.908 112.739 399.294 112.739Z" fill="#30242A"/>
<path d="M378.497 109.416C379.883 109.416 381.006 108.292 381.006 106.907C381.006 105.521 379.883 104.398 378.497 104.398C377.112 104.398 375.988 105.521 375.988 106.907C375.988 108.292 377.112 109.416 378.497 109.416Z" fill="#30242A"/>
<path d="M385.561 116.598C385.062 118.175 384.629 119.892 384.916 120.464C385.309 121.189 385.906 121.784 386.632 122.174" stroke="#A15842" stroke-width="2.93456" stroke-miterlimit="10" stroke-linecap="round"/>
<path d="M427.203 136.509C432.057 136.509 435.992 132.574 435.992 127.72C435.992 122.866 432.057 118.931 427.203 118.931C422.349 118.931 418.414 122.866 418.414 127.72C418.414 132.574 422.349 136.509 427.203 136.509Z" fill="#F5EBDD"/>
<path d="M384.923 108.317C386.444 100.502 381.973 93.0568 374.937 91.6879C367.901 90.319 360.965 95.5448 359.445 103.36C357.924 111.175 362.395 118.62 369.431 119.989C376.466 121.358 383.403 116.132 384.923 108.317Z" stroke="#30242A" stroke-width="2.93456" stroke-miterlimit="10" stroke-linecap="round"/>
<path d="M416.798 112.225C418.319 104.409 413.848 96.9643 406.812 95.5954C399.776 94.2265 392.84 99.4523 391.32 107.268C389.799 115.083 394.27 122.528 401.306 123.897C408.341 125.266 415.278 120.04 416.798 112.225Z" stroke="#30242A" stroke-width="2.93456" stroke-miterlimit="10" stroke-linecap="round"/>
<path d="M385.525 107.133L390.595 107.676" stroke="#30242A" stroke-width="2.93456" stroke-miterlimit="10" stroke-linecap="round"/>
<path d="M460.157 115.181L458.697 124.572" stroke="#30242A" stroke-width="2.93456" stroke-miterlimit="10" stroke-linecap="round"/>
<path d="M354.008 246.613L361.109 267.28" stroke="#30242A" stroke-width="2.93456" stroke-linecap="round" stroke-linejoin="round"/>
<path d="M391.527 293.699H372.855" stroke="#30242A" stroke-width="2.93456" stroke-linecap="round" stroke-linejoin="round"/>
<path d="M406.242 240.731L412.126 269.423V295.908" stroke="#30242A" stroke-width="2.93456" stroke-linecap="round" stroke-linejoin="round"/>
<path d="M367.11 174.981L378.283 200.262L365.041 198.795L412.126 269.423" stroke="#30242A" stroke-width="2.93456" stroke-linecap="round" stroke-linejoin="round"/>
<path d="M475.975 171.973L457.01 198.795L474.669 197.32L409.918 254.705" stroke="#30242A" stroke-width="2.93456" stroke-linecap="round" stroke-linejoin="round"/>
<path d="M485.836 261.911L471.729 242.206" stroke="#30242A" stroke-width="2.93456" stroke-linecap="round" stroke-linejoin="round"/>
<path d="M502.159 334.541C494.478 331.98 480.693 327.035 472.381 322.069" stroke="#30242A" stroke-width="2.93456" stroke-linecap="round" stroke-linejoin="round"/>
<path d="M290.282 151.988C298.252 151.988 304.713 145.528 304.713 137.558C304.713 129.588 298.252 123.127 290.282 123.127C282.312 123.127 275.852 129.588 275.852 137.558C275.852 145.528 282.312 151.988 290.282 151.988Z" fill="#FFB7D5"/>
<path d="M247.154 80.129L238.752 69.9981C237.459 68.4387 235.146 68.223 233.587 69.5162L233.406 69.6661C231.847 70.9593 231.631 73.2719 232.924 74.8313L241.326 84.9621C242.619 86.5215 244.932 86.7373 246.491 85.444L246.672 85.2942C248.231 84.0009 248.447 81.6884 247.154 80.129Z" fill="#4756DF"/>
<path d="M262.264 92.4381L253.812 82.2405L101.897 208.207C100.572 209.306 99.7383 210.887 99.5788 212.601C99.4192 214.315 99.9469 216.023 101.046 217.348L101.215 217.553C101.759 218.209 102.426 218.751 103.18 219.149C103.933 219.547 104.757 219.792 105.605 219.871C106.454 219.95 107.309 219.861 108.123 219.609C108.937 219.358 109.693 218.948 110.349 218.404L157.845 179.008V317.248H171.101V168.003L262.264 92.4381Z" fill="#3EC1F3"/>
<path d="M237.783 95.3726L242.016 100.508C243.491 102.29 244.611 104.337 245.318 106.539" stroke="#4756DF" stroke-width="2.93456" stroke-miterlimit="10"/>
<path d="M164.472 182.067C174.022 182.067 181.764 174.325 181.764 164.775C181.764 155.225 174.022 147.483 164.472 147.483C154.922 147.483 147.18 155.225 147.18 164.775C147.18 174.325 154.922 182.067 164.472 182.067Z" fill="#4756DF"/>
<path d="M164.471 171.423C168.142 171.423 171.118 168.447 171.118 164.776C171.118 161.105 168.142 158.129 164.471 158.129C160.8 158.129 157.824 161.105 157.824 164.776C157.824 168.447 160.8 171.423 164.471 171.423Z" fill="#3EC1F3"/>
<path d="M302.131 129.364L280.012 147.646" stroke="#A15842" stroke-width="2.93456" stroke-miterlimit="10"/>
<path d="M273.474 90.5903C268.823 90.0438 264.562 87.7264 261.575 84.1195L255.706 77.0252C253.631 74.5278 250.65 72.9558 247.418 72.6546C244.185 72.3533 240.965 73.3474 238.465 75.4186C237.228 76.4445 236.205 77.7041 235.454 79.1255C234.704 80.5468 234.241 82.1021 234.092 83.7024C233.943 85.3027 234.11 86.9167 234.585 88.4523C235.06 89.9878 235.832 91.4148 236.858 92.6518L242.727 99.7681C245.701 103.365 247.18 107.966 246.858 112.622L245.391 134.073C244.663 144.569 247.328 155.021 252.991 163.888L254.869 166.823L325.247 108.447L322.724 106.077C315.064 98.8705 305.29 94.3157 294.845 93.0846L273.474 90.5903Z" fill="#3EC1F3"/>
<path d="M171.104 317.248H157.847L138.251 322.589C134.582 323.59 131.344 325.77 129.036 328.793C126.728 331.815 125.478 335.513 125.479 339.316H203.465C203.465 335.512 202.214 331.814 199.904 328.791C197.595 325.768 194.355 323.589 190.685 322.589L171.104 317.248Z" fill="#3EC1F3"/>
<path d="M311.897 98.0663L247.49 151.299" stroke="#4756DF" stroke-width="2.93456" stroke-miterlimit="10" stroke-linecap="round"/>
<path d="M157.523 315.729H171.103" stroke="#4756DF" stroke-width="2.93456" stroke-miterlimit="10" stroke-linecap="round"/>
<path d="M128.055 330.145H200.45" stroke="#4756DF" stroke-width="2.93456" stroke-miterlimit="10" stroke-linecap="round"/>
<path d="M545.304 528.582C546.772 516.11 546.038 488.114 529.854 466.78C513.67 445.445 535.723 454.308 542.326 460.177C552.89 469.568 562.193 478.569 570.285 508.737L545.304 528.582Z" fill="#30242A"/>
<path d="M530.03 578.549L548.246 661.01H582.097V655.875C582.097 652.564 580.784 649.388 578.446 647.043C576.108 644.698 572.936 643.376 569.625 643.366C569.625 643.366 586.542 630.682 596.843 618.173C596.843 618.173 614.501 639.691 639.519 636.008L641.331 644.812C642.273 649.381 644.761 653.486 648.375 656.436C651.99 659.387 656.51 661.002 661.176 661.01H743.219C779.607 661.01 797.508 655.457 798.535 634.739C798.567 633.948 798.439 633.16 798.158 632.42C797.877 631.681 797.45 631.006 796.902 630.436C796.353 629.866 795.696 629.412 794.968 629.103C794.24 628.793 793.457 628.634 792.666 628.635H769.762C768.818 628.636 767.885 628.425 767.033 628.017C766.181 627.609 765.431 627.016 764.839 626.28L755.089 614.182C752.199 610.602 748.342 607.927 743.976 606.474C739.611 605.021 734.92 604.852 730.461 605.987L710.851 610.998C710.851 610.998 676.105 561.066 644.632 526.387C614.553 493.278 557.974 489.705 535.686 532.829C528.521 546.941 526.52 563.116 530.03 578.549Z" fill="#A15842"/>
<path d="M472.461 274.14C463.407 273.33 454.304 273.229 445.235 273.84C432.265 274.903 414.826 278.3 407.82 281.689C400.813 285.079 373.984 297.045 381.211 301.058C387.813 304.726 401.664 299.209 401.664 299.209C401.664 299.209 387.843 311.915 385.466 317.234C383.089 322.553 390.946 325.539 390.946 325.539C393.015 334.622 402.273 330.719 402.273 330.719C408.106 343.125 439.616 316.244 439.616 316.244C447.112 317.023 454.683 316.704 462.087 315.298C462.087 315.298 466.078 317.535 472.483 320.646L472.461 274.14Z" fill="#EAA58A"/>
<path d="M551.181 336.375C610.041 308.416 524.718 203.953 494.529 179.662L477.611 248.089L498.945 277.515C489.599 275.901 480.663 274.793 472.461 274.141V320.646C491.139 329.729 530.389 346.279 551.181 336.375Z" fill="#4756DF"/>
<path d="M398.848 299.979C404.071 295.658 412.743 288.673 419.214 284.462" stroke="#A15842" stroke-width="2.93456" stroke-miterlimit="10" stroke-linecap="round"/>
<path d="M426.344 294.785C411.312 304.521 397.615 317.528 390.836 324.336" stroke="#A15842" stroke-width="2.93456" stroke-miterlimit="10" stroke-linecap="round"/>
<path d="M433.014 305.796C422.743 312.846 410.821 323.535 403.037 330.872" stroke="#A15842" stroke-width="2.93456" stroke-miterlimit="10" stroke-linecap="round"/>
</svg>
