<svg width="859" height="496" viewBox="0 0 859 496" fill="none" xmlns="http://www.w3.org/2000/svg">
<path fill-rule="evenodd" clip-rule="evenodd" d="M652.966 337.646C649.816 337.646 646.666 337.856 643.585 338.206C626.854 315.103 607.672 295.501 587.51 283.04C535.004 250.697 462.897 259.938 395.62 284.86C349.345 301.942 290.749 357.108 253.155 396.172C204.15 399.882 166.486 433.206 168.726 471.36C169.216 479.69 171.596 487.531 175.447 494.742L339.894 495.862C340.174 495.442 340.454 494.952 340.734 494.532L584.639 493.692C584.919 494.042 585.199 494.392 585.479 494.812L720.523 494.602C733.055 478.01 740.546 456.798 740.546 433.626C740.546 380.56 701.341 337.646 652.966 337.646Z" fill="#4756DF"/>
<path fill-rule="evenodd" clip-rule="evenodd" d="M592.34 286.191C530.244 324.695 474.518 325.536 438.394 319.305C404.931 313.564 380.778 300.683 372.937 295.642C371.607 296.412 370.277 297.183 368.877 297.953C375.318 302.363 400.52 316.925 436.924 323.295C448.825 325.395 460.797 326.446 472.838 326.446C485.089 326.446 497.34 325.396 509.522 323.225C538.995 317.975 568.048 306.424 596.051 288.852C594.791 287.872 593.6 287.031 592.34 286.191Z" fill="white"/>
<path fill-rule="evenodd" clip-rule="evenodd" d="M585.899 352.348C595.77 338.487 607.952 330.716 622.163 329.176C628.744 328.476 634.274 329.386 637.565 330.156C636.235 328.476 634.904 326.796 633.574 325.185C630.354 324.765 626.363 324.555 621.953 325.045C611.242 326.166 595.7 331.346 582.469 349.968C581.769 350.878 582.049 352.208 582.959 352.908C583.309 353.188 583.729 353.328 584.149 353.328C584.849 353.258 585.479 352.978 585.899 352.348Z" fill="white"/>
<path fill-rule="evenodd" clip-rule="evenodd" d="M586.669 401.565C587.859 401.565 588.769 400.655 588.839 399.535C588.979 393.374 591.429 379.373 600.04 366.211C609.981 350.88 624.683 341.499 643.585 338.138C642.674 336.878 641.764 335.618 640.784 334.358C621.882 338.208 606.621 348.359 596.47 363.901C587.999 376.922 584.778 391.204 584.568 399.395C584.568 400.585 585.478 401.565 586.669 401.565Z" fill="white"/>
<path fill-rule="evenodd" clip-rule="evenodd" d="M290.051 380.912C281.16 380.562 272.619 381.402 266.319 382.732C264.218 384.832 262.118 386.932 260.088 389.032C267.859 384.762 312.103 379.441 330.375 400.234C330.795 400.724 331.355 400.934 331.985 400.934C332.475 400.934 332.965 400.794 333.386 400.444C334.226 399.674 334.366 398.343 333.596 397.503C321.764 383.992 301.252 381.332 290.051 380.912Z" fill="white"/>
<path fill-rule="evenodd" clip-rule="evenodd" d="M251.755 396.313C251.755 396.313 251.825 396.313 251.895 396.313C251.825 396.243 251.755 396.313 251.755 396.313C251.755 396.313 251.685 396.313 251.755 396.313Z" fill="white"/>
<path fill-rule="evenodd" clip-rule="evenodd" d="M326.032 410.945C301.319 392.253 270.516 391.133 257.495 391.693C256.025 393.233 254.554 394.703 253.154 396.173C260.645 395.543 296.419 393.863 323.512 414.305C323.862 414.585 324.352 414.725 324.772 414.725C325.402 414.725 326.032 414.445 326.452 413.885C327.152 412.975 326.942 411.645 326.032 410.945Z" fill="white"/>
<path fill-rule="evenodd" clip-rule="evenodd" d="M219.271 494.113C219.271 494.113 242.234 426.206 306.851 438.527C371.467 450.849 459.887 477.311 459.887 477.311V494.323L219.271 494.113Z" fill="white"/>
<path fill-rule="evenodd" clip-rule="evenodd" d="M262.262 441.323C251.278 446.449 241.863 454.348 233.91 464.259C228.798 470.63 224.593 477.448 221.232 484.266C220.055 486.655 219.066 488.876 218.258 490.873L217.915 491.734C217.809 492.007 217.71 492.265 217.62 492.508L217.348 493.251C217.321 493.329 217.299 493.392 217.282 493.441C216.822 494.802 217.833 496.213 219.27 496.214L459.885 496.424C461.046 496.425 461.987 495.484 461.987 494.324V477.312C461.987 476.384 461.378 475.566 460.489 475.3L457.695 474.471L453.919 473.364C448.653 471.826 442.697 470.112 436.175 468.266C417.54 462.993 398.094 457.719 378.804 452.797C369.109 450.323 359.682 447.997 350.592 445.845L348.042 445.244C333.227 441.765 319.553 438.812 307.244 436.465C290.498 433.271 275.513 435.138 262.262 441.323Z" fill="#EAA58B"/>
<path d="M262.262 441.323L262.453 441.733L262.262 441.323ZM233.91 464.259L234.264 464.542L233.91 464.259ZM221.232 484.266L221.638 484.466L221.232 484.266ZM218.258 490.873L217.838 490.703L217.837 490.706L218.258 490.873ZM217.915 491.734L217.494 491.567L217.493 491.57L217.915 491.734ZM217.62 492.508L217.195 492.349L217.194 492.352L217.62 492.508ZM217.348 493.251L216.922 493.096L216.921 493.1L217.348 493.251ZM217.282 493.441L216.853 493.296L217.282 493.441ZM219.27 496.214L219.27 495.761L219.27 496.214ZM459.885 496.424L459.885 496.877L459.885 496.424ZM460.489 475.3L460.619 474.866L460.618 474.865L460.489 475.3ZM457.695 474.471L457.823 474.037L457.822 474.037L457.695 474.471ZM453.919 473.364L454.047 472.929L454.046 472.929L453.919 473.364ZM436.175 468.266L436.052 468.702L436.175 468.266ZM378.804 452.797L378.692 453.236L378.804 452.797ZM350.592 445.845L350.697 445.404L350.696 445.404L350.592 445.845ZM348.042 445.244L348.146 444.803L348.145 444.803L348.042 445.244ZM307.244 436.465L307.159 436.91L307.244 436.465ZM262.07 440.912C251.013 446.072 241.546 454.02 233.557 463.975L234.264 464.542C242.181 454.677 251.543 446.825 262.453 441.733L262.07 440.912ZM233.557 463.975C228.422 470.375 224.2 477.221 220.826 484.066L221.638 484.466C224.986 477.675 229.174 470.886 234.264 464.542L233.557 463.975ZM220.826 484.066C219.643 486.464 218.65 488.695 217.838 490.703L218.678 491.043C219.481 489.057 220.466 486.846 221.638 484.466L220.826 484.066ZM217.837 490.706L217.494 491.567L218.336 491.902L218.679 491.041L217.837 490.706ZM217.493 491.57C217.386 491.844 217.287 492.104 217.195 492.349L218.044 492.667C218.134 492.426 218.232 492.17 218.337 491.899L217.493 491.57ZM217.194 492.352L216.922 493.096L217.774 493.407L218.045 492.663L217.194 492.352ZM216.921 493.1C216.893 493.179 216.87 493.245 216.853 493.296L217.711 493.586C217.727 493.54 217.748 493.478 217.775 493.402L216.921 493.1ZM216.853 493.296C216.294 494.95 217.523 496.665 219.27 496.667L219.27 495.761C218.144 495.76 217.351 494.653 217.711 493.586L216.853 493.296ZM219.27 496.667L459.885 496.877L459.885 495.971L219.27 495.761L219.27 496.667ZM459.885 496.877C461.296 496.878 462.44 495.735 462.44 494.324H461.534C461.534 495.234 460.796 495.972 459.885 495.971L459.885 496.877ZM462.44 494.324V477.312H461.534V494.324H462.44ZM462.44 477.312C462.44 476.184 461.7 475.189 460.619 474.866L460.359 475.734C461.056 475.942 461.534 476.584 461.534 477.312H462.44ZM460.618 474.865L457.823 474.037L457.566 474.906L460.36 475.734L460.618 474.865ZM457.822 474.037L454.047 472.929L453.792 473.799L457.567 474.906L457.822 474.037ZM454.046 472.929C448.778 471.39 442.822 469.676 436.299 467.83L436.052 468.702C442.573 470.547 448.527 472.261 453.792 473.799L454.046 472.929ZM436.299 467.83C417.661 462.556 398.21 457.281 378.916 452.358L378.692 453.236C397.977 458.157 417.42 463.43 436.052 468.702L436.299 467.83ZM378.916 452.358C369.219 449.883 359.789 447.557 350.697 445.404L350.488 446.286C359.574 448.437 368.999 450.762 378.692 453.236L378.916 452.358ZM350.696 445.404L348.146 444.803L347.938 445.685L350.489 446.286L350.696 445.404ZM348.145 444.803C333.326 441.323 319.645 438.368 307.329 436.02L307.159 436.91C319.46 439.255 333.128 442.207 347.938 445.685L348.145 444.803ZM307.329 436.02C290.497 432.81 275.415 434.684 262.07 440.912L262.453 441.733C275.612 435.593 290.499 433.733 307.159 436.91L307.329 436.02Z" fill="black"/>
<path fill-rule="evenodd" clip-rule="evenodd" d="M644.422 239.106C644.422 239.106 638.696 238.233 636.268 232.764C633.841 227.295 629.68 201.419 634.69 195.976C639.768 190.511 663.023 166.156 668.327 164.812C673.631 163.467 690.367 208.015 644.422 239.106Z" fill="#EAA58B"/>
<path fill-rule="evenodd" clip-rule="evenodd" d="M634.771 198.967C633.403 158.727 639.33 147.691 645.488 149.675C651.072 151.477 649.449 177.896 650.721 190.948" fill="#EAA58B"/>
<path fill-rule="evenodd" clip-rule="evenodd" d="M635.284 157.928L635.451 157.34C637.691 149.706 641.431 146.16 646.134 147.676C648.907 148.571 650.232 151.842 651.051 157.459L651.162 158.252C651.624 161.741 651.876 165.908 652.063 172.025L652.333 181.906C652.471 186.57 652.575 188.303 652.813 190.744C652.925 191.898 652.08 192.925 650.926 193.038C649.771 193.15 648.744 192.306 648.632 191.151L648.547 190.24C648.365 188.208 648.268 186.405 648.151 182.593L647.879 172.637C647.68 165.931 647.411 161.602 646.895 158.065L646.814 157.533C646.232 153.881 645.388 151.849 644.845 151.674C642.956 151.065 641.002 152.997 639.333 159.045L639.185 159.599C637.109 167.569 636.251 180.64 636.872 198.895C636.911 200.054 636.003 201.026 634.844 201.065C633.685 201.104 632.713 200.197 632.674 199.037L632.631 197.731C632.069 179.34 633.018 166.139 635.284 157.928Z" fill="#CA7358"/>
<path fill-rule="evenodd" clip-rule="evenodd" d="M678.625 175.98C681.114 165.687 689.992 163.335 690.172 179.388C690.311 195.086 693.026 214.661 687.409 225.743C681.791 236.826 679.998 241.525 679.998 241.525C679.998 241.525 683.41 309.06 690.641 363.812C701.116 442.971 679.913 465.706 653.021 464.898C626.151 464.157 610.761 431.754 622.486 355.507C634.189 279.193 639.231 235.339 639.231 235.339" fill="#EAA58B"/>
<path fill-rule="evenodd" clip-rule="evenodd" d="M676.584 175.488C677.996 169.645 681.458 165.505 685.373 165.708C689.683 165.931 692.114 170.903 692.267 179.043L692.291 180.771C692.327 182.857 692.406 185.132 692.538 188.228L692.789 193.954C693.485 210.598 692.877 219.436 689.396 226.466L688.515 228.214C686.686 231.859 685.187 234.981 683.987 237.606L683.512 238.653C683.016 239.755 682.616 240.678 682.304 241.427L682.118 241.876L682.355 246.211L682.581 250.143C682.807 253.976 683.066 258.169 683.359 262.671C684.419 278.965 685.705 295.956 687.22 312.788L687.553 316.442C688.279 324.325 689.042 331.986 689.841 339.373L690.167 342.357C690.878 348.783 691.612 354.953 692.371 360.841L692.723 363.538C697.72 401.302 695.82 428.239 687.741 445.245C680.514 460.458 668.447 467.464 652.963 466.999C638.096 466.589 627.102 457.133 621.283 439.166C615.225 420.463 614.736 392.709 620.241 356.296L621.331 349.163C625.735 320.231 629.459 294.173 632.538 271.232L633.727 262.283C634.456 256.739 635.106 251.677 635.68 247.107L636.574 239.888L637.145 235.1C637.277 233.948 638.319 233.121 639.471 233.254C640.582 233.381 641.391 234.354 641.328 235.457L641.258 236.095L640.636 241.274L639.761 248.32C639.091 253.641 638.32 259.613 637.444 266.218L636.541 272.981C633.276 297.247 629.296 324.956 624.562 355.828C613.792 425.863 625.509 462.04 653.084 462.8C666.942 463.217 677.451 457.115 683.947 443.443C691.535 427.468 693.422 401.646 688.703 365.196L688.558 364.089C687.552 356.469 686.588 348.361 685.665 339.825C684.74 331.275 683.864 322.362 683.036 313.165C681.602 297.232 680.374 281.162 679.346 265.672L678.939 259.402C678.756 256.507 678.587 253.755 678.434 251.162L678.136 245.99L677.9 241.632C677.885 241.341 677.931 241.05 678.035 240.777L678.202 240.356L678.427 239.811C678.754 239.026 679.17 238.068 679.681 236.931L680.333 235.497C681.695 232.532 683.416 228.976 685.535 224.795L685.738 224.385C688.558 218.522 689.195 210.591 688.673 196.204L688.274 186.776C688.17 184.182 688.108 182.173 688.082 180.266L688.072 179.413C688 173.035 686.538 169.974 685.156 169.903C683.775 169.831 681.662 172.358 680.667 176.475C680.394 177.602 679.259 178.295 678.132 178.023C677.004 177.75 676.311 176.615 676.584 175.488Z" fill="#EAA58B"/>
<path fill-rule="evenodd" clip-rule="evenodd" d="M640.196 236.278C634.346 234.562 628.88 215.581 620.838 209.129C610.885 201.087 600.936 192.602 613.777 190.222C624.8 188.134 631.142 196.386 634.683 198.921" fill="#EAA58B"/>
<path fill-rule="evenodd" clip-rule="evenodd" d="M606.978 198.66C603.791 193.529 606.086 189.512 613.388 188.159C619.511 186.999 624.711 188.534 629.661 192.066L629.893 192.236C631.722 193.592 635.417 196.836 635.882 197.194L635.908 197.214C636.851 197.889 637.068 199.201 636.392 200.144C635.717 201.087 634.405 201.304 633.462 200.629L633.363 200.554C632.523 199.896 628.683 196.529 627.221 195.486C623.134 192.569 619.046 191.362 614.162 192.287C611.61 192.76 610.258 193.446 609.889 194.092C609.671 194.473 609.778 195.162 610.451 196.288L610.546 196.445C612.14 199.012 615.296 201.937 621.82 207.221L622.154 207.491C625.195 209.931 627.775 213.626 631.174 219.769L631.87 221.039L634.017 225.014C637.318 231.07 639.228 233.735 640.714 234.239L640.789 234.263C641.902 234.589 642.54 235.756 642.214 236.869C641.887 237.982 640.72 238.62 639.607 238.294C636.558 237.399 634.468 234.602 630.529 227.394L628.06 222.825L627.711 222.188C624.532 216.404 622.165 212.952 619.682 210.895L617.828 209.388C611.789 204.446 608.792 201.582 606.978 198.66Z" fill="#CA7358"/>
<path fill-rule="evenodd" clip-rule="evenodd" d="M677.53 193.549C677.53 193.549 679.567 167.732 679.278 156.128C679.022 143.484 666.359 145.733 665.852 164.215" fill="#EAA58B"/>
<path fill-rule="evenodd" clip-rule="evenodd" d="M671.886 146.546C676.974 144.53 681.139 148.774 681.372 155.836L681.379 156.075C681.467 159.622 681.35 164.628 681.067 170.755L681.015 171.848C680.975 172.691 680.931 173.55 680.885 174.423C680.684 178.24 680.44 182.201 680.173 186.126L679.95 189.327L679.708 192.614L679.624 193.714C679.532 194.87 678.521 195.733 677.365 195.642C676.25 195.554 675.407 194.611 675.43 193.506L675.76 189.027C675.795 188.536 675.831 188.031 675.867 187.512C676.139 183.621 676.39 179.669 676.602 175.836L676.736 173.339L676.82 171.646C677.126 165.295 677.262 160.104 677.186 156.477L677.179 156.17C677.085 151.513 675.336 149.697 673.433 150.451C670.615 151.568 668.161 156.646 667.952 164.272C667.92 165.431 666.954 166.345 665.795 166.313C664.635 166.282 663.721 165.316 663.753 164.156C664.003 155.029 667.207 148.4 671.886 146.546Z" fill="#CA7358"/>
<path fill-rule="evenodd" clip-rule="evenodd" d="M664.534 191.123C664.534 191.123 669.502 143.393 660.037 142.33C651.412 141.362 650.608 158.468 650.654 190.969" fill="#EAA58B"/>
<path fill-rule="evenodd" clip-rule="evenodd" d="M650.123 153.131C651.63 144.087 654.683 139.615 660.273 140.242C666.022 140.888 667.863 149.846 667.937 165.423C667.949 168.069 667.901 170.85 667.799 173.733C667.668 177.455 667.454 181.183 667.188 184.775L667.086 186.116C666.988 187.361 666.891 188.509 666.797 189.541L666.625 191.34C666.504 192.494 665.472 193.331 664.318 193.211C663.164 193.091 662.327 192.059 662.447 190.905L662.579 189.535L662.684 188.377C662.754 187.574 662.826 186.708 662.898 185.788C663.208 181.842 663.456 177.707 663.601 173.585C663.701 170.755 663.749 168.029 663.736 165.443L663.726 164.296C663.574 152.32 661.935 144.656 659.804 144.416C657.154 144.119 655.334 146.912 654.17 154.42L654.041 155.294C653.034 162.404 652.729 172.407 652.756 190.966C652.758 192.126 651.819 193.067 650.659 193.069C649.499 193.071 648.557 192.132 648.555 190.972L648.555 186.999C648.578 170.18 648.937 160.916 649.985 154.002L650.123 153.131Z" fill="#CA7358"/>
<path fill-rule="evenodd" clip-rule="evenodd" d="M446.443 235.717L449.174 285.212C449.174 285.212 444.553 311.955 481.657 306.984C518.621 302.084 514.07 280.171 514.07 280.171L502.659 218.705L446.443 235.717Z" fill="#EAA58B"/>
<path fill-rule="evenodd" clip-rule="evenodd" d="M502.052 216.693L445.836 233.704C444.909 233.985 444.294 234.863 444.347 235.83L447.066 285.108L447.037 285.332C447.022 285.455 447.007 285.593 446.992 285.747C446.647 289.303 447.047 293.357 448.793 297.261C453.058 306.795 463.681 311.509 481.937 309.064C496.837 307.088 506.529 302.257 511.845 295.337C515.708 290.308 516.757 285.02 516.247 280.536L516.211 280.251C516.188 280.077 516.164 279.932 516.143 279.82L504.725 218.319C504.496 217.089 503.249 216.33 502.052 216.693ZM448.633 237.245L501.024 221.391L512.027 280.659C512.041 280.745 512.057 280.858 512.074 281.009C512.471 284.498 511.634 288.716 508.514 292.777C503.94 298.732 495.259 303.059 481.383 304.899C464.837 307.115 456.062 303.222 452.629 295.545C451.225 292.406 450.893 289.045 451.174 286.151L451.205 285.855C451.222 285.716 451.236 285.618 451.245 285.566L451.266 285.409C451.276 285.304 451.278 285.198 451.272 285.093L448.633 237.245Z" fill="#2E186A"/>
<path fill-rule="evenodd" clip-rule="evenodd" d="M516.871 156.258C516.871 156.258 545.574 145.477 546.694 175.37C547.814 205.263 516.871 197.492 516.871 197.492" fill="white"/>
<path fill-rule="evenodd" clip-rule="evenodd" d="M519.65 153.269C523.797 152.289 528.075 151.937 532.136 152.599C542.03 154.211 548.273 161.449 548.792 175.293C549.329 189.607 542.955 197.442 532.246 199.786C527.886 200.74 523.295 200.684 518.955 200.025L518.277 199.916C517.423 199.772 516.77 199.634 516.359 199.531C515.234 199.248 514.551 198.107 514.833 196.982C515.106 195.897 516.176 195.223 517.261 195.43L517.717 195.533L517.934 195.579C518.415 195.678 518.97 195.778 519.586 195.872C523.46 196.461 527.564 196.511 531.348 195.683C540.111 193.765 545.053 187.689 544.595 175.45L544.562 174.738C543.955 163.362 539.2 158.006 531.461 156.745C528.023 156.185 524.27 156.493 520.616 157.357C519.909 157.524 519.256 157.701 518.668 157.878L518.38 157.967C518.165 158.035 517.989 158.093 517.854 158.139L517.609 158.225C516.523 158.633 515.312 158.084 514.904 156.998C514.496 155.912 515.046 154.701 516.132 154.293L516.403 154.195C517.131 153.937 518.242 153.601 519.65 153.269Z" fill="#2E186A"/>
<path fill-rule="evenodd" clip-rule="evenodd" d="M463.038 250.766C431.955 250.766 406.752 225.563 406.752 194.48V145.335C406.752 125.453 422.924 109.281 442.806 109.281H492.091C507.142 109.281 519.394 121.533 519.394 136.584V194.41C519.394 225.493 494.191 250.766 463.038 250.766Z" fill="#EAA58B"/>
<path fill-rule="evenodd" clip-rule="evenodd" d="M492.09 107.182H442.804C421.762 107.182 404.65 124.294 404.65 145.336V194.481C404.65 226.724 430.793 252.867 463.036 252.867L463.986 252.859C495.884 252.342 521.493 226.318 521.493 194.411V136.585C521.493 120.373 508.301 107.182 492.09 107.182ZM442.805 111.383H492.09C505.982 111.383 517.293 122.694 517.293 136.586V194.412C517.293 224.025 493.524 248.18 463.936 248.66L463.02 248.668C433.114 248.668 408.851 224.405 408.851 194.482V145.337C408.851 126.615 424.083 111.383 442.805 111.383Z" fill="#2E186A"/>
<path fill-rule="evenodd" clip-rule="evenodd" d="M532.484 221.084C532.414 201.972 529.754 188.04 529.054 184.54C529.054 184.33 529.124 184.05 529.124 183.84C529.124 179.429 525.554 175.859 521.143 175.859V183.84L521.353 191.821C523.033 191.751 524.573 191.19 525.834 190.28C528.424 206.382 533.534 254.407 511.972 295.221C508.052 302.712 504.341 309.643 500.701 316.294C480.399 354.167 466.957 379.23 467.307 401.562C467.307 402.683 468.288 403.663 469.408 403.663C470.598 403.663 471.508 402.683 471.508 401.562C471.228 380.28 484.459 355.638 504.411 318.324C507.982 311.603 511.692 304.742 515.683 297.182C529.754 270.509 532.624 241.106 532.484 221.084Z" fill="#FEC80A"/>
<path fill-rule="evenodd" clip-rule="evenodd" d="M401.29 192.732C402.27 193.292 403.32 193.642 404.51 193.712V177.82C400.8 178.17 397.86 180.97 397.37 184.611C397.16 184.961 397.02 185.381 397.02 185.801C397.02 189.021 397.02 264.419 419.422 298.443C442.314 333.306 449.385 353.188 450.995 386.932C451.065 388.052 451.975 388.962 453.095 388.962H453.165C454.356 388.892 455.196 387.912 455.196 386.792C453.585 352.068 446.375 331.766 422.922 296.132C405 268.97 401.85 212.404 401.29 192.732Z" fill="#FEC80A"/>
<path fill-rule="evenodd" clip-rule="evenodd" d="M445.777 158.568C446.896 158.549 447.825 159.408 447.907 160.509L447.913 160.632L448.667 205.076L448.7 205.089C448.853 205.138 449.021 205.127 449.252 205.042L449.355 205C450.435 204.539 451.858 202.976 453.491 199.986C454.047 198.968 455.323 198.593 456.341 199.149C457.359 199.705 457.733 200.981 457.177 201.999C453.34 209.026 449.211 210.792 445.913 208.299C445.424 207.929 445.079 207.548 444.859 207.232C444.651 206.933 444.525 206.585 444.492 206.224L444.483 206.068L443.713 160.704C443.694 159.544 444.618 158.588 445.777 158.568Z" fill="#2E186A"/>
<path fill-rule="evenodd" clip-rule="evenodd" d="M467.906 211.696C469.077 210.929 470.657 211.502 471.065 212.841L471.114 213.014C471.165 213.208 471.222 213.463 471.276 213.773C471.709 216.235 471.474 218.957 470.067 221.565C467.722 225.909 462.653 228.741 454.49 229.544C453.336 229.658 452.308 228.815 452.194 227.66C452.08 226.506 452.924 225.478 454.078 225.364C460.952 224.687 464.754 222.563 466.371 219.569C466.769 218.831 467.021 218.066 467.153 217.302L467.198 217.005L467.135 217.04C458.005 221.957 448.886 222.285 444.366 217.229L444.215 217.056C443.463 216.174 443.568 214.848 444.45 214.095C445.333 213.343 446.658 213.448 447.411 214.33C450.66 218.14 459.26 217.353 467.906 211.696Z" fill="#2E186A"/>
<path fill-rule="evenodd" clip-rule="evenodd" d="M464.901 142.181C469.484 138.696 474.925 138.323 480.793 142.991C481.7 143.713 481.851 145.035 481.129 145.942C480.407 146.85 479.085 147.001 478.178 146.279C473.931 142.901 470.593 143.129 467.444 145.525C467.018 145.848 466.638 146.18 466.228 146.574L465.457 147.336C465.348 147.44 465.257 147.524 465.158 147.604C464.887 147.823 464.651 147.971 464.243 148.073C463.118 148.354 461.977 147.67 461.696 146.544C461.485 145.7 461.817 144.848 462.471 144.356L462.562 144.29L463.022 143.833C463.651 143.211 464.223 142.697 464.901 142.181Z" fill="#2E186A"/>
<path fill-rule="evenodd" clip-rule="evenodd" d="M479.487 179.432C481.42 179.432 482.987 177.018 482.987 174.041C482.987 171.064 481.42 168.65 479.487 168.65C477.553 168.65 475.986 171.064 475.986 174.041C475.986 177.018 477.553 179.432 479.487 179.432Z" fill="#2E186A"/>
<path fill-rule="evenodd" clip-rule="evenodd" d="M428.592 180.761C430.525 180.761 432.093 178.347 432.093 175.37C432.093 172.393 430.525 169.979 428.592 169.979C426.659 169.979 425.092 172.393 425.092 175.37C425.092 178.347 426.659 180.761 428.592 180.761Z" fill="#2E186A"/>
<path fill-rule="evenodd" clip-rule="evenodd" d="M418.829 141.52C424.071 137.338 429.82 137.141 434.869 143.626C435.581 144.542 435.417 145.861 434.502 146.574C433.587 147.286 432.267 147.122 431.555 146.207C428.146 141.829 425.044 141.935 421.448 144.804C420.961 145.192 420.522 145.588 420.036 146.063L419.211 146.887C419.1 146.996 419.007 147.081 418.911 147.161C418.624 147.4 418.4 147.547 417.969 147.654C416.844 147.935 415.704 147.251 415.423 146.126C415.212 145.282 415.544 144.43 416.198 143.937L416.278 143.88L416.819 143.338C417.508 142.649 418.118 142.087 418.829 141.52Z" fill="#2E186A"/>
<path fill-rule="evenodd" clip-rule="evenodd" d="M477.109 97.0309C463.458 97.241 453.097 97.871 446.936 99.0612C396.811 110.472 404.932 147.576 404.932 147.576C404.932 147.576 429.434 152.267 449.386 122.724C449.386 122.724 476.759 145.056 517.293 154.087C517.923 153.947 518.694 153.737 519.394 153.527V155.557C521.774 154.927 525.624 154.227 529.615 154.507C529.195 139.875 526.534 121.393 514.493 109.492C505.952 101.021 493.351 96.8209 477.109 97.0309Z" fill="#2E186A"/>
<path fill-rule="evenodd" clip-rule="evenodd" d="M448.048 94.5327C456.035 93.4235 468.609 92.6945 479.442 92.7627C501.08 92.9918 515.54 100.965 524.11 115.026C527.484 120.561 529.837 126.862 531.422 133.93C532.592 139.148 533.219 143.929 533.808 150.686C533.908 151.842 533.053 152.86 531.898 152.961C530.742 153.062 529.724 152.206 529.623 151.051L529.51 149.794C528.205 135.69 525.966 126.141 520.524 117.212C512.719 104.406 499.606 97.1769 479.407 96.963L478.173 96.9587C467.829 96.9518 456.101 97.655 448.626 98.6932C447.477 98.8528 446.416 98.0508 446.257 96.9019C446.097 95.753 446.899 94.6923 448.048 94.5327Z" fill="white"/>
<path fill-rule="evenodd" clip-rule="evenodd" d="M608.653 66.579C591.361 17.1539 542.356 -10.639 499.162 4.48257C463.668 16.8739 443.156 54.4678 446.516 94.862C453.027 93.7419 463.248 93.0418 477.109 92.8318C494.541 92.6218 508.123 97.1722 517.504 106.483C530.805 119.645 533.535 139.597 533.885 155.138C540.326 156.888 546.277 162.139 546.767 175.37C546.837 176.701 545.646 186.992 545.926 186.922C545.926 190.212 546.627 194.342 549.077 198.403C553.907 206.174 563.708 211.004 578.27 212.684C578.34 212.684 578.41 212.684 578.55 212.684C579.6 212.684 580.51 211.914 580.65 210.864C580.79 209.744 579.95 208.694 578.83 208.554C565.669 207.014 556.848 202.883 552.717 196.233C551.037 193.572 550.407 190.842 550.197 188.462C553.767 192.662 559.998 197.213 569.869 197.213C572.249 197.213 574.84 196.933 577.64 196.373C578.76 196.163 579.53 195.042 579.25 193.922C579.04 192.802 577.92 192.032 576.8 192.312C564.058 194.972 556.988 190.142 553.277 185.801C556.148 185.171 558.948 184.401 561.748 183.421C604.873 168.23 625.875 115.934 608.653 66.579Z" fill="#2E186A"/>
<path fill-rule="evenodd" clip-rule="evenodd" d="M482.494 147.65C467.183 147.65 454.771 160.062 454.771 175.373C454.771 190.684 467.183 203.096 482.494 203.096C497.805 203.096 510.217 190.684 510.217 175.373C510.217 160.062 497.805 147.65 482.494 147.65ZM482.495 151.852C495.486 151.852 506.017 162.383 506.017 175.374C506.017 188.365 495.486 198.897 482.495 198.897C469.504 198.897 458.973 188.365 458.973 175.374C458.973 162.383 469.504 151.852 482.495 151.852Z" fill="#2E186A"/>
<path fill-rule="evenodd" clip-rule="evenodd" d="M456.313 172.64C457.473 172.64 458.413 173.58 458.413 174.74C458.413 175.859 457.539 176.773 456.436 176.837L456.313 176.841H439.651C438.491 176.841 437.551 175.9 437.551 174.74C437.551 173.622 438.425 172.708 439.528 172.644L439.651 172.64H456.313Z" fill="#2E186A"/>
<path fill-rule="evenodd" clip-rule="evenodd" d="M518.357 152.962C519.367 152.391 520.649 152.747 521.219 153.757C521.769 154.729 521.459 155.953 520.534 156.552L520.424 156.618L505.933 164.809C504.923 165.38 503.642 165.024 503.071 164.014C502.521 163.042 502.831 161.818 503.756 161.219L503.866 161.153L518.357 152.962Z" fill="#2E186A"/>
<path fill-rule="evenodd" clip-rule="evenodd" d="M413.186 147.65C397.875 147.65 385.463 160.062 385.463 175.373C385.463 190.684 397.875 203.096 413.186 203.096C428.497 203.096 440.909 190.684 440.909 175.373C440.909 160.062 428.497 147.65 413.186 147.65ZM413.186 151.852C426.178 151.852 436.709 162.383 436.709 175.374C436.709 188.365 426.178 198.897 413.186 198.897C400.195 198.897 389.664 188.365 389.664 175.374C389.664 162.383 400.195 151.852 413.186 151.852Z" fill="#2E186A"/>
<path fill-rule="evenodd" clip-rule="evenodd" d="M589.404 467.86H574.843L567.702 361.938C567.212 354.518 560.771 348.497 553.351 348.497H350.4C342.979 348.497 337.308 354.518 337.868 361.938L345.779 479.201C346.269 486.621 352.71 492.642 360.131 492.642L589.334 492.362C593.535 492.362 596.895 488.932 596.895 484.801V475.49C596.965 471.29 593.605 467.86 589.404 467.86Z" fill="#30242A"/>
<path fill-rule="evenodd" clip-rule="evenodd" d="M856.061 492.641C857.221 492.641 858.161 493.581 858.161 494.741C858.161 495.86 857.287 496.774 856.185 496.838L856.061 496.841H2.60217C1.44225 496.841 0.501953 495.901 0.501953 494.741C0.501953 493.623 1.37629 492.708 2.47877 492.644L2.60217 492.641H856.061Z" fill="#2E186A"/>
<path d="M426.82 407.237C431.985 400.801 455.411 417.799 457.137 419.199C458.033 417.799 470.234 400.811 479.174 407.237C486.938 412.814 469.875 437.729 465.338 444.083C465.148 444.276 464.915 444.43 464.656 444.535C464.396 444.641 464.115 444.695 463.831 444.695C463.547 444.695 463.266 444.641 463.006 444.535C462.747 444.43 462.514 444.276 462.324 444.083C454.045 437.729 422.339 412.814 426.82 407.237Z" fill="#A15842"/>
<path d="M455.208 411.548C457.164 410.993 457.238 406.119 455.374 400.663C453.51 395.206 450.414 391.233 448.459 391.788C446.503 392.344 446.429 397.217 448.293 402.674C450.157 408.13 453.253 412.104 455.208 411.548Z" fill="#A15842"/>
</svg>
