<svg width="401" height="360" viewBox="0 0 401 360" fill="none" xmlns="http://www.w3.org/2000/svg">
<g opacity="0.5">
<path d="M56.1406 178.912L244.631 70.6133L56.1406 178.912Z" fill="white"/>
<path d="M56.1406 178.912L244.631 70.6133" stroke="#C0E1FF" stroke-width="46.3537" stroke-linecap="round"/>
</g>
<g opacity="0.5">
<path d="M100.973 249.944L289.463 141.645L100.973 249.944Z" fill="white"/>
<path d="M100.973 249.944L289.463 141.645" stroke="#C0E1FF" stroke-width="46.3537" stroke-linecap="round"/>
</g>
<g opacity="0.5">
<path d="M337.746 114.431L352.436 105.879L337.746 114.431Z" fill="white"/>
<path d="M337.746 114.431L352.436 105.879" stroke="#C0E1FF" stroke-width="46.3537" stroke-linecap="round"/>
</g>
<g opacity="0.5">
<path d="M167.473 308.383L310.623 224.77L167.473 308.383Z" fill="white"/>
<path d="M167.473 308.383L310.623 224.77" stroke="#C0E1FF" stroke-width="46.3537" stroke-linecap="round"/>
</g>
<path d="M345.796 232.445C348.089 232.678 349.762 234.729 349.529 237.023C349.296 239.316 347.245 240.989 344.952 240.756C342.659 240.523 340.986 238.472 341.219 236.179C341.452 233.885 343.503 232.213 345.796 232.445Z" stroke="#1174A8" stroke-width="2.15792"/>
<path d="M102.419 318.327C106.19 318.71 108.941 322.083 108.558 325.854C108.175 329.625 104.802 332.376 101.031 331.993C97.2599 331.61 94.509 328.237 94.892 324.466C95.275 320.695 98.6478 317.944 102.419 318.327Z" stroke="#1174A8" stroke-width="3.54855"/>
<path d="M197.735 36.4713C201.507 36.8543 204.258 40.2272 203.875 43.9983C203.492 47.7695 200.119 50.5204 196.347 50.1374C192.576 49.7544 189.825 46.3816 190.208 42.6104C190.591 38.8392 193.964 36.0883 197.735 36.4713Z" stroke="#1174A8" stroke-width="3.54855"/>
<path d="M39.1456 125.895C40.8773 125.895 42.2833 127.301 42.2833 129.032C42.2833 130.764 40.8773 132.17 39.1456 132.17C37.4138 132.17 36.0078 130.764 36.0078 129.032C36.0078 127.301 37.4138 125.895 39.1456 125.895Z" stroke="#1174A8" stroke-width="2.59385"/>
<path d="M282.853 330.512C284.584 330.512 285.99 331.918 285.99 333.649C285.99 335.381 284.584 336.787 282.853 336.787C281.121 336.787 279.715 335.381 279.715 333.649C279.715 331.918 281.121 330.512 282.853 330.512Z" stroke="#1174A8" stroke-width="2.59385"/>
<path d="M319.145 35.6055L321.738 23.2812" stroke="#1174A8" stroke-width="1.51131"/>
<path d="M314.484 28.2148L326.809 30.8084" stroke="#1174A8" stroke-width="1.51131"/>
<path d="M52.3945 241.191L54.4848 228.772" stroke="#1174A8" stroke-width="1.51131"/>
<path d="M47.4375 233.996L59.857 236.086" stroke="#1174A8" stroke-width="1.51131"/>
<path d="M314.258 295.652L315.532 283.123" stroke="#1174A8" stroke-width="1.51131"/>
<path d="M308.84 288.797L321.369 290.071" stroke="#1174A8" stroke-width="1.51131"/>
<path d="M200.557 89.3086C250.533 89.3086 291.109 129.885 291.109 179.861C291.109 229.837 250.533 270.414 200.557 270.414C150.581 270.414 110.004 229.837 110.004 179.861C110.004 129.885 150.581 89.3086 200.557 89.3086Z" fill="#1174A8"/>
<path d="M200.5 97.875C245.749 97.875 282.488 134.614 282.488 179.863C282.488 225.113 245.749 261.851 200.5 261.851C155.251 261.851 118.512 225.113 118.512 179.863C118.512 134.614 155.251 97.875 200.5 97.875Z" fill="white"/>
<path d="M163.473 182.871L185.638 204.533L237.527 152.645" stroke="#1174A8" stroke-width="9.06784"/>
</svg>
