<svg width="1226" height="578" viewBox="0 0 1226 578" fill="none" xmlns="http://www.w3.org/2000/svg">
<circle cx="383" cy="57" r="15" fill="#00D1FF"/>
<circle cx="686.5" cy="7.5" r="7.5" fill="#278AFF"/>
<circle cx="1100" cy="420" r="5" fill="#FF8D27"/>
<path d="M2.0718 82L9 70L15.9282 82H2.0718Z" stroke="#CBCDE9"/>
<path d="M1051.07 246L1058 234L1064.93 246H1051.07Z" stroke="#192CFA"/>
<path d="M582.072 491L589 479L595.928 491H582.072Z" stroke="#E4E7FF"/>
<path d="M993.619 577.552C988.885 577.552 985.048 573.513 985.048 568.532C985.048 563.55 988.885 559.512 993.619 559.512C998.353 559.512 1002.19 563.55 1002.19 568.532C1002.19 573.513 998.353 577.552 993.619 577.552Z" fill="#00D1FF"/>
<path d="M883.49 33.3906H878.158C858.009 33.3958 838.687 41.8224 824.441 56.8174C810.195 71.8123 802.192 92.1476 802.192 113.351V265.894H959.497V113.351C959.497 102.848 957.531 92.4487 953.711 82.7459C949.891 73.0431 944.292 64.2272 937.234 56.8019C930.175 49.3766 921.796 43.4872 912.575 39.4703C903.353 35.4533 893.47 33.3874 883.49 33.3906Z" fill="#FFB7D5"/>
<path d="M852.284 174.068V268.267H922.086V174.068H852.284ZM850.435 172.121H923.936V270.214H850.435V172.121Z" fill="#CA7358"/>
<path d="M850.435 172.121H923.936V192.4H850.435V172.121Z" fill="#CA7358"/>
<path d="M924.329 123.13V268.739H966.342V123.13H924.329ZM922.479 121.184H968.191V270.685H922.479V121.184Z" fill="#CA7358"/>
<path d="M794.586 93.6575V268.27H850.042V93.6575H794.586ZM792.736 91.7109H851.892V270.217H792.736V91.7109Z" fill="#CA7358"/>
<path d="M827.844 115.527H827.313C825.304 115.527 823.377 116.367 821.956 117.862C820.536 119.357 819.738 121.384 819.738 123.499V141.465H835.424V123.499C835.424 122.451 835.228 121.414 834.847 120.447C834.466 119.48 833.907 118.601 833.204 117.86C832.5 117.12 831.664 116.533 830.745 116.133C829.825 115.732 828.839 115.527 827.844 115.527Z" fill="#CA7358"/>
<path d="M837.214 129.676H817.944" stroke="#FFB7D5" stroke-width="1.98547" stroke-linecap="round" stroke-linejoin="round"/>
<path d="M827.844 162.059H827.313C825.304 162.059 823.377 162.898 821.956 164.393C820.536 165.888 819.738 167.916 819.738 170.03V187.997H835.424V170.03C835.424 168.983 835.228 167.946 834.847 166.978C834.466 166.011 833.907 165.132 833.204 164.392C832.5 163.651 831.664 163.064 830.745 162.664C829.825 162.264 828.839 162.058 827.844 162.059Z" fill="#F5EBDD"/>
<path d="M837.214 176.207H817.944" stroke="#FFB7D5" stroke-width="1.98547" stroke-linecap="round" stroke-linejoin="round"/>
<path d="M827.844 208.594H827.313C825.304 208.594 823.377 209.434 821.956 210.928C820.536 212.423 819.738 214.451 819.738 216.565V234.532H835.424V216.565C835.424 214.451 834.626 212.423 833.205 210.928C831.785 209.434 829.858 208.594 827.849 208.594H827.844Z" fill="#F5EBDD"/>
<path d="M837.214 222.738H817.944" stroke="#FFB7D5" stroke-width="1.98547" stroke-linecap="round" stroke-linejoin="round"/>
<path d="M827.844 255.125H827.313C825.304 255.125 823.377 255.965 821.956 257.46C820.536 258.955 819.738 260.982 819.738 263.096V279.603H835.424V263.096C835.424 262.049 835.228 261.012 834.847 260.045C834.466 259.077 833.907 258.198 833.204 257.458C832.5 256.718 831.664 256.131 830.745 255.73C829.825 255.33 828.839 255.124 827.844 255.125Z" fill="#30242A"/>
<path d="M792.736 91.7109H851.892V99.4924H792.736V91.7109Z" fill="#CA7358"/>
<path d="M922.479 117.414H968.191V125.196H922.479V117.414Z" fill="#CA7358"/>
<path d="M895.028 210.793H910.714V232.015H895.028V210.793Z" fill="#F5EBDD"/>
<path d="M912.508 220.223H893.233" stroke="#FFB7D5" stroke-width="1.98547" stroke-linecap="round" stroke-linejoin="round"/>
<path d="M902.871 232.958V220.223" stroke="#FFB7D5" stroke-width="1.98547" stroke-linecap="round" stroke-linejoin="round"/>
<path d="M895.028 249.117H910.714V270.34H895.028V249.117Z" fill="#CA7358"/>
<path d="M912.508 258.547H893.233" stroke="#FFB7D5" stroke-width="1.98547" stroke-linecap="round" stroke-linejoin="round"/>
<path d="M902.871 271.282V258.547" stroke="#FFB7D5" stroke-width="1.98547" stroke-linecap="round" stroke-linejoin="round"/>
<path d="M865.45 210.793H881.136V232.015H865.45V210.793Z" fill="#30242A"/>
<path d="M882.926 220.223H863.656" stroke="#FFB7D5" stroke-width="1.98547" stroke-linecap="round" stroke-linejoin="round"/>
<path d="M873.293 232.958V220.223" stroke="#FFB7D5" stroke-width="1.98547" stroke-linecap="round" stroke-linejoin="round"/>
<path d="M865.45 249.117H881.136V270.34H865.45V249.117Z" fill="#F5EBDD"/>
<path d="M882.926 258.547H863.656" stroke="#FFB7D5" stroke-width="1.98547" stroke-linecap="round" stroke-linejoin="round"/>
<path d="M873.293 271.282V258.547" stroke="#FFB7D5" stroke-width="1.98547" stroke-linecap="round" stroke-linejoin="round"/>
<path d="M913.516 91.0034C907.08 91.0034 901.863 85.5129 901.863 78.74C901.863 71.9671 907.08 66.4766 913.516 66.4766C919.952 66.4766 925.17 71.9671 925.17 78.74C925.17 85.5129 919.952 91.0034 913.516 91.0034Z" fill="#F5EBDD"/>
<path d="M782.026 265.969H979.665V280.115H782.026V265.969Z" fill="#F5EBDD"/>
<path d="M877.723 19.3164H883.952C933.092 19.3164 972.927 61.2359 972.927 112.947V280.118H788.731V112.947C788.744 61.2359 828.584 19.3164 877.723 19.3164ZM887.564 265.972H959.497V148.068H887.564V265.972ZM887.564 133.921H959.497V113.428C959.497 92.9597 952.037 73.2704 938.655 58.4158C925.273 43.5613 906.987 34.6724 887.564 33.5799V133.921ZM802.192 265.972H874.121V148.068H802.192V265.972ZM802.192 133.921H874.121V33.5799C854.698 34.6724 836.413 43.5615 823.032 58.4162C809.65 73.2709 802.192 92.9601 802.192 113.428V133.921Z" fill="#F5EBDD"/>
<path d="M1124.6 466.404C1114.7 466.404 1106.67 457.959 1106.67 447.542C1106.67 437.125 1114.7 428.68 1124.6 428.68C1134.5 428.68 1142.52 437.125 1142.52 447.542C1142.52 457.959 1134.5 466.404 1124.6 466.404Z" fill="#FFCEE2"/>
<path d="M1100.44 111.908C1093.23 111.908 1087.38 105.752 1087.38 98.1573C1087.38 90.5628 1093.23 84.4062 1100.44 84.4062C1107.66 84.4062 1113.51 90.5628 1113.51 98.1573C1113.51 105.752 1107.66 111.908 1100.44 111.908Z" fill="#00D1FF"/>
<path d="M737.749 294.669C737.746 295.19 737.847 295.705 738.045 296.183C739.432 299.506 745.361 299.998 751.257 297.278C756.196 295.005 759.553 291.199 759.696 288.07V329.571H737.735V294.669H737.749Z" fill="#FFBE21"/>
<path d="M746.193 285.254C752.089 282.534 758.008 283.025 759.405 286.349C759.629 286.895 759.729 287.488 759.696 288.081C759.553 291.211 756.195 295.016 751.256 297.289C745.36 300.009 739.441 299.518 738.044 296.194C737.846 295.717 737.745 295.201 737.748 294.68C737.734 291.512 741.133 287.58 746.193 285.254Z" fill="#A15842"/>
<path d="M748.717 282.184V290.203" stroke="#30242A" stroke-width="1.98547" stroke-linecap="round" stroke-linejoin="round"/>
<path d="M730.97 307.871C731.113 311 734.47 314.806 739.409 317.083C745.31 319.799 751.225 319.312 752.626 315.983C752.822 315.507 752.922 314.994 752.922 314.475V329.074H730.965V307.871H730.97Z" fill="#FFBE21"/>
<path d="M731.261 306.142C732.648 302.818 738.577 302.327 744.478 305.047C749.532 307.378 752.931 311.305 752.922 314.478C752.922 314.997 752.822 315.511 752.626 315.987C751.239 319.315 745.31 319.802 739.409 317.087C734.47 314.809 731.113 311.004 730.97 307.874C730.936 307.281 731.036 306.688 731.261 306.142Z" fill="#A15842"/>
<path d="M752.279 329.092V314.945" stroke="#A15842" stroke-width="1.98547" stroke-miterlimit="10" stroke-linecap="round"/>
<path d="M741.943 301.98V310.468" stroke="#30242A" stroke-width="1.98547" stroke-linecap="round" stroke-linejoin="round"/>
<path d="M829.847 466.542C830.407 466.542 830.96 466.402 831.459 466.134C831.959 465.866 832.39 465.477 832.719 464.999C833.048 464.521 833.264 463.968 833.35 463.385C833.436 462.802 833.389 462.206 833.213 461.646L822.115 426.053C821.88 425.307 821.428 424.657 820.823 424.197C820.218 423.736 819.49 423.488 818.743 423.488H810.965C810.347 423.488 809.74 423.658 809.203 423.98C808.667 424.303 808.22 424.768 807.908 425.329C807.595 425.89 807.427 426.527 807.421 427.178C807.414 427.828 807.57 428.468 807.871 429.036L826.767 464.629C827.072 465.207 827.519 465.689 828.06 466.025C828.601 466.361 829.218 466.54 829.847 466.542Z" fill="#30242A"/>
<path d="M681.161 466.542C680.6 466.542 680.048 466.402 679.548 466.134C679.049 465.866 678.617 465.477 678.289 464.999C677.96 464.521 677.744 463.968 677.658 463.385C677.572 462.802 677.619 462.206 677.794 461.646L688.893 426.053C689.127 425.307 689.578 424.659 690.183 424.198C690.787 423.738 691.514 423.49 692.26 423.488H700.043C700.66 423.489 701.266 423.66 701.802 423.983C702.338 424.306 702.784 424.771 703.096 425.332C703.409 425.892 703.577 426.529 703.584 427.178C703.591 427.828 703.437 428.468 703.136 429.036L684.241 464.629C683.934 465.206 683.488 465.688 682.947 466.024C682.406 466.36 681.789 466.539 681.161 466.542Z" fill="#30242A"/>
<path d="M664 328.695H846.402V438.579H664V328.695Z" fill="#A15842"/>
<path d="M677.448 342.84H832.959V424.431H677.448V342.84Z" fill="#FFB7D5"/>
<path d="M755.37 341.43V425.848" stroke="#A15842" stroke-width="1.98547" stroke-miterlimit="10"/>
<path d="M737.043 388.58C734.448 388.58 732.344 386.366 732.344 383.636C732.344 380.905 734.448 378.691 737.043 378.691C739.638 378.691 741.741 380.905 741.741 383.636C741.741 386.366 739.638 388.58 737.043 388.58Z" fill="#30242A"/>
<path d="M773.363 388.58C770.768 388.58 768.665 386.366 768.665 383.636C768.665 380.905 770.768 378.691 773.363 378.691C775.958 378.691 778.062 380.905 778.062 383.636C778.062 386.366 775.958 388.58 773.363 388.58Z" fill="#30242A"/>
<path d="M1070.42 420.797V428.812H1004.54V420.797H1070.42Z" fill="#A15842"/>
<path d="M993.686 462.397L1010.01 359.35H1000.03C998.956 359.35 997.931 358.903 997.174 358.107C996.418 357.312 995.993 356.232 995.993 355.107C995.993 353.981 996.418 352.902 997.174 352.106C997.931 351.31 998.956 350.863 1000.03 350.863H1074.85C1075.92 350.863 1076.95 351.31 1077.71 352.106C1078.46 352.902 1078.89 353.981 1078.89 355.107C1078.89 356.232 1078.46 357.312 1077.71 358.107C1076.95 358.903 1075.92 359.35 1074.85 359.35H1064.95L1081.27 462.397C1081.35 462.907 1081.33 463.43 1081.2 463.928C1081.07 464.427 1080.83 464.89 1080.52 465.284C1080.2 465.679 1079.8 465.996 1079.36 466.213C1078.91 466.431 1078.43 466.543 1077.93 466.543C1077.16 466.544 1076.41 466.266 1075.81 465.756C1075.21 465.246 1074.79 464.535 1074.63 463.74L1053 359.35H1021.95L1000.34 463.74C1000.17 464.535 999.751 465.246 999.149 465.756C998.547 466.265 997.797 466.543 997.024 466.543C996.533 466.543 996.047 466.431 995.602 466.213C995.156 465.996 994.76 465.679 994.442 465.284C994.125 464.89 993.892 464.427 993.762 463.928C993.631 463.43 993.605 462.907 993.686 462.397Z" fill="#FFBE21"/>
<path d="M1000.03 359.35C998.956 359.35 997.93 358.903 997.174 358.107C996.417 357.312 995.993 356.232 995.993 355.107C995.993 353.981 996.417 352.902 997.174 352.106C997.93 351.31 998.956 350.863 1000.03 350.863H1074.85C1075.92 350.863 1076.95 351.31 1077.7 352.106C1078.46 352.902 1078.89 353.981 1078.89 355.107C1078.89 356.232 1078.46 357.312 1077.7 358.107C1076.95 358.903 1075.92 359.35 1074.85 359.35H1064.95V359.482H1053.01L1052.98 359.35H1021.94L1021.91 359.482H1009.97V359.35H1000.03Z" fill="#A15842"/>
<path d="M995.592 420.658H947.96C947.368 410.015 945.255 395.897 943.502 376.826C941.944 359.915 940.603 345.719 940.69 334.001C940.838 314.467 988.322 338.108 988.322 338.108C988.322 342.376 987.504 346.474 987.481 350.445C987.425 360.761 992.392 369.54 995.939 381.984C1001.32 400.851 996.836 420.658 996.836 420.658H995.592Z" fill="#4856DF"/>
<path d="M945.42 461.213H987.119C987.698 461.407 988.192 461.813 988.512 462.356C988.831 462.899 988.956 463.545 988.864 464.177C988.771 464.809 988.467 465.385 988.006 465.802C987.546 466.218 986.959 466.448 986.351 466.449L924.99 466.537C924.448 460.259 927.838 455.534 937.402 448.531C942.858 453.51 945.42 461.213 945.42 461.213Z" fill="#3EC1F3"/>
<path d="M939.552 447.016C941.533 445.668 943.244 443.926 944.588 441.887C947.825 436.889 948.51 430.158 947.978 420.664H989.256C989.176 427.763 988.69 434.85 987.799 441.887C986.745 449.853 985.32 455.333 984.178 461.094H986.347C986.609 461.094 986.87 461.137 987.119 461.221H945.421C945.421 461.221 942.859 453.517 937.402 448.568C938.086 448.059 938.803 447.541 939.552 447.016Z" fill="#ED9C83"/>
<path d="M947.478 412.134C950.031 406.786 951.771 401.051 952.634 395.136C955.654 373.056 953.865 361.737 962.378 351.824H987.29" stroke="#30242A" stroke-width="1.98547" stroke-linecap="round" stroke-linejoin="round"/>
<path d="M931.945 422.544L931.898 422.661L895.125 404.538C897.987 395.525 900.979 383.534 905.895 367.84C910.501 353.153 913.549 342.179 916.434 333.688C920.47 336.747 925.446 338.108 930.387 337.504C935.327 336.9 939.875 334.374 943.136 330.423C946.398 326.472 948.139 321.38 948.016 316.148C947.894 310.916 945.917 305.921 942.475 302.143C962.105 292.809 1031.83 286.722 1031.83 286.722L1071.27 280.59C1073.35 284.21 1075.12 289.948 1076.08 296.649H1062.3V312.158C1062.31 315.294 1063.5 318.299 1065.61 320.515C1067.72 322.731 1070.57 323.976 1073.55 323.979H1074.34C1074.53 323.979 1074.71 323.979 1074.89 323.979C1071.13 338.578 1061.44 350.876 1041.68 350.876H961.906C953.393 360.779 955.183 372.098 952.163 394.187C949.693 412.256 937.989 425.576 937.989 425.576L931.945 422.544Z" fill="#4856DF"/>
<path d="M875.925 443.303L912.551 460.783C913.171 461.239 913.606 461.924 913.768 462.702C913.931 463.479 913.81 464.293 913.429 464.981C913.048 465.669 912.436 466.181 911.713 466.416C910.99 466.651 910.209 466.591 909.526 466.248L853.95 438.996C856.128 432.67 861.728 430.237 874.996 427.803L875.565 427.691C876.664 432.819 876.787 438.125 875.925 443.303Z" fill="#3EC1F3"/>
<path d="M875.564 427.669C879.384 426.9 882.381 425.562 884.855 423.538C889.415 419.8 892.208 413.717 895.126 404.559L931.899 422.681C928.783 430.219 924.408 438.147 920.241 445.067C916.602 451.091 913.129 456.342 910.793 459.861L912.121 460.537C912.271 460.615 912.415 460.706 912.551 460.81L875.925 443.329C876.793 438.136 876.67 432.813 875.564 427.669Z" fill="#ED9C83"/>
<path d="M928.079 337.655C923.897 337.658 919.822 336.27 916.434 333.689C922.173 316.715 927.149 309.644 942.197 302.276L942.475 302.145C945.18 305.113 946.996 308.852 947.698 312.898C948.4 316.944 947.957 321.117 946.423 324.9C944.889 328.683 942.332 331.908 939.071 334.174C935.809 336.44 931.987 337.647 928.079 337.645V337.655Z" fill="#3EC1F3"/>
<path d="M1073.55 323.983C1070.57 323.983 1067.71 322.735 1065.59 320.514C1063.48 318.293 1062.3 315.28 1062.29 312.138V296.629H1076.08C1077.29 305.043 1077.22 314.941 1074.89 323.969C1074.71 323.969 1074.53 323.969 1074.34 323.969L1073.55 323.983Z" fill="#3EC1F3"/>
<path d="M962.586 352.043H949.143" stroke="#30242A" stroke-width="1.98547" stroke-linecap="round" stroke-linejoin="round"/>
<path d="M904.762 202.068C904.762 202.068 928.962 172.831 957.555 162.227" stroke="#30242A" stroke-width="1.98547" stroke-linecap="round" stroke-linejoin="round"/>
<path d="M980.668 173.65C981.547 171.416 978.615 167.912 973.731 164.953C980.344 163.221 985.043 159.995 984.571 157.284C984.099 154.573 978.624 153.298 971.854 154.135C975.415 149.561 976.982 145.191 975.41 143.429C973.408 141.176 967.054 144.018 961.222 149.756C956.135 154.768 953.129 160.345 953.767 163.182C954.124 166.073 958.808 170.17 965.245 172.973C972.649 176.205 979.544 176.506 980.668 173.65Z" fill="#4756DF"/>
<path d="M953.527 172.261C948.864 172.261 945.083 168.282 945.083 163.374C945.083 158.467 948.864 154.488 953.527 154.488C958.191 154.488 961.972 158.467 961.972 163.374C961.972 168.282 958.191 172.261 953.527 172.261Z" fill="#30242A"/>
<path d="M935.736 174.815C933.415 173.908 934.47 164.854 938.091 154.592C941.712 144.329 946.528 136.745 948.848 137.652C951.168 138.558 950.114 147.612 946.493 157.874C942.872 168.137 938.056 175.721 935.736 174.815Z" fill="#30242A"/>
<path d="M936.148 176.598C936.148 176.598 932.56 186.973 934.354 197.82" stroke="#30242A" stroke-width="1.98547" stroke-linecap="round" stroke-linejoin="round"/>
<path d="M1001.59 135.273C1009.24 144.33 1017.37 146.33 1017.37 146.33C1022.63 140.296 1032.17 140.296 1033.62 148.846C1035.21 158.321 1024.07 160.929 1024.07 160.929C1024.07 160.929 1021.27 173.154 1025.57 179.193C1029.37 184.546 1034.26 185.427 1044.26 186.605C1031.22 209.793 1017.9 207.963 1013.47 207.963C1002.83 207.963 999.837 194.975 999 188.279C1001.42 187.39 1003.89 186.657 1006.4 186.084L1007.83 177.032C1007.83 177.032 1001.14 179.543 995.402 176.025C989.663 172.507 988.229 165.961 990.144 155.902C991.277 149.941 991.235 142.568 992.206 135.979C995.994 136.656 1001.59 135.273 1001.59 135.273Z" fill="#ED9C83"/>
<path d="M922.03 185.8C924.06 177.25 939.954 172.612 939.954 172.612C939.954 172.612 939.002 153.419 943.094 152.806C946.23 152.319 949.37 160.354 952.056 175.917C955.062 193.309 953.402 225.433 953.402 225.433C953.402 225.433 956.727 222.255 961.444 217.831C961.915 218.834 962.638 219.682 963.535 220.282C964.432 220.883 965.468 221.213 966.531 221.238C965.86 222.132 965.44 223.206 965.318 224.338C965.195 225.471 965.376 226.616 965.839 227.647C966.301 228.677 967.028 229.55 967.937 230.17C968.846 230.789 969.902 231.129 970.984 231.151C970.313 232.045 969.893 233.119 969.771 234.251C969.649 235.384 969.829 236.529 970.292 237.559C970.755 238.59 971.481 239.463 972.391 240.083C973.3 240.702 974.355 241.041 975.438 241.064C974.734 242.003 974.307 243.138 974.209 244.33C974.112 245.522 974.348 246.717 974.889 247.769C975.43 248.821 976.253 249.683 977.254 250.249C978.255 250.814 979.392 251.059 980.524 250.952C970.707 257.678 957.361 265.522 948.468 265.522C901.863 265.503 920.684 191.46 922.03 185.8Z" fill="#ED9C83"/>
<path d="M974.762 247.451C974.3 246.42 974.119 245.275 974.241 244.143C974.363 243.011 974.782 241.937 975.451 241.041C974.369 241.019 973.313 240.679 972.404 240.06C971.495 239.441 970.768 238.567 970.305 237.537C969.843 236.507 969.662 235.361 969.785 234.229C969.907 233.097 970.327 232.023 970.998 231.129C969.915 231.106 968.86 230.766 967.951 230.147C967.042 229.528 966.315 228.654 965.852 227.624C965.389 226.594 965.209 225.448 965.331 224.316C965.454 223.184 965.874 222.11 966.544 221.216C965.482 221.191 964.446 220.861 963.549 220.26C962.652 219.659 961.929 218.812 961.458 217.809C969.587 210.188 981.847 198.888 988.372 193.813C991.53 191.355 995.554 189.535 999.008 188.28C999.822 194.995 1002.8 207.964 1013.44 207.964C1017.85 207.964 1031.19 209.794 1044.23 186.605L1048.42 187.092C1062.85 188.781 1069.42 196.952 1073.28 206.714C1075.67 212.753 1077.59 223.819 1077.59 223.819C1079.07 233.965 1079.83 244.213 1079.87 254.478L1061.11 272.751L1010.74 274.06C1006.71 267.802 999.309 256.244 996.867 251.811C993.732 246.151 993.283 241.436 993.283 241.436C993.283 241.436 987.9 245.864 980.524 250.92C979.342 251.029 978.157 250.755 977.127 250.135C976.097 249.515 975.272 248.578 974.762 247.451Z" fill="#FFBE21"/>
<path d="M996.326 124.204C1002.06 116.661 1017.84 111.629 1030.27 121.187C1042.7 130.745 1041.74 146.342 1041.27 152.381C1041.27 152.381 1054.65 147.85 1064.21 158.415C1066.98 161.436 1069 165.129 1070.08 169.167C1071.17 173.205 1071.28 177.462 1070.43 181.56C1070.43 181.56 1088.04 181.039 1091.47 198.164C1093.41 207.897 1089.78 214.374 1085.74 218.384C1083.38 220.72 1080.62 222.564 1077.6 223.82C1077.6 223.82 1075.69 212.754 1073.3 206.715C1069.43 196.953 1062.86 188.782 1048.43 187.093L1044.24 186.607C1034.24 185.429 1029.35 184.534 1025.55 179.195C1021.25 173.156 1024.07 160.931 1024.07 160.931C1024.07 160.931 1035.22 158.323 1033.64 148.858C1032.2 140.307 1022.64 140.307 1017.38 146.342C1017.38 146.342 1009.25 144.332 1001.6 135.275C1001.6 135.275 996.007 136.657 992.192 135.981C992.844 131.446 993.991 127.285 996.326 124.204Z" fill="#30242A"/>
<path d="M921.036 192.522C922.391 191.865 923.201 190.21 922.969 187.047C922.969 187.047 925.772 190.746 928.755 189.101C931.737 187.456 930.544 183.913 930.544 183.913C930.544 183.913 933.236 185.801 935.474 183.427C937.504 181.29 935.936 177.767 935.936 177.767C935.936 177.767 938.915 179.047 939.969 176.823C941.296 174.039 939.682 171.124 937.934 168.891" stroke="#30242A" stroke-width="3.97095" stroke-linecap="round" stroke-linejoin="round"/>
<path d="M1071.28 181.969C1070.77 184.49 1069.86 186.901 1068.58 189.098" stroke="black" stroke-width="1.98547" stroke-miterlimit="10" stroke-linecap="round"/>
<path d="M954.3 226.039L953.176 240.741" stroke="#30242A" stroke-width="1.98547" stroke-linecap="round" stroke-linejoin="round"/>
<path d="M994.855 225.164C991.928 230.712 991.965 237.369 992.344 241.316" stroke="#30242A" stroke-width="1.98547" stroke-linecap="round" stroke-linejoin="round"/>
<path d="M1021.3 240.738L1035.64 241.209" stroke="#30242A" stroke-width="1.98547" stroke-linecap="round" stroke-linejoin="round"/>
<path d="M1008.08 177.966C1010.08 177.138 1012.04 176.184 1013.93 175.109" stroke="#30242A" stroke-width="1.98547" stroke-linecap="round" stroke-linejoin="round"/>
<path d="M1004.49 191.927L1005.27 186.715" stroke="#30242A" stroke-width="1.98547" stroke-linecap="round" stroke-linejoin="round"/>
<path d="M1042.23 152.566L1041.24 161.268" stroke="black" stroke-width="1.98547" stroke-miterlimit="10" stroke-linecap="round"/>
<path d="M994.856 162.926C995.868 163.617 999.226 163.846 1000.83 160.766" stroke="#30242A" stroke-width="1.98547" stroke-linecap="round" stroke-linejoin="round"/>
<path d="M1021.75 153.016L1026.23 150.66" stroke="#30242A" stroke-width="1.98547" stroke-linecap="round" stroke-linejoin="round"/>
<path d="M1001.06 150.926C1001.77 151.953 1005.15 153.943 1007.7 151.67" stroke="#30242A" stroke-width="1.98547" stroke-linecap="round" stroke-linejoin="round"/>
<path d="M990.166 149.44C990.702 149.56 991.254 149.567 991.792 149.462C992.33 149.357 992.843 149.142 993.302 148.828" stroke="#30242A" stroke-width="1.98547" stroke-linecap="round" stroke-linejoin="round"/>
<path d="M996.23 151.199C995.716 152.421 995.221 153.769 995.328 154.285C995.486 154.912 995.841 155.464 996.336 155.852" stroke="#30242A" stroke-width="1.98547" stroke-linecap="round" stroke-linejoin="round"/>
<path d="M1024.2 158.715L1030.32 164.788C1030.65 165.117 1030.9 165.529 1031.03 165.986C1031.17 166.443 1031.19 166.93 1031.1 167.399C1031.01 167.868 1030.8 168.304 1030.5 168.666C1030.21 169.027 1029.82 169.302 1029.4 169.465L1022.16 172.166C1021.73 172.326 1021.27 172.367 1020.82 172.285C1020.37 172.204 1019.95 172.002 1019.6 171.7C1019.24 171.397 1018.97 171.005 1018.8 170.559C1018.63 170.113 1018.57 169.629 1018.63 169.153L1019.75 160.394C1019.81 159.885 1020.01 159.404 1020.32 159.005C1020.63 158.605 1021.03 158.302 1021.49 158.129C1021.95 157.956 1022.45 157.919 1022.92 158.022C1023.4 158.125 1023.85 158.365 1024.2 158.715Z" fill="#F4E6D8"/>
<path d="M936.371 160.33C936.371 160.33 933.235 158.441 930.544 159.385C926.382 160.845 926.992 164.923 926.992 164.923C926.992 164.923 921.156 162.709 920.023 169.201C920.023 169.201 914.761 170.442 915.945 175.98C915.945 175.98 911.686 176.218 912.532 182.092C913.378 187.966 917.101 192.847 919.339 192.847C921.651 192.847 923.284 191.353 922.969 187.007C922.969 187.007 925.772 190.706 928.754 189.061C931.737 187.416 930.544 183.873 930.544 183.873C930.544 183.873 933.235 185.762 935.474 183.387C937.504 181.25 935.936 177.727 935.936 177.727C935.936 177.727 938.914 179.007 939.969 176.783C942.212 172.067 936.043 166.997 935.039 165.468L936.371 160.33Z" fill="#ED9C83"/>
<path d="M937.702 179.449C934.622 176.476 929.378 170.865 926.89 164.977" stroke="#30242A" stroke-width="1.98547" stroke-linecap="round" stroke-linejoin="round"/>
<path d="M932.046 186.233C926.928 181.653 922.75 176.023 919.768 169.688" stroke="#30242A" stroke-width="1.98547" stroke-linecap="round" stroke-linejoin="round"/>
<path d="M924.125 189.731C922.738 187.95 917.887 181.55 915.482 176.484" stroke="#30242A" stroke-width="1.98547" stroke-linecap="round" stroke-linejoin="round"/>
<path d="M924.995 298.039H1002.61L984.969 239.384C984.447 237.657 983.417 236.15 982.027 235.081C980.637 234.012 978.959 233.436 977.237 233.438H911.649C910.374 233.437 909.118 233.753 907.981 234.359C906.844 234.965 905.859 235.845 905.106 236.926C904.353 238.008 903.853 239.262 903.646 240.585C903.439 241.908 903.532 243.264 903.916 244.543L918.507 293.046C918.945 294.495 919.81 295.76 920.976 296.657C922.143 297.555 923.55 298.039 924.995 298.039Z" fill="#30242A"/>
<path d="M1047.66 291.441C1047.89 292.201 1047.94 293.007 1047.82 293.794C1047.7 294.58 1047.4 295.326 1046.95 295.969C1046.51 296.612 1045.92 297.135 1045.25 297.496C1044.57 297.857 1043.82 298.045 1043.07 298.045H924.995C923.551 298.042 922.146 297.555 920.982 296.656C919.818 295.757 918.956 294.491 918.521 293.042L918.058 291.441H1047.66Z" fill="#30242A"/>
<path d="M936.884 260.691C938.688 258.092 946.887 264.954 947.488 265.523C947.803 264.954 952.066 258.092 955.197 260.691C957.912 262.944 951.96 273.003 950.355 275.568C950.289 275.646 950.208 275.708 950.117 275.751C950.026 275.793 949.928 275.816 949.828 275.816C949.729 275.816 949.63 275.793 949.539 275.751C949.448 275.708 949.367 275.646 949.301 275.568C946.383 272.979 935.317 262.92 936.884 260.691Z" fill="#FFBE21"/>
<path d="M944.375 258.858C943.723 256.656 943.75 254.689 944.436 254.465C945.121 254.24 946.205 255.843 946.856 258.045C947.508 260.246 947.481 262.213 946.795 262.438C946.11 262.662 945.027 261.06 944.375 258.858Z" fill="#FFBE21"/>
<path d="M1092.13 244.86C1091.12 245.268 1090.03 245.375 1088.97 245.167C1087.91 244.959 1086.92 244.445 1086.12 243.682C1086.02 244.818 1085.63 245.904 1084.98 246.817C1084.33 247.729 1083.45 248.432 1082.44 248.847C1081.43 249.261 1080.33 249.369 1079.26 249.16C1078.2 248.951 1077.21 248.432 1076.41 247.663C1076.31 248.798 1075.91 249.882 1075.26 250.793C1074.61 251.703 1073.73 252.405 1072.72 252.818C1071.71 253.231 1070.62 253.34 1069.55 253.131C1068.49 252.923 1067.5 252.406 1066.7 251.639C1066.62 252.535 1066.36 253.402 1065.93 254.18C1065.5 254.958 1064.92 255.626 1064.21 256.137C1063.51 256.649 1062.71 256.99 1061.86 257.138C1061.02 257.286 1060.16 257.236 1059.33 256.992L1052.34 237.229C1049.65 229.643 1048.37 221.581 1048.58 213.486L1049.29 187.207C1049.29 187.207 1065.42 188.618 1074.84 200.882C1079.66 207.174 1089.14 223.798 1095.21 241.872C1094.57 243.236 1093.47 244.301 1092.13 244.86Z" fill="#FFBE21"/>
<path d="M1063 256.799C1064.02 256.389 1064.9 255.688 1065.55 254.776C1066.21 253.865 1066.6 252.779 1066.7 251.641C1067.5 252.408 1068.49 252.925 1069.56 253.134C1070.62 253.342 1071.72 253.234 1072.73 252.82C1073.74 252.407 1074.62 251.706 1075.27 250.795C1075.92 249.884 1076.32 248.8 1076.41 247.665C1077.21 248.434 1078.2 248.953 1079.27 249.162C1080.33 249.371 1081.43 249.263 1082.44 248.849C1083.45 248.435 1084.33 247.732 1084.98 246.819C1085.63 245.907 1086.03 244.821 1086.12 243.684C1086.79 244.322 1087.59 244.789 1088.45 245.048C1089.32 245.306 1090.23 245.35 1091.12 245.175C1092 245 1092.84 244.611 1093.55 244.039C1094.27 243.467 1094.85 242.728 1095.25 241.879C1100.52 257.544 1103.23 274.304 1098.13 286.368C1087.16 312.35 1054.24 303.206 1046.47 300.802C1038.7 298.398 1023.61 290.217 1013.55 291.663C1003.49 293.108 992.063 298.398 990.232 291.663C990.232 291.663 984.077 291.497 986.015 285.336C986.015 285.336 982.921 284.932 982.463 282.528C981.538 277.715 992.521 273.389 992.521 273.389C992.521 273.389 983.832 274.849 982.005 272.902C979.693 270.469 981.941 266.542 996.133 262.921C1011.72 258.95 1032.3 261.354 1062.93 267.126L1059.34 256.989C1060.55 257.346 1061.84 257.279 1063 256.799Z" fill="#ED9C83"/>
<path d="M1052.22 234.605L1062.46 266.043" stroke="#30242A" stroke-width="1.98547" stroke-linecap="round" stroke-linejoin="round"/>
<path d="M989.76 273.737C994.727 271.752 1003 268.705 1009.41 267.605" stroke="#30242A" stroke-width="1.98547" stroke-linecap="round" stroke-linejoin="round"/>
<path d="M985.884 285.081C992.266 282.059 1004.46 276.575 1011.01 275.543" stroke="#30242A" stroke-width="1.98547" stroke-linecap="round" stroke-linejoin="round"/>
<path d="M1062.85 266.113C1066.29 266.697 1071.7 267.666 1077.09 268.8" stroke="#30242A" stroke-width="1.98547" stroke-linecap="round" stroke-linejoin="round"/>
<path d="M990.421 292.324C995.208 289.759 1005.29 284.659 1012.38 283.238" stroke="#30242A" stroke-width="1.98547" stroke-linecap="round" stroke-linejoin="round"/>
<path d="M776.203 230.23C776.203 230.23 779.838 238.834 789.373 238.834C798.909 238.834 802.562 230.23 802.562 230.23C802.562 230.23 829.384 294.759 803.025 328.698H775.773C749.427 294.759 776.203 230.23 776.203 230.23Z" fill="#3EC1F3"/>
<path d="M789.397 238.834C779.861 238.834 776.227 230.23 776.227 230.23H802.586C802.586 230.23 798.937 238.834 789.397 238.834Z" fill="#30242A"/>
<path d="M764.762 287.676C779.588 287.953 797.133 293.589 810.637 313.468" stroke="#F5EBDD" stroke-width="1.98547" stroke-linecap="round" stroke-linejoin="round"/>
<path d="M813.009 271.887C803.057 269.332 784.212 266.899 765.946 271.473" stroke="#F5EBDD" stroke-width="1.98547" stroke-linecap="round" stroke-linejoin="round"/>
<path d="M766.029 304.242C772.661 304.325 784.92 312.233 783.57 328.17" stroke="#F5EBDD" stroke-width="1.98547" stroke-linecap="round" stroke-linejoin="round"/>
<path d="M791.066 235.972C791.343 229.037 793.096 201.479 803.501 185.312" stroke="#30242A" stroke-width="1.98547" stroke-miterlimit="10" stroke-linecap="round"/>
<path d="M793.234 214.778C791.904 212.406 798.955 205.435 808.984 199.209C819.012 192.982 828.22 189.859 829.55 192.231C830.881 194.604 823.829 201.575 813.801 207.801C803.772 214.027 794.564 217.151 793.234 214.778Z" fill="#30242A"/>
<path d="M797.129 146.007C795.177 144.836 796.18 139.113 799.371 133.224C802.561 127.336 806.73 123.512 808.683 124.684C810.635 125.855 809.631 131.578 806.441 137.467C803.251 143.355 799.082 147.179 797.129 146.007Z" fill="#30242A"/>
<path d="M831.474 170.969C830.424 168.512 825.485 168.332 819.483 170.215C823.182 163.251 824.315 156.774 821.869 155.105C819.423 153.436 814.252 157.129 809.716 163.538C808.916 157.003 806.752 152.346 804.167 152.316C800.902 152.316 798.229 159.893 798.196 169.266C798.177 171.946 798.403 174.622 798.872 177.257C800.295 176.571 801.859 176.27 803.421 176.382C804.983 176.493 806.494 177.014 807.817 177.896C809.139 178.779 810.231 179.995 810.993 181.434C811.755 182.874 812.163 184.491 812.181 186.138C814.575 185.52 816.91 184.67 819.154 183.598C827.307 179.758 832.81 174.108 831.474 170.969Z" fill="#4756DF"/>
<path d="M807.922 177.963C806.595 177.055 805.072 176.515 803.493 176.394C801.915 176.272 800.333 176.572 798.895 177.267C799.69 181.622 801.129 184.854 802.858 185.905C804.504 187.165 807.991 187.214 812.204 186.148C812.187 184.518 811.787 182.918 811.04 181.489C810.293 180.061 809.222 178.85 807.922 177.963Z" fill="#30242A"/>
<path d="M787.598 235.555C786.321 227.895 779.676 190.341 769.04 169.094" stroke="#30242A" stroke-width="1.98547" stroke-miterlimit="10" stroke-linecap="round"/>
<path d="M733.14 221.136C732.375 218.651 742.592 212.942 755.96 208.385C769.328 203.827 780.785 202.148 781.55 204.633C782.315 207.118 772.098 212.827 758.73 217.385C745.362 221.942 733.905 223.622 733.14 221.136Z" fill="#30242A"/>
<path d="M771.043 136.174C768.49 135.93 765.919 140.373 764.536 146.802C760.596 139.989 755.777 135.775 753.192 137.2C750.607 138.626 751.134 145.176 754.219 152.481C748.411 150.014 743.476 149.702 742.195 152.048C740.586 155.036 745.557 161.211 753.294 165.835C755.501 167.166 757.823 168.27 760.231 169.134C760.363 167.494 760.881 165.914 761.74 164.538C762.598 163.162 763.769 162.034 765.147 161.254C766.524 160.475 768.065 160.069 769.629 160.074C771.193 160.08 772.731 160.496 774.104 161.284C774.765 158.784 775.206 156.225 775.422 153.639C776.278 144.305 774.294 136.485 771.043 136.174Z" fill="#4756DF"/>
<path d="M765.275 161.19C763.873 161.962 762.679 163.094 761.803 164.482C760.927 165.869 760.399 167.467 760.267 169.127C764.267 170.533 767.666 170.801 769.368 169.73C771.218 168.84 772.97 165.662 774.154 161.277C772.796 160.493 771.275 160.074 769.725 160.059C768.176 160.044 766.647 160.432 765.275 161.19Z" fill="#30242A"/>
<path d="M743.471 180.723V180.762C745.646 181.705 747.406 183.472 748.404 185.714C749.402 187.956 749.565 190.511 748.861 192.873C748.158 195.235 746.638 197.234 744.603 198.476C742.568 199.718 740.164 200.112 737.866 199.58V199.619C750.052 203.634 761.187 202.661 762.741 197.439C764.295 192.217 755.656 184.737 743.471 180.723Z" fill="#4756DF"/>
<path d="M746.371 197.085C745.302 196.634 744.435 195.775 743.942 194.68C743.45 193.585 743.369 192.334 743.716 191.179C744.063 190.024 744.812 189.049 745.813 188.45C746.814 187.852 747.993 187.673 749.113 187.95C748.806 186.355 748.13 184.864 747.144 183.609C746.158 182.355 744.894 181.375 743.462 180.758L737.857 199.576C739.362 199.926 740.925 199.882 742.409 199.447C743.894 199.013 745.254 198.202 746.371 197.085Z" fill="#FFB7D5"/>
<path d="M743.735 191.199C743.392 192.35 743.472 193.594 743.96 194.685C744.449 195.776 745.309 196.633 746.371 197.088C747.525 195.934 748.382 194.49 748.862 192.893C749.341 191.295 749.428 189.596 749.113 187.953C747.993 187.683 746.817 187.868 745.821 188.469C744.824 189.071 744.079 190.046 743.735 191.199Z" fill="#30242A"/>
</svg>
