<svg width="61" height="46" viewBox="0 0 61 46" fill="none" xmlns="http://www.w3.org/2000/svg">
<path d="M7.125 38.125V38.625H7.625H53.375H53.875V38.125V24.7812V24.5741L53.7286 24.4277L43.302 14.0011C42.5484 13.2475 41.3266 13.2476 40.573 14.0011L40.5729 14.0011L24.7812 29.7929L18.5207 23.5324C17.7671 22.7788 16.5454 22.7788 15.7917 23.5323L15.7917 23.5324L7.27144 32.0527L7.125 32.1991V32.4062V38.125ZM55.2812 45.25H5.71875C2.83647 45.25 0.5 42.9135 0.5 40.0312V5.71875C0.5 2.83647 2.83647 0.5 5.71875 0.5H55.2812C58.1635 0.5 60.5 2.83647 60.5 5.71875V40.0312C60.5 42.9135 58.1635 45.25 55.2812 45.25ZM13.3438 6.17188C9.38283 6.17188 6.17188 9.38283 6.17188 13.3438C6.17188 17.3047 9.38283 20.5156 13.3438 20.5156C17.3047 20.5156 20.5156 17.3047 20.5156 13.3438C20.5156 9.38283 17.3047 6.17188 13.3438 6.17188Z" stroke="#828282"/>
</svg>
