<svg width="64" height="64" viewBox="0 0 64 64" fill="none" xmlns="http://www.w3.org/2000/svg">
<g clip-path="url(#clip0_324_7698)">
<path d="M3.19336 12.5C3.19336 15.399 5.5492 17.75 8.45427 17.75H22.1379L29.4979 23V17.75C32.403 17.75 34.7588 15.399 34.7588 12.5C34.7588 9.60095 32.403 7.25 29.4979 7.25H8.45427C5.5492 7.25 3.19336 9.60095 3.19336 12.5Z" stroke="#1A83E4" stroke-width="2.1" stroke-miterlimit="10"/>
<path d="M10.5594 11.4492H8.45508V13.5492H10.5594V11.4492Z" fill="#1A83E4"/>
<path d="M14.7684 11.4492H12.6641V13.5492H14.7684V11.4492Z" fill="#1A83E4"/>
<path d="M18.9755 11.4492H16.8711V13.5492H18.9755V11.4492Z" fill="#1A83E4"/>
<path d="M23.1844 11.4492H21.0801V13.5492H23.1844V11.4492Z" fill="#1A83E4"/>
<path d="M5.29688 21.9492H7.40124" stroke="#1A83E4" stroke-width="2.1" stroke-miterlimit="10"/>
<path d="M9.50781 21.9492H17.9253" stroke="#1A83E4" stroke-width="2.1" stroke-miterlimit="10"/>
<path d="M50.5416 21.9477C54.0282 21.9477 56.8547 19.1271 56.8547 15.6477C56.8547 12.1683 54.0282 9.34766 50.5416 9.34766C47.055 9.34766 44.2285 12.1683 44.2285 15.6477C44.2285 19.1271 47.055 21.9477 50.5416 21.9477Z" stroke="#1A83E4" stroke-width="2.1" stroke-miterlimit="10"/>
<path d="M60.0128 52.3984C60.0128 49.4994 57.6569 47.1484 54.7518 47.1484H41.0682L33.7082 41.8984V47.1484C30.8031 47.1484 28.4473 49.4994 28.4473 52.3984C28.4473 55.2975 30.8031 57.6484 33.7082 57.6484H54.7518C57.6569 57.6484 60.0128 55.2975 60.0128 52.3984Z" stroke="#1A83E4" stroke-width="2.1" stroke-miterlimit="10"/>
<path d="M48.4384 51.3477H46.334V53.4477H48.4384V51.3477Z" fill="#1A83E4"/>
<path d="M44.2294 51.3477H42.125V53.4477H44.2294V51.3477Z" fill="#1A83E4"/>
<path d="M40.0184 51.3477H37.9141V53.4477H40.0184V51.3477Z" fill="#1A83E4"/>
<path d="M35.8114 51.3477H33.707V53.4477H35.8114V51.3477Z" fill="#1A83E4"/>
<path d="M57.9051 42.9492H55.8008" stroke="#1A83E4" stroke-width="2.1" stroke-miterlimit="10"/>
<path d="M53.6987 42.9492H45.2812" stroke="#1A83E4" stroke-width="2.1" stroke-miterlimit="10"/>
<path d="M61.473 33.2716C59.6937 29.0895 55.4692 26.1484 50.5398 26.1484C45.6103 26.1484 41.3847 29.0895 39.6055 33.2727" stroke="#1A83E4" stroke-width="2.1" stroke-miterlimit="10"/>
<path d="M12.6627 45.0492C16.1493 45.0492 18.9758 42.2286 18.9758 38.7492C18.9758 35.2698 16.1493 32.4492 12.6627 32.4492C9.17608 32.4492 6.34961 35.2698 6.34961 38.7492C6.34961 42.2286 9.17608 45.0492 12.6627 45.0492Z" stroke="#1A83E4" stroke-width="2.1" stroke-miterlimit="10"/>
<path d="M23.596 56.3732C21.8168 52.1911 17.5923 49.25 12.6628 49.25C7.73332 49.25 3.50776 52.1911 1.72852 56.3743" stroke="#1A83E4" stroke-width="2.1" stroke-miterlimit="10"/>
</g>
<defs>
<clipPath id="clip0_324_7698">
<rect width="63.131" height="63" fill="white" transform="translate(0.0371094 0.949219)"/>
</clipPath>
</defs>
</svg>
