<svg width="64" height="64" viewBox="0 0 64 64" fill="none" xmlns="http://www.w3.org/2000/svg">
<path d="M57.5037 54.5H6.9989C5.83623 54.5 4.89453 55.4397 4.89453 56.6V57.65C4.89453 58.8102 5.83623 59.75 6.9989 59.75H57.5037C58.6663 59.75 59.608 58.8102 59.608 57.65V56.6C59.608 55.4397 58.6663 54.5 57.5037 54.5Z" stroke="#1A83E4" stroke-width="2.1" stroke-miterlimit="10"/>
<path d="M5.02148 55.8802L10.1561 41.8984H54.3478L59.4825 55.8802" stroke="#1A83E4" stroke-width="2.1" stroke-miterlimit="10"/>
<path d="M54.346 41.8984V9.34844C54.346 7.02899 52.4615 5.14844 50.1372 5.14844H14.363C12.0388 5.14844 10.1543 7.02899 10.1543 9.34844V41.8984" stroke="#1A83E4" stroke-width="2.1" stroke-miterlimit="10"/>
<path d="M35.4082 13.5508H40.6691" stroke="#1A83E4" stroke-width="2.1" stroke-miterlimit="10"/>
<path d="M30.1484 46.1016H34.3572" stroke="#1A83E4" stroke-width="2.1" stroke-miterlimit="10"/>
<path d="M30.1484 50.3008H34.3572" stroke="#1A83E4" stroke-width="2.1" stroke-miterlimit="10"/>
<path d="M38.5645 46.1016H42.7732" stroke="#1A83E4" stroke-width="2.1" stroke-miterlimit="10"/>
<path d="M38.5645 50.3008H42.7732" stroke="#1A83E4" stroke-width="2.1" stroke-miterlimit="10"/>
<path d="M46.9824 46.1016H51.1912" stroke="#1A83E4" stroke-width="2.1" stroke-miterlimit="10"/>
<path d="M46.9824 50.3008H51.1912" stroke="#1A83E4" stroke-width="2.1" stroke-miterlimit="10"/>
<path d="M13.3125 46.1016H17.5212" stroke="#1A83E4" stroke-width="2.1" stroke-miterlimit="10"/>
<path d="M13.3125 50.3008H17.5212" stroke="#1A83E4" stroke-width="2.1" stroke-miterlimit="10"/>
<path d="M21.7285 46.1016H25.9372" stroke="#1A83E4" stroke-width="2.1" stroke-miterlimit="10"/>
<path d="M21.7285 50.3008H25.9372" stroke="#1A83E4" stroke-width="2.1" stroke-miterlimit="10"/>
<path d="M5.94727 15.6484V18.7984" stroke="#1A83E4" stroke-width="2.1" stroke-miterlimit="10"/>
<path d="M5.94727 20.8984V31.3984" stroke="#1A83E4" stroke-width="2.1" stroke-miterlimit="10"/>
<path d="M58.5547 2V14.6" stroke="#1A83E4" stroke-width="2.1" stroke-miterlimit="10"/>
<path d="M58.5547 16.6992V19.8492" stroke="#1A83E4" stroke-width="2.1" stroke-miterlimit="10"/>
<path d="M40.6701 16.6992H42.7744C43.9371 16.6992 44.8788 17.639 44.8788 18.7992V31.3992C44.8788 32.5595 43.9371 33.4992 42.7744 33.4992H29.0918L22.783 37.5449V33.4992H20.6786C19.5159 33.4992 18.5742 32.5595 18.5742 31.3992V18.7992C18.5742 17.639 19.5159 16.6992 20.6786 16.6992H32.2526" stroke="#1A83E4" stroke-width="2.1" stroke-miterlimit="10"/>
<path d="M32.252 21.9516V11.4516C32.252 10.2913 33.1937 9.35156 34.3563 9.35156H38.5651C39.7277 9.35156 40.6694 10.2913 40.6694 11.5828V21.9516L36.4607 29.1283L32.252 21.9516Z" stroke="#1A83E4" stroke-width="2.1" stroke-miterlimit="10"/>
<path d="M40.6694 21.9492H32.252" stroke="#1A83E4" stroke-width="2.1" stroke-miterlimit="10"/>
<path d="M29.0966 28.25H26.9922V30.35H29.0966V28.25Z" fill="#1A83E4"/>
<path d="M23.8348 28.25H21.7305V30.35H23.8348V28.25Z" fill="#1A83E4"/>
</svg>
