<svg width="64" height="64" viewBox="0 0 64 64" fill="none" xmlns="http://www.w3.org/2000/svg">
<path d="M4.53906 37.6969V17.7469C4.53906 15.4274 6.42352 13.5469 8.74779 13.5469H55.0438C57.3681 13.5469 59.2526 15.4274 59.2526 17.7469V48.1969C59.2526 50.5163 57.3681 52.3969 55.0438 52.3969H40.3133L31.8958 60.7969L23.4784 52.3969H8.74779C6.42352 52.3969 4.53906 50.5163 4.53906 48.1969V43.9969" stroke="#1A83E4" stroke-width="2.1" stroke-miterlimit="10"/>
<path d="M4.53906 41.8969V39.7969" stroke="#1A83E4" stroke-width="2.1" stroke-miterlimit="10"/>
<path d="M31.8965 8.29687V3.04688" stroke="#1A83E4" stroke-width="2.1" stroke-miterlimit="10"/>
<path d="M22.851 10.1354L20.9023 5.57422" stroke="#1A83E4" stroke-width="2.1" stroke-miterlimit="10"/>
<path d="M40.9414 10.1354L42.8816 5.57422" stroke="#1A83E4" stroke-width="2.1" stroke-miterlimit="10"/>
<path d="M56.0966 47.1484H53.9922V49.2484H56.0966V47.1484Z" fill="#1A83E4"/>
<path d="M56.0966 41.8984H53.9922V43.9984H56.0966V41.8984Z" fill="#1A83E4"/>
<path d="M56.0966 36.6484H53.9922V38.7484H56.0966V36.6484Z" fill="#1A83E4"/>
<path d="M25.4411 25.2762C24.9823 25.1596 24.5015 25.0977 24.0059 25.0977C21.0387 25.0977 18.5924 27.3268 18.2578 30.1975" stroke="#1A83E4" stroke-width="2.1" stroke-miterlimit="10"/>
<path d="M29.0578 28.053C28.7579 27.5186 28.376 27.0377 27.9277 26.625" stroke="#1A83E4" stroke-width="2.1" stroke-miterlimit="10"/>
<path d="M38.209 44.1265L45.3638 39.1537C48.0301 37.3624 49.783 34.3227 49.783 30.8734C49.783 25.3641 45.3081 20.8984 39.7873 20.8984C36.5792 20.8984 33.7193 22.3989 31.8906 24.7435" stroke="#1A83E4" stroke-width="2.1" stroke-miterlimit="10"/>
<path d="M33.2384 27.0441C31.7338 23.4352 28.1658 20.8984 24.0055 20.8984C18.4847 20.8984 14.0098 25.3641 14.0098 30.8734C14.0098 34.3164 15.7574 37.3519 18.4163 39.1453L31.8969 48.5134L39.2622 43.3947" stroke="#1A83E4" stroke-width="2.1" stroke-miterlimit="10"/>
</svg>
