<svg width="64" height="64" viewBox="0 0 64 64" fill="none" xmlns="http://www.w3.org/2000/svg">
<g clip-path="url(#clip0_324_7611)">
<path d="M44.6465 11.0325L48.0219 7.66406" stroke="#1A83E4" stroke-width="2.1" stroke-miterlimit="10"/>
<path d="M39.6758 7.98122L41.2025 3.29297" stroke="#1A83E4" stroke-width="2.1" stroke-miterlimit="10"/>
<path d="M47.6992 15.9956L52.372 14.4805" stroke="#1A83E4" stroke-width="2.1" stroke-miterlimit="10"/>
<path d="M32.9414 23.9554L37.2217 22.4298C38.2391 22.0665 38.9673 21.0963 38.9673 19.957C38.9673 18.507 37.7899 17.332 36.3368 17.332C36.0264 17.332 35.6382 17.3908 35.3425 17.5074" stroke="#1A83E4" stroke-width="2.1" stroke-miterlimit="10"/>
<path d="M35.0156 28.806L38.2932 27.629C39.3106 27.2657 40.0209 26.2955 40.0209 25.1562C40.0209 23.7062 38.8603 22.5312 37.4083 22.5312C37.0979 22.5312 36.7791 22.5869 36.5024 22.6856" stroke="#1A83E4" stroke-width="2.1" stroke-miterlimit="10"/>
<path d="M37.5649 27.892C37.8416 27.7933 38.132 27.7461 38.4424 27.7461C39.8955 27.7461 41.0729 28.921 41.0729 30.3711C41.0729 31.5103 40.3447 32.4805 39.3273 32.8438L33.2593 35.0299C30.2796 36.103 27.1367 36.6522 23.9686 36.6522H15.832" stroke="#1A83E4" stroke-width="2.1" stroke-miterlimit="10"/>
<path d="M1.28711 23.4373L7.71489 21.0318C7.94427 20.9457 8.19364 20.8984 8.45353 20.8984C9.35735 20.8984 10.1265 21.4633 10.4243 22.2613L16.7374 39.0613C16.8226 39.2892 16.871 39.5401 16.871 39.7984C16.871 40.6993 16.3028 41.4669 15.5053 41.7651L8.69763 44.3134" stroke="#1A83E4" stroke-width="2.1" stroke-miterlimit="10"/>
<path d="M7.40124 26.1484H5.29688V28.2484H7.40124V26.1484Z" fill="#1A83E4"/>
<path d="M31.7646 18.8131L35.1168 17.5962C36.1343 17.2329 36.8624 16.2627 36.8624 15.1234C36.8624 13.6734 35.685 12.4984 34.2319 12.4984C33.9215 12.4984 33.6238 12.552 33.347 12.6507L23.6775 16.5766C23.5302 16.6543 23.3618 16.6984 23.184 16.6984C22.6032 16.6984 22.1318 16.228 22.1318 15.6484V7.77344C22.1318 6.32339 20.9544 5.14844 19.5014 5.14844C18.2798 5.14844 17.2529 5.97899 16.9572 7.10564L11.2617 24.4884" stroke="#1A83E4" stroke-width="2.1" stroke-miterlimit="10"/>
<path d="M18.559 53.8633L15.1836 57.2317" stroke="#1A83E4" stroke-width="2.1" stroke-miterlimit="10"/>
<path d="M23.5287 56.918L22.002 61.6062" stroke="#1A83E4" stroke-width="2.1" stroke-miterlimit="10"/>
<path d="M15.5048 48.9023L10.832 50.4175" stroke="#1A83E4" stroke-width="2.1" stroke-miterlimit="10"/>
<path d="M30.2622 40.9453L25.9819 42.471C24.9644 42.8343 24.2363 43.8045 24.2363 44.9437C24.2363 46.3938 25.4137 47.5687 26.8668 47.5687C27.1772 47.5687 27.5654 47.5099 27.8611 47.3934" stroke="#1A83E4" stroke-width="2.1" stroke-miterlimit="10"/>
<path d="M27.1608 36.4609L24.9113 37.2694C23.8938 37.6327 23.1836 38.6029 23.1836 39.7422C23.1836 41.1922 24.3442 42.3672 25.7962 42.3672C26.1066 42.3672 26.4254 42.3115 26.7021 42.2128" stroke="#1A83E4" stroke-width="2.1" stroke-miterlimit="10"/>
<path d="M39.9941 28.25H47.372" stroke="#1A83E4" stroke-width="2.1" stroke-miterlimit="10"/>
<path d="M61.9179 41.4571L55.4901 43.8626C55.2607 43.9487 55.0113 43.996 54.7514 43.996C53.8476 43.996 53.0785 43.4311 52.7807 42.6331L46.4676 25.8331C46.3824 25.6052 46.334 25.3543 46.334 25.096C46.334 24.1951 46.9022 23.4275 47.6997 23.1293L54.5084 20.582" stroke="#1A83E4" stroke-width="2.1" stroke-miterlimit="10"/>
<path d="M57.9071 36.6484H55.8027V38.7484H57.9071V36.6484Z" fill="#1A83E4"/>
<path d="M31.4396 46.0854L28.0874 47.3024C27.0699 47.6657 26.3418 48.6359 26.3418 49.7751C26.3418 51.2252 27.5192 52.4001 28.9723 52.4001C29.2826 52.4001 29.5804 52.3466 29.8571 52.2479L39.5267 48.3219C39.674 48.2442 39.8424 48.2001 40.0202 48.2001C40.601 48.2001 41.0724 48.6705 41.0724 49.2501V57.1251C41.0724 58.5752 42.2498 59.7501 43.7028 59.7501C44.9244 59.7501 45.9513 58.9196 46.247 57.7929L51.9425 40.4102" stroke="#1A83E4" stroke-width="2.1" stroke-miterlimit="10"/>
</g>
<defs>
<clipPath id="clip0_324_7611">
<rect width="63.131" height="63" fill="white" transform="translate(0.0371094 0.949219)"/>
</clipPath>
</defs>
</svg>
