<svg width="61" height="59" viewBox="0 0 61 59" fill="none" xmlns="http://www.w3.org/2000/svg">
<path d="M1.09766 41.0023V26.3023C1.09766 24.5625 2.51074 23.1523 4.2542 23.1523H37.9241C39.6675 23.1523 41.0806 24.5625 41.0806 26.3023V42.0523" stroke="#1A83E4" stroke-width="2.1" stroke-miterlimit="10"/>
<path d="M1.09766 45.2016V43.1016" stroke="#1A83E4" stroke-width="2.1" stroke-miterlimit="10"/>
<path d="M12.6717 52.5508H4.25421C2.51074 52.5508 1.09766 51.1406 1.09766 49.4008V47.3008" stroke="#1A83E4" stroke-width="2.1" stroke-miterlimit="10"/>
<path d="M21.0882 33.6516C22.8315 33.6516 24.2447 32.2413 24.2447 30.5016C24.2447 28.7619 22.8315 27.3516 21.0882 27.3516C19.3449 27.3516 17.9316 28.7619 17.9316 30.5016C17.9316 32.2413 19.3449 33.6516 21.0882 33.6516Z" stroke="#1A83E4" stroke-width="2.1" stroke-miterlimit="10"/>
<path d="M21.0879 37.8523V33.6523" stroke="#1A83E4" stroke-width="2.1" stroke-miterlimit="10"/>
<path d="M34.7669 23.1516V14.7516C34.7669 7.21256 28.6432 1.10156 21.0885 1.10156C13.5339 1.10156 7.41016 7.21256 7.41016 14.7516V23.1516" stroke="#1A83E4" stroke-width="2.1" stroke-miterlimit="10"/>
<path d="M52.6549 23.1523H46.3418" stroke="#1A83E4" stroke-width="2.1" stroke-miterlimit="10"/>
<path d="M50.174 14.2773L44.791 17.379" stroke="#1A83E4" stroke-width="2.1" stroke-miterlimit="10"/>
<path d="M43.6702 7.76562L40.5547 13.15" stroke="#1A83E4" stroke-width="2.1" stroke-miterlimit="10"/>
<path d="M55.8114 42.0508H15.8284C14.085 42.0508 12.6719 43.4609 12.6719 45.2008V54.6508C12.6719 56.3906 14.085 57.8008 15.8284 57.8008H55.8114C57.5548 57.8008 58.9679 56.3906 58.9679 54.6508V45.2008C58.9679 43.4609 57.5548 42.0508 55.8114 42.0508Z" stroke="#1A83E4" stroke-width="2.1" stroke-miterlimit="10"/>
<path d="M22.1406 45.2031V50.4531" stroke="#1A83E4" stroke-width="2.1" stroke-miterlimit="10"/>
<path d="M27.0652 47.8984L22.141 50.4499L17.2168 47.8984" stroke="#1A83E4" stroke-width="2.1" stroke-miterlimit="10"/>
<path d="M25.93 54.2331L22.1421 50.4531L18.3574 54.23" stroke="#1A83E4" stroke-width="2.1" stroke-miterlimit="10"/>
<path d="M35.8203 45.2031V50.4531" stroke="#1A83E4" stroke-width="2.1" stroke-miterlimit="10"/>
<path d="M40.743 47.8984L35.8187 50.4499L30.8945 47.8984" stroke="#1A83E4" stroke-width="2.1" stroke-miterlimit="10"/>
<path d="M39.6077 54.2331L35.8199 50.4531L32.0352 54.23" stroke="#1A83E4" stroke-width="2.1" stroke-miterlimit="10"/>
</svg>
