<svg width="22" height="19" viewBox="0 0 22 19" fill="none" xmlns="http://www.w3.org/2000/svg">
<path d="M10.6796 0.398955C10.7836 0.0968429 11.2109 0.0968425 11.315 0.398955L13.5124 6.77909C13.5591 6.91467 13.6867 7.00567 13.83 7.00567H20.8974C21.2277 7.00567 21.3598 7.43213 21.0874 7.61882L15.4041 11.5143C15.2794 11.5997 15.2271 11.7579 15.2764 11.9008L17.455 18.2265C17.5605 18.5327 17.2145 18.7962 16.9474 18.6131L11.1872 14.665C11.0727 14.5865 10.9218 14.5865 10.8073 14.665L5.04714 18.6131C4.78006 18.7962 4.43405 18.5327 4.5395 18.2265L6.71816 11.9008C6.76739 11.7579 6.71512 11.5997 6.59044 11.5143L0.907123 7.61882C0.634751 7.43213 0.766873 7.00567 1.09708 7.00567H8.16448C8.30788 7.00567 8.43547 6.91467 8.48217 6.77909L10.6796 0.398955Z" fill="#FEC80A"/>
</svg>
