<svg width="35" height="33" viewBox="0 0 35 33" fill="none" xmlns="http://www.w3.org/2000/svg">
<path d="M30.6356 0.148438H4.07158C3.11087 0.148438 2.18951 0.511425 1.51018 1.15755C0.830859 1.80367 0.449219 2.68 0.449219 3.59375L0.449219 28.8594C0.449219 29.7731 0.830859 30.6495 1.51018 31.2956C2.18951 31.9417 3.11087 32.3047 4.07158 32.3047H14.4293V21.3723H9.67493V16.2266H14.4293V12.3046C14.4293 7.84369 17.2215 5.37957 21.4982 5.37957C23.5463 5.37957 25.688 5.72697 25.688 5.72697V10.1054H23.3282C21.0031 10.1054 20.2779 11.4778 20.2779 12.8853V16.2266H25.4684L24.6383 21.3723H20.2779V32.3047H30.6356C31.5963 32.3047 32.5177 31.9417 33.197 31.2956C33.8763 30.6495 34.2579 29.7731 34.2579 28.8594V3.59375C34.2579 2.68 33.8763 1.80367 33.197 1.15755C32.5177 0.511425 31.5963 0.148438 30.6356 0.148438Z" fill="#F2F2F2"/>
</svg>
