<svg width="35" height="33" viewBox="0 0 35 33" fill="none" xmlns="http://www.w3.org/2000/svg">
<path d="M31.843 0.148438H2.85658C1.52838 0.148438 0.449219 1.18921 0.449219 2.46685V29.9863C0.449219 31.2639 1.52838 32.3047 2.85658 32.3047H31.843C33.1712 32.3047 34.2579 31.2639 34.2579 29.9863V2.46685C34.2579 1.18921 33.1712 0.148438 31.843 0.148438ZM10.6673 27.7109H5.65637V12.3649H10.6748V27.7109H10.6673ZM8.16183 10.269C6.55441 10.269 5.2564 9.0273 5.2564 7.50562C5.2564 5.98394 6.55441 4.74219 8.16183 4.74219C9.76171 4.74219 11.0673 5.98394 11.0673 7.50562C11.0673 9.03447 9.76926 10.269 8.16183 10.269ZM29.4508 27.7109H24.4398V20.2461C24.4398 18.466 24.4021 16.1763 21.8363 16.1763C19.2251 16.1763 18.8252 18.1143 18.8252 20.1169V27.7109H13.8142V12.3649H18.6214V14.4608H18.6893C19.361 13.255 20.9986 11.9845 23.4361 11.9845C28.5074 11.9845 29.4508 15.1643 29.4508 19.2986V27.7109Z" fill="#F2F2F2"/>
</svg>
