<svg width="35" height="33" viewBox="0 0 35 33" fill="none" xmlns="http://www.w3.org/2000/svg">
<path d="M30.702 0.148438H4.13799C2.13814 0.148438 0.515625 1.69165 0.515625 3.59375V28.8594C0.515625 30.7615 2.13814 32.3047 4.13799 32.3047H30.702C32.7018 32.3047 34.3243 30.7615 34.3243 28.8594V3.59375C34.3243 1.69165 32.7018 0.148438 30.702 0.148438ZM27.0117 11.5467C27.0268 11.7477 27.0268 11.9558 27.0268 12.1568C27.0268 18.3799 22.046 25.5504 12.9449 25.5504C10.1375 25.5504 7.53395 24.7752 5.34544 23.4402C5.74541 23.4833 6.13029 23.4976 6.5378 23.4976C8.85461 23.4976 10.9827 22.7511 12.6807 21.4878C10.5073 21.4448 8.68104 20.0882 8.05467 18.222C8.81687 18.3296 9.50361 18.3296 10.2885 18.1358C8.02448 17.698 6.3265 15.8031 6.3265 13.5134V13.456C6.98305 13.8077 7.7528 14.023 8.56029 14.0517C7.88142 13.6222 7.3249 13.0396 6.94039 12.3557C6.55588 11.6719 6.35535 10.9082 6.35669 10.1327C6.35669 9.25698 6.59818 8.45308 7.02833 7.75684C9.46588 10.6136 13.126 12.4798 17.2313 12.6808C16.5295 9.48667 19.0425 6.89551 22.0611 6.89551C23.4874 6.89551 24.7704 7.46255 25.676 8.3813C26.7929 8.18032 27.8645 7.78555 28.8153 7.24722C28.4456 8.33823 27.6683 9.25698 26.6419 9.83838C27.6381 9.73789 28.604 9.47231 29.4945 9.10625C28.8229 10.0465 27.9777 10.8792 27.0117 11.5467Z" fill="#F2F2F2"/>
</svg>
