<svg width="269" height="150" viewBox="0 0 269 150" fill="none" xmlns="http://www.w3.org/2000/svg">
<path fill-rule="evenodd" clip-rule="evenodd" d="M246.021 38.4735C246.369 38.1955 246.876 38.2518 247.154 38.5992C247.432 38.9465 247.375 39.4535 247.028 39.7315L246.933 39.8105L246.871 39.8634C246.752 39.9652 246.617 40.0857 246.465 40.2249L246.388 40.296C245.86 40.7856 245.269 41.3793 244.632 42.0784C242.802 44.0848 240.969 46.5287 239.256 49.4207C235.912 55.068 233.447 61.7063 232.232 69.3719C230.73 78.8534 231.225 89.435 234.095 101.156C234.201 101.588 233.937 102.024 233.505 102.13C233.072 102.236 232.636 101.971 232.531 101.539C229.61 89.613 229.105 78.8157 230.641 69.1198C231.888 61.2478 234.424 54.4177 237.87 48.5997C239.64 45.6098 241.539 43.078 243.441 40.9927C244.062 40.3121 244.643 39.7241 245.172 39.2275L245.293 39.1145C245.634 38.7982 245.882 38.585 246.021 38.4735Z" fill="#022C42"/>
<path fill-rule="evenodd" clip-rule="evenodd" d="M237.744 90.5731C237.126 90.036 236.831 89.2573 236.911 88.4517C238.603 72.8771 245.639 56.8459 256.595 50.9651C267.846 44.9232 275.526 61.7063 259.924 77.2809C248.19 89.0156 241.906 90.9222 239.516 91.1638C238.872 91.2176 238.227 91.0027 237.744 90.5731Z" fill="#08DE77"/>
<path fill-rule="evenodd" clip-rule="evenodd" d="M213.056 86.9796C217.676 87.3776 221.323 89.9094 224.091 93.8456C225.139 95.3357 225.987 96.9277 226.654 98.5196C226.862 99.0154 227.039 99.4804 227.186 99.9057L227.24 100.063C227.336 100.348 227.399 100.555 227.432 100.671C227.55 101.1 227.299 101.544 226.87 101.663C226.457 101.777 226.029 101.548 225.893 101.147L225.841 100.974L225.796 100.829C225.772 100.752 225.744 100.669 225.714 100.579C225.568 100.147 225.386 99.6636 225.168 99.1423C224.543 97.6511 223.749 96.1598 222.773 94.7724C220.256 91.1936 217.006 88.937 212.918 88.5848C212.475 88.5466 212.146 88.1563 212.185 87.713C212.221 87.2856 212.586 86.965 213.009 86.9769L213.056 86.9796Z" fill="#022C42"/>
<path fill-rule="evenodd" clip-rule="evenodd" d="M266.295 51.7668C266.597 52.0686 266.609 52.5508 266.332 52.8674L266.272 52.93L265.956 53.2508L265.662 53.5532C265.524 53.6949 265.378 53.8462 265.224 54.007L264.986 54.2553C263.94 55.3509 262.773 56.6049 261.516 57.9968C257.926 61.9741 254.335 66.2567 250.985 70.679C246.997 75.9439 243.623 81.0534 241.06 85.8691C240.247 87.3973 239.52 88.887 238.885 90.335C238.707 90.7424 238.231 90.9278 237.824 90.7491C237.417 90.5704 237.231 90.0952 237.41 89.6878C238.062 88.2013 238.806 86.6751 239.638 85.1122C242.245 80.2127 245.665 75.0343 249.701 69.7062C253.081 65.2438 256.701 60.9266 260.32 56.9171L260.764 56.4276C261.789 55.2988 262.752 54.2656 263.633 53.3393L264.177 52.7707C264.367 52.5731 264.544 52.3904 264.708 52.223L265.155 51.7676C265.47 51.4528 265.98 51.4524 266.295 51.7668Z" fill="#022C42"/>
<path fill-rule="evenodd" clip-rule="evenodd" d="M260.251 73.005L260.527 72.9912C261.065 72.9661 261.524 72.9564 261.896 72.9571L262.261 72.9619C262.706 72.9766 263.055 73.349 263.04 73.7937C263.026 74.2224 262.679 74.5618 262.256 74.5723L262.13 74.5704C261.704 74.5632 261.098 74.573 260.338 74.6139C259.196 74.6752 257.949 74.7953 256.619 74.988C252.969 75.5171 249.28 76.5015 245.748 78.0494C245.341 78.228 244.866 78.0424 244.687 77.6349C244.509 77.2275 244.694 76.7523 245.102 76.5737C248.776 74.9635 252.602 73.9422 256.388 73.3935C257.767 73.1936 259.063 73.0689 260.251 73.005Z" fill="#022C42"/>
<path fill-rule="evenodd" clip-rule="evenodd" d="M253.175 53.6022C253.564 53.8189 253.703 54.3096 253.486 54.6981L253.298 55.0397C253.237 55.1519 253.17 55.2754 253.098 55.4099L252.835 55.8997C252.595 56.3504 252.338 56.8415 252.066 57.3683C250.998 59.4383 249.93 61.6324 248.933 63.8525C248.145 65.6087 247.435 67.3098 246.822 68.9294L246.667 69.3414C245.043 73.7093 244.237 77.2185 244.455 79.4978C244.497 79.9407 244.172 80.334 243.729 80.3762C243.286 80.4185 242.893 80.0937 242.851 79.6508C242.596 76.9845 243.505 73.1351 245.315 68.3586C245.941 66.707 246.663 64.9768 247.464 63.1929C248.473 60.9439 249.553 58.724 250.634 56.6295L250.938 56.045C251.168 55.6025 251.388 55.1888 251.593 54.807L251.884 54.268L252.079 53.9133C252.296 53.5248 252.786 53.3855 253.175 53.6022Z" fill="#022C42"/>
<path fill-rule="evenodd" clip-rule="evenodd" d="M249.263 82.713C250.392 82.6179 251.372 82.5895 252.126 82.5996L252.382 82.605C252.826 82.6211 253.174 82.9947 253.157 83.4393C253.142 83.868 252.794 84.2063 252.37 84.2154L252.212 84.2123C251.496 84.1986 250.527 84.2234 249.398 84.3185C247.697 84.4618 246.017 84.7378 244.455 85.1757C242.984 85.5883 241.679 86.1288 240.586 86.8068C240.208 87.0413 239.711 86.9248 239.477 86.5467C239.242 86.1686 239.359 85.672 239.737 85.4375C240.97 84.6727 242.412 84.0753 244.02 83.6244C245.69 83.1563 247.467 82.8643 249.263 82.713Z" fill="#022C42"/>
<path fill-rule="evenodd" clip-rule="evenodd" d="M223.835 76.3433C223.003 76.934 222.036 77.0146 221.284 76.6118C206.596 68.5291 194.19 53.4378 194.002 37.165C193.787 20.4356 214.571 16.9179 222.063 42.8578C227.702 62.3798 226.359 71.1607 225.339 74.3025C225.044 75.108 224.506 75.8599 223.835 76.3433Z" fill="#08DE77"/>
<path fill-rule="evenodd" clip-rule="evenodd" d="M199.013 26.364C199.225 25.9727 199.713 25.8269 200.105 26.0385C206.997 29.7645 212.559 38.4421 216.997 50.5768C219.088 56.296 220.791 62.4174 222.136 68.5378L222.29 69.246C222.642 70.8848 222.948 72.428 223.208 73.8516L223.317 74.4543C223.428 75.0801 223.522 75.6361 223.6 76.1159L223.693 76.7107C223.757 77.1509 223.453 77.5601 223.013 77.6247C222.573 77.6894 222.163 77.3849 222.099 76.9447L222.025 76.4688L221.962 76.0808C221.904 75.7297 221.838 75.342 221.763 74.9198L221.731 74.7368C221.416 72.9714 221.028 71.0034 220.562 68.8837C219.231 62.8287 217.548 56.7745 215.483 51.1301C211.17 39.3346 205.792 30.9447 199.339 27.4558C198.947 27.2442 198.802 26.7554 199.013 26.364Z" fill="#022C42"/>
<path fill-rule="evenodd" clip-rule="evenodd" d="M194.1 39.3268C194.283 38.921 194.76 38.7401 195.166 38.9227C198.455 40.4031 202.214 42.2446 205.867 44.277L206.338 44.5403C211.479 47.4326 215.436 50.1913 217.719 52.703C218.018 53.0322 217.994 53.5417 217.665 53.841C217.336 54.1403 216.826 54.116 216.527 53.7868C214.323 51.3628 210.312 48.5936 205.084 45.6849C201.476 43.6777 197.756 41.8551 194.504 40.392C194.099 40.2094 193.918 39.7325 194.1 39.3268Z" fill="#022C42"/>
<path fill-rule="evenodd" clip-rule="evenodd" d="M221.101 41.8395C221.544 41.7981 221.937 42.1236 221.978 42.5666C222.328 46.3104 222.506 49.9271 222.421 53.0922L222.409 53.4826C222.27 57.5448 221.691 60.4701 220.501 62.0337C220.232 62.3878 219.727 62.4565 219.373 62.1871C219.018 61.9178 218.95 61.4124 219.219 61.0583C221.007 58.7085 221.199 51.5477 220.374 42.7165C220.333 42.2736 220.658 41.8809 221.101 41.8395Z" fill="#022C42"/>
<path fill-rule="evenodd" clip-rule="evenodd" d="M200.867 57.9236C201.147 57.5778 201.654 57.5246 202 57.8046C203.864 59.3141 206.618 60.9129 210.017 62.5371C212.402 63.6766 214.961 64.761 217.521 65.7536L217.964 65.9243C218.546 66.1478 219.099 66.3548 219.615 66.5439L220.314 66.7972L220.927 67.0133C221.348 67.1576 221.572 67.6158 221.428 68.0366C221.289 68.4425 220.858 68.6655 220.45 68.5515L220.307 68.5038L219.969 68.3848C219.874 68.351 219.773 68.315 219.667 68.2768L219.061 68.0568C218.407 67.817 217.695 67.5492 216.939 67.2558C214.344 66.2496 211.748 65.1497 209.323 63.9908L208.859 63.7678C205.567 62.1698 202.879 60.59 200.986 59.0566C200.64 58.7766 200.587 58.2693 200.867 57.9236Z" fill="#022C42"/>
<path fill-rule="evenodd" clip-rule="evenodd" d="M214.625 83.603C214.932 81.3399 214.585 79.4245 213.85 79.3249C213.115 79.2252 212.271 80.979 211.964 83.2421C211.657 85.5052 212.004 87.4206 212.739 87.5203C213.473 87.62 214.318 85.8661 214.625 83.603Z" fill="#022C42"/>
<path fill-rule="evenodd" clip-rule="evenodd" d="M212.754 87.5118C213.188 86.9855 212.242 85.4878 210.64 84.1665C209.039 82.8451 207.388 82.2006 206.954 82.7268C206.52 83.2531 207.466 84.7508 209.068 86.0722C210.67 87.3935 212.32 88.038 212.754 87.5118Z" fill="#022C42"/>
<path fill-rule="evenodd" clip-rule="evenodd" d="M217.019 86.7226C219.016 85.6762 220.35 84.2849 219.999 83.615C219.648 82.9451 217.744 83.2503 215.748 84.2967C213.751 85.3431 212.417 86.7345 212.769 87.4044C213.12 88.0743 215.023 87.769 217.019 86.7226Z" fill="#022C42"/>
<path fill-rule="evenodd" clip-rule="evenodd" d="M210.056 90.3859C211.877 89.3877 213.087 88.0935 212.759 87.4954C212.431 86.8972 210.689 87.2216 208.869 88.2198C207.048 89.2181 205.838 90.5122 206.166 91.1104C206.494 91.7085 208.236 91.3842 210.056 90.3859Z" fill="#022C42"/>
<path fill-rule="evenodd" clip-rule="evenodd" d="M215.916 94.3884C216.536 94.1053 216.336 92.3334 215.468 90.431C214.6 88.5285 213.393 87.2158 212.772 87.499C212.152 87.7822 212.352 89.554 213.22 91.4565C214.088 93.3589 215.295 94.6716 215.916 94.3884Z" fill="#022C42"/>
<path fill-rule="evenodd" clip-rule="evenodd" d="M249.704 36.9903C251.207 34.3648 251.393 31.6449 250.119 30.9152C248.845 30.1855 246.593 31.7223 245.09 34.3478C243.586 36.9732 243.4 39.6931 244.674 40.4228C245.948 41.1525 248.2 39.6157 249.704 36.9903Z" fill="#022C42"/>
<path fill-rule="evenodd" clip-rule="evenodd" d="M249.806 42.9625C252.801 42.9017 255.204 41.6504 255.174 40.1676C255.144 38.6849 252.692 37.5322 249.697 37.593C246.701 37.6538 244.298 38.9051 244.328 40.3879C244.358 41.8706 246.811 43.0233 249.806 42.9625Z" fill="#022C42"/>
<path fill-rule="evenodd" clip-rule="evenodd" d="M244.299 40.4897C245.359 39.7024 244.912 37.308 243.302 35.1416C241.692 32.9753 239.528 31.8574 238.469 32.6447C237.41 33.4321 237.856 35.8265 239.466 37.9928C241.076 40.1591 243.24 41.277 244.299 40.4897Z" fill="#022C42"/>
<path fill-rule="evenodd" clip-rule="evenodd" d="M246.253 44.7549C247.352 42.2898 247.278 39.8604 246.086 39.3287C244.894 38.797 243.036 40.3644 241.936 42.8295C240.837 45.2946 240.912 47.724 242.103 48.2557C243.295 48.7874 245.153 47.22 246.253 44.7549Z" fill="#022C42"/>
<path fill-rule="evenodd" clip-rule="evenodd" d="M242.451 42.5315C244.854 42.2724 246.698 41.0941 246.569 39.8998C246.44 38.7055 244.388 37.9474 241.984 38.2066C239.581 38.4657 237.737 39.6439 237.866 40.8382C237.995 42.0325 240.047 42.7906 242.451 42.5315Z" fill="#022C42"/>
<path fill-rule="evenodd" clip-rule="evenodd" d="M255.306 103.551L245.371 148.557H213.818L203.883 103.551C203.319 100.973 204.93 98.4492 207.132 98.4492H252.084C254.286 98.4761 255.897 101 255.306 103.551Z" fill="#022C42"/>
<path fill-rule="evenodd" clip-rule="evenodd" d="M252.094 97.6368L207.133 97.6367C204.368 97.6367 202.431 100.675 203.096 103.716L213.032 148.723C213.114 149.092 213.441 149.355 213.819 149.355H245.371C245.749 149.355 246.076 149.092 246.158 148.723L256.093 103.718C256.789 100.715 254.859 97.6705 252.094 97.6368ZM252.084 99.2498L252.138 99.2514C253.736 99.3206 254.964 101.261 254.54 103.284L244.724 147.746H214.466L204.67 103.373C204.209 101.263 205.492 99.2498 207.133 99.2498H252.084Z" fill="#022C42"/>
<path fill-rule="evenodd" clip-rule="evenodd" d="M11.8045 116.082C11.1601 116.001 10.5156 115.974 9.84427 116.028C4.07091 116.458 -0.144988 121.962 1.27821 127.87C1.6273 129.32 2.32547 130.663 3.29218 131.791C5.14502 133.912 7.69604 135.067 10.4082 135.093V140.491C10.4082 145.19 14.2213 149.03 18.9474 149.03H33.3405C38.0398 149.03 41.8797 145.217 41.8797 140.491V119.411C41.8797 117.585 40.4028 116.108 38.5768 116.108H11.8045V116.082ZM7.10566 129.536C6.03155 128.623 5.38708 127.334 5.27967 125.938C5.06485 123.038 7.26678 120.487 10.1669 120.272C10.2474 120.272 10.328 120.272 10.4086 120.272V130.825C9.20018 130.798 8.04551 130.342 7.10566 129.536Z" fill="#022C42"/>
<path fill-rule="evenodd" clip-rule="evenodd" d="M196.102 101.106C195.157 101.106 194.213 101.169 193.29 101.274C188.275 94.3492 182.525 88.4738 176.482 84.7387C160.744 75.0443 139.131 77.8142 118.966 85.2843C105.096 90.4043 87.5326 106.939 76.2644 118.648C61.5759 119.76 50.2867 129.749 50.9582 141.185C51.105 143.682 51.8185 146.032 52.9726 148.193L102.263 148.529C102.347 148.403 102.431 148.256 102.515 148.13L175.622 147.878C175.706 147.983 175.79 148.088 175.874 148.214L216.351 148.151C220.107 143.178 222.352 136.82 222.352 129.874C222.352 113.969 210.601 101.106 196.102 101.106Z" fill="#424A4A"/>
<path fill-rule="evenodd" clip-rule="evenodd" d="M177.929 85.6836C159.316 97.2246 142.613 97.4764 131.786 95.6088C121.756 93.8882 114.516 90.0272 112.166 88.5164C111.768 88.7472 111.369 88.978 110.949 89.2088C112.88 90.5308 120.434 94.8954 131.345 96.8049C134.912 97.4344 138.501 97.7492 142.11 97.7492C145.782 97.7492 149.454 97.4344 153.105 96.7839C161.939 95.2101 170.648 91.7479 179.041 86.481C178.663 86.1872 178.307 85.9354 177.929 85.6836Z" fill="white"/>
<path fill-rule="evenodd" clip-rule="evenodd" d="M175.999 105.515C178.958 101.36 182.609 99.0307 186.869 98.5691C188.841 98.3593 190.499 98.6321 191.485 98.8629C191.087 98.3593 190.688 97.8557 190.289 97.373C189.324 97.2471 188.128 97.1842 186.806 97.3311C183.595 97.6668 178.937 99.2196 174.971 104.801C174.761 105.074 174.845 105.473 175.118 105.683C175.223 105.766 175.349 105.808 175.475 105.808C175.685 105.787 175.874 105.704 175.999 105.515Z" fill="white"/>
<path fill-rule="evenodd" clip-rule="evenodd" d="M176.229 120.265C176.586 120.265 176.859 119.993 176.88 119.657C176.922 117.81 177.656 113.614 180.237 109.669C183.217 105.073 187.623 102.261 193.289 101.254C193.016 100.877 192.743 100.499 192.449 100.121C186.784 101.275 182.209 104.318 179.167 108.976C176.628 112.879 175.663 117.16 175.6 119.615C175.6 119.972 175.872 120.265 176.229 120.265Z" fill="white"/>
<path fill-rule="evenodd" clip-rule="evenodd" d="M87.3228 114.075C84.6579 113.97 82.0979 114.222 80.2093 114.62C79.5798 115.25 78.9503 115.879 78.3418 116.509C80.671 115.229 93.9326 113.634 99.4093 119.866C99.5352 120.013 99.7031 120.076 99.892 120.076C100.039 120.076 100.186 120.034 100.312 119.929C100.563 119.698 100.605 119.3 100.375 119.048C96.8284 114.998 90.6802 114.201 87.3228 114.075Z" fill="white"/>
<path fill-rule="evenodd" clip-rule="evenodd" d="M75.8425 118.692C75.8425 118.692 75.8635 118.692 75.8845 118.692C75.8635 118.671 75.8425 118.692 75.8425 118.692C75.8425 118.692 75.8215 118.692 75.8425 118.692Z" fill="white"/>
<path fill-rule="evenodd" clip-rule="evenodd" d="M98.1057 123.079C90.6984 117.476 81.4657 117.14 77.5627 117.308C77.122 117.77 76.6814 118.21 76.2617 118.651C78.507 118.462 89.2296 117.959 97.3502 124.086C97.4552 124.17 97.602 124.212 97.7279 124.212C97.9168 124.212 98.1057 124.128 98.2316 123.96C98.4414 123.687 98.3784 123.288 98.1057 123.079Z" fill="white"/>
<path fill-rule="evenodd" clip-rule="evenodd" d="M66.1074 148.004C66.1074 148.004 72.99 127.649 92.3579 131.343C111.726 135.036 138.228 142.967 138.228 142.967V148.066L66.1074 148.004Z" fill="white"/>
<path fill-rule="evenodd" clip-rule="evenodd" d="M78.994 132.178C75.7018 133.714 72.88 136.082 70.4962 139.053C68.9637 140.963 67.7035 143.006 66.6961 145.05C66.3431 145.766 66.0467 146.431 65.8046 147.03L65.702 147.288C65.6701 147.37 65.6405 147.447 65.6133 147.52L65.5319 147.743C65.5237 147.766 65.5171 147.785 65.5122 147.8C65.3742 148.208 65.6774 148.63 66.108 148.631L138.229 148.694C138.576 148.694 138.859 148.412 138.859 148.064V142.965C138.859 142.687 138.676 142.442 138.41 142.362L137.572 142.114L136.441 141.782C134.862 141.321 133.077 140.807 131.122 140.254C125.536 138.673 119.708 137.093 113.926 135.617C111.02 134.876 108.194 134.179 105.47 133.534L104.705 133.353C100.265 132.311 96.1662 131.425 92.4769 130.722C87.4574 129.765 82.966 130.324 78.994 132.178Z" fill="#EAA58B"/>
<path d="M78.994 132.178L79.0515 132.301L78.994 132.178ZM70.4962 139.053L70.6021 139.138L70.4962 139.053ZM66.6961 145.05L66.8179 145.11L66.6961 145.05ZM65.8046 147.03L65.6787 146.979L65.6784 146.98L65.8046 147.03ZM65.702 147.288L65.5758 147.238L65.5754 147.239L65.702 147.288ZM65.6133 147.52L65.4861 147.472L65.4857 147.473L65.6133 147.52ZM65.5319 147.743L65.4043 147.696L65.4038 147.698L65.5319 147.743ZM65.5122 147.8L65.3835 147.756L65.5122 147.8ZM66.108 148.631L66.1081 148.495L66.108 148.631ZM138.229 148.694L138.229 148.83L138.229 148.694ZM138.41 142.362L138.449 142.232L138.448 142.232L138.41 142.362ZM137.572 142.114L137.611 141.984L137.61 141.984L137.572 142.114ZM136.441 141.782L136.479 141.652L136.479 141.652L136.441 141.782ZM131.122 140.254L131.085 140.385L131.122 140.254ZM113.926 135.617L113.892 135.749L113.926 135.617ZM105.47 133.534L105.501 133.401L105.501 133.401L105.47 133.534ZM104.705 133.353L104.736 133.221L104.736 133.221L104.705 133.353ZM92.4769 130.722L92.4515 130.855L92.4769 130.722ZM78.9366 132.055C75.6224 133.602 72.7848 135.984 70.3903 138.968L70.6021 139.138C72.9752 136.181 75.7812 133.827 79.0515 132.301L78.9366 132.055ZM70.3903 138.968C68.851 140.886 67.5856 142.938 66.5743 144.99L66.8179 145.11C67.8214 143.074 69.0764 141.039 70.6021 139.138L70.3903 138.968ZM66.5743 144.99C66.2199 145.709 65.9221 146.377 65.6787 146.979L65.9304 147.081C66.1713 146.486 66.4663 145.823 66.8179 145.11L66.5743 144.99ZM65.6784 146.98L65.5758 147.238L65.8282 147.338L65.9308 147.08L65.6784 146.98ZM65.5754 147.239C65.5434 147.321 65.5136 147.399 65.4861 147.472L65.7405 147.568C65.7675 147.495 65.7968 147.419 65.8285 147.338L65.5754 147.239ZM65.4857 147.473L65.4043 147.696L65.6594 147.789L65.7408 147.567L65.4857 147.473ZM65.4038 147.698C65.3955 147.721 65.3887 147.741 65.3835 147.756L65.6408 147.843C65.6455 147.829 65.6519 147.811 65.6599 147.788L65.4038 147.698ZM65.3835 147.756C65.2159 148.252 65.5844 148.766 66.1078 148.767L66.1081 148.495C65.7704 148.495 65.5326 148.163 65.6408 147.843L65.3835 147.756ZM66.1078 148.767L138.229 148.83L138.229 148.558L66.1081 148.495L66.1078 148.767ZM138.229 148.83C138.651 148.83 138.994 148.487 138.994 148.064H138.723C138.723 148.337 138.502 148.558 138.229 148.558L138.229 148.83ZM138.994 148.064V142.965H138.723V148.064H138.994ZM138.994 142.965C138.994 142.627 138.773 142.329 138.449 142.232L138.371 142.492C138.58 142.555 138.723 142.747 138.723 142.965H138.994ZM138.448 142.232L137.611 141.984L137.533 142.244L138.371 142.492L138.448 142.232ZM137.61 141.984L136.479 141.652L136.402 141.912L137.534 142.244L137.61 141.984ZM136.479 141.652C134.9 141.19 133.114 140.677 131.159 140.123L131.085 140.385C133.04 140.938 134.824 141.451 136.402 141.912L136.479 141.652ZM131.159 140.123C125.572 138.542 119.742 136.961 113.959 135.486L113.892 135.749C119.673 137.224 125.5 138.804 131.085 140.385L131.159 140.123ZM113.959 135.486C111.053 134.744 108.226 134.047 105.501 133.401L105.439 133.666C108.162 134.311 110.987 135.007 113.892 135.749L113.959 135.486ZM105.501 133.401L104.736 133.221L104.674 133.486L105.439 133.666L105.501 133.401ZM104.736 133.221C100.294 132.178 96.1939 131.292 92.5023 130.589L92.4515 130.855C96.1384 131.558 100.235 132.443 104.674 133.486L104.736 133.221ZM92.5023 130.589C87.4572 129.627 82.9366 130.188 78.9366 132.055L79.0515 132.301C82.9955 130.461 87.4576 129.903 92.4515 130.855L92.5023 130.589Z" fill="black"/>
<path fill-rule="evenodd" clip-rule="evenodd" d="M193.54 71.5712C193.54 71.5712 191.824 71.3095 191.096 69.6702C190.369 68.0308 189.121 60.275 190.623 58.6435C192.145 57.0055 199.116 49.7056 200.705 49.3026C202.295 48.8996 207.312 62.252 193.54 71.5712Z" fill="#EAA58B"/>
<path fill-rule="evenodd" clip-rule="evenodd" d="M190.647 59.5379C190.237 47.4766 192.014 44.1688 193.86 44.7636C195.533 45.3036 195.047 53.2223 195.428 57.1345" fill="#EAA58B"/>
<path fill-rule="evenodd" clip-rule="evenodd" d="M190.802 47.2394L190.852 47.0633C191.523 44.7752 192.644 43.7124 194.054 44.1667C194.885 44.4349 195.282 45.4155 195.528 47.0989L195.561 47.3368C195.699 48.3825 195.775 49.6315 195.831 51.4649L195.912 54.4267C195.953 55.8246 195.984 56.3439 196.056 57.0756C196.089 57.4216 195.836 57.7295 195.49 57.7632C195.144 57.7969 194.836 57.5437 194.803 57.1977L194.777 56.9247C194.723 56.3155 194.694 55.775 194.658 54.6325L194.577 51.6484C194.517 49.6383 194.437 48.3409 194.282 47.2808L194.258 47.1211C194.083 46.0265 193.83 45.4174 193.668 45.3649C193.101 45.1825 192.516 45.7616 192.016 47.5743L191.971 47.7404C191.349 50.1294 191.092 54.047 191.278 59.5187C191.289 59.8661 191.017 60.1574 190.67 60.1692C190.322 60.181 190.031 59.9089 190.019 59.5614L190.007 59.1698C189.838 53.6576 190.123 49.7008 190.802 47.2394Z" fill="#CA7358"/>
<path fill-rule="evenodd" clip-rule="evenodd" d="M203.793 52.6485C204.539 49.5633 207.2 48.8585 207.254 53.67C207.296 58.3753 208.109 64.2425 206.426 67.5644C204.742 70.8863 204.204 72.2947 204.204 72.2947C204.204 72.2947 205.227 92.5372 207.394 108.948C210.534 132.675 204.179 139.49 196.119 139.247C188.065 139.025 183.452 129.313 186.966 106.459C190.474 83.5851 191.985 70.4405 191.985 70.4405" fill="#EAA58B"/>
<path fill-rule="evenodd" clip-rule="evenodd" d="M203.181 52.5021C203.605 50.7508 204.642 49.5101 205.816 49.5708C207.107 49.6377 207.836 51.1279 207.882 53.5679L207.889 54.0858C207.9 54.7111 207.924 55.3929 207.963 56.321L208.038 58.0373C208.247 63.026 208.065 65.6751 207.022 67.782L206.757 68.3062C206.209 69.3985 205.76 70.3343 205.4 71.1212L205.258 71.4348C205.109 71.7654 204.989 72.042 204.896 72.2665L204.84 72.401L204.911 73.7002L204.979 74.8789C205.046 76.0277 205.124 77.2847 205.212 78.6341C205.53 83.5179 205.915 88.6106 206.369 93.6558L206.469 94.751C206.687 97.1138 206.915 99.41 207.155 101.624L207.253 102.519C207.466 104.445 207.686 106.294 207.913 108.059L208.019 108.867C209.517 120.187 208.947 128.26 206.525 133.358C204.359 137.918 200.742 140.018 196.101 139.878C191.645 139.755 188.35 136.921 186.606 131.536C184.79 125.93 184.643 117.611 186.293 106.697L186.62 104.559C187.94 95.8866 189.056 88.0762 189.979 81.2L190.336 78.5176C190.554 76.856 190.749 75.3386 190.921 73.9688L191.189 71.8051L191.36 70.3701C191.4 70.0247 191.712 69.7769 192.057 69.8166C192.39 69.8549 192.633 70.1465 192.614 70.477L192.593 70.6684L192.406 72.2205L192.144 74.3324C191.943 75.9274 191.712 77.7174 191.45 79.6972L191.179 81.7241C190.2 88.9975 189.008 97.3029 187.588 106.556C184.36 127.548 187.872 138.392 196.138 138.62C200.291 138.744 203.441 136.916 205.388 132.818C207.663 128.029 208.228 120.289 206.814 109.364L206.77 109.032C206.469 106.748 206.18 104.318 205.903 101.76C205.626 99.1969 205.363 96.5254 205.115 93.7687C204.685 88.9932 204.317 84.1762 204.009 79.5334L203.887 77.6542C203.832 76.7863 203.782 75.9615 203.736 75.1843L203.646 73.6343L203.576 72.328C203.571 72.2407 203.585 72.1534 203.616 72.0717L203.666 71.9455L203.734 71.782C203.832 71.5467 203.956 71.2596 204.11 70.9187L204.305 70.4891C204.713 69.6003 205.229 68.5344 205.864 67.2813L205.925 67.1583C206.77 65.4011 206.961 63.0237 206.805 58.7117L206.685 55.8855C206.654 55.1082 206.636 54.506 206.628 53.9343L206.625 53.6786C206.603 51.7669 206.165 50.8496 205.751 50.8282C205.337 50.8068 204.703 51.5639 204.405 52.798C204.323 53.1359 203.983 53.3436 203.645 53.262C203.307 53.1803 203.1 52.8401 203.181 52.5021Z" fill="#EAA58B"/>
<path fill-rule="evenodd" clip-rule="evenodd" d="M192.275 70.7202C190.521 70.2059 188.883 64.5167 186.472 62.5827C183.489 60.1722 180.507 57.629 184.356 56.9156C187.66 56.2899 189.561 58.7631 190.622 59.523" fill="#EAA58B"/>
<path fill-rule="evenodd" clip-rule="evenodd" d="M182.317 59.4477C181.362 57.9095 182.05 56.7056 184.239 56.2999C186.074 55.9524 187.633 56.4126 189.116 57.4712L189.186 57.5219C189.734 57.9285 190.842 58.9008 190.981 59.0082L190.989 59.0141C191.271 59.2165 191.336 59.6098 191.134 59.8924C190.932 60.1751 190.538 60.2402 190.256 60.0377L190.226 60.0153C189.974 59.818 188.823 58.8087 188.385 58.4961C187.16 57.6219 185.935 57.2602 184.471 57.5374C183.706 57.6792 183.301 57.8847 183.19 58.0782C183.125 58.1926 183.157 58.399 183.358 58.7367L183.387 58.7835C183.865 59.5531 184.811 60.4299 186.766 62.0135L186.866 62.0946C187.778 62.826 188.551 63.9334 189.57 65.7747L189.778 66.1552L190.422 67.3469C191.411 69.1621 191.984 69.9606 192.429 70.1118L192.452 70.119C192.785 70.2168 192.977 70.5666 192.879 70.9002C192.781 71.2338 192.431 71.425 192.098 71.3271C191.184 71.0591 190.557 70.2205 189.377 68.06L188.636 66.6908L188.532 66.4997C187.579 64.7661 186.87 63.7315 186.125 63.1149L185.57 62.6631C183.759 61.1817 182.861 60.3235 182.317 59.4477Z" fill="#CA7358"/>
<path fill-rule="evenodd" clip-rule="evenodd" d="M203.463 57.914C203.463 57.914 204.074 50.1757 203.987 46.6976C203.91 42.9078 200.115 43.5819 199.963 49.1215" fill="#EAA58B"/>
<path fill-rule="evenodd" clip-rule="evenodd" d="M201.773 43.8257C203.298 43.2215 204.547 44.4933 204.617 46.6102L204.618 46.6819C204.645 47.745 204.61 49.2453 204.525 51.082L204.51 51.4096C204.497 51.6621 204.484 51.9195 204.471 52.1813C204.41 53.3255 204.337 54.5127 204.257 55.689L204.19 56.6485L204.118 57.6337L204.092 57.9634C204.065 58.31 203.762 58.5688 203.415 58.5414C203.081 58.515 202.829 58.2322 202.836 57.9013L202.934 56.5587C202.945 56.4116 202.956 56.2601 202.967 56.1046C203.048 54.9384 203.123 53.7537 203.187 52.6049L203.227 51.8566L203.252 51.3489C203.344 49.4454 203.385 47.8895 203.362 46.8023L203.36 46.7103C203.331 45.3143 202.807 44.7702 202.237 44.9962C201.392 45.3308 200.657 46.8528 200.594 49.1386C200.584 49.4861 200.295 49.7601 199.947 49.7506C199.6 49.7411 199.326 49.4516 199.335 49.1041C199.41 46.3683 200.371 44.3812 201.773 43.8257Z" fill="#CA7358"/>
<path fill-rule="evenodd" clip-rule="evenodd" d="M199.568 57.1878C199.568 57.1878 201.057 42.8817 198.22 42.5628C195.635 42.2729 195.394 47.4002 195.408 57.1418" fill="#EAA58B"/>
<path fill-rule="evenodd" clip-rule="evenodd" d="M195.25 45.8003C195.701 43.0896 196.616 41.7492 198.292 41.9371C200.015 42.1308 200.567 44.8159 200.589 49.4847C200.593 50.2776 200.578 51.1114 200.548 51.9755C200.508 53.0911 200.444 54.2084 200.365 55.2852L200.334 55.6871C200.305 56.0604 200.275 56.4043 200.247 56.7138L200.196 57.2528C200.16 57.5986 199.85 57.8498 199.504 57.8138C199.159 57.7778 198.907 57.4683 198.943 57.1225L198.983 56.712L199.014 56.3649C199.036 56.124 199.057 55.8645 199.079 55.5887C199.171 54.4061 199.246 53.1667 199.289 51.9311C199.319 51.083 199.334 50.2658 199.33 49.4907L199.327 49.1468C199.281 45.5572 198.79 43.26 198.151 43.1883C197.357 43.0992 196.811 43.9363 196.463 46.1867L196.424 46.4487C196.122 48.5798 196.031 51.5779 196.039 57.1408C196.039 57.4884 195.758 57.7707 195.41 57.7712C195.062 57.7717 194.78 57.4902 194.78 57.1426L194.78 55.9518C194.787 50.9104 194.894 48.1339 195.208 46.0613L195.25 45.8003Z" fill="#CA7358"/>
<path fill-rule="evenodd" clip-rule="evenodd" d="M134.201 70.556L135.02 85.3915C135.02 85.3915 133.635 93.4072 144.756 91.9174C155.835 90.4485 154.471 83.8806 154.471 83.8806L151.051 65.457L134.201 70.556Z" fill="#EAA58B"/>
<path fill-rule="evenodd" clip-rule="evenodd" d="M150.869 64.8514L134.019 69.9505C133.742 70.0346 133.557 70.2978 133.573 70.5877L134.388 85.3578L134.379 85.4251C134.375 85.4619 134.37 85.5033 134.366 85.5493C134.263 86.6152 134.383 87.8305 134.906 89.0007C136.184 91.8583 139.368 93.2712 144.84 92.5382C149.306 91.9461 152.211 90.4981 153.805 88.4239C154.963 86.9165 155.277 85.3315 155.124 83.9874L155.113 83.9021C155.106 83.8498 155.099 83.8066 155.093 83.773L151.671 65.3391C151.602 64.9703 151.228 64.7428 150.869 64.8514ZM134.858 71.0113L150.561 66.2591L153.859 84.024C153.863 84.0496 153.868 84.0836 153.873 84.129C153.992 85.1747 153.742 86.4387 152.806 87.6562C151.435 89.4411 148.833 90.738 144.674 91.2894C139.715 91.9538 137.085 90.7867 136.056 88.4858C135.635 87.545 135.535 86.5374 135.619 85.67L135.629 85.5814C135.634 85.5395 135.638 85.5103 135.641 85.4947L135.647 85.4477C135.65 85.4162 135.651 85.3845 135.649 85.3529L134.858 71.0113Z" fill="#2E186A"/>
<path fill-rule="evenodd" clip-rule="evenodd" d="M155.311 46.7393C155.311 46.7393 163.914 43.5078 164.25 52.4678C164.585 61.4278 155.311 59.0987 155.311 59.0987" fill="white"/>
<path fill-rule="evenodd" clip-rule="evenodd" d="M156.142 45.8414C157.385 45.5476 158.668 45.4423 159.885 45.6407C162.85 46.1239 164.722 48.2933 164.877 52.4427C165.038 56.7333 163.128 59.0818 159.918 59.7843C158.611 60.0703 157.235 60.0535 155.934 59.8557L155.731 59.8232C155.475 59.7801 155.279 59.7386 155.156 59.7077C154.819 59.623 154.614 59.281 154.699 58.9438C154.78 58.6186 155.101 58.4167 155.427 58.4786L155.563 58.5095L155.628 58.5232C155.773 58.5529 155.939 58.5829 156.123 58.611C157.285 58.7876 158.515 58.8026 159.649 58.5544C162.276 57.9795 163.757 56.1584 163.619 52.4899L163.61 52.2766C163.428 48.8667 162.002 47.2614 159.683 46.8833C158.652 46.7154 157.527 46.8078 156.432 47.0667C156.22 47.1168 156.024 47.1698 155.848 47.2231L155.762 47.2497C155.698 47.2699 155.645 47.2873 155.604 47.3011L155.531 47.3271C155.205 47.4493 154.842 47.2846 154.72 46.9591C154.598 46.6337 154.763 46.2707 155.088 46.1485L155.169 46.1189C155.388 46.0418 155.721 45.9411 156.142 45.8414Z" fill="#2E186A"/>
<path fill-rule="evenodd" clip-rule="evenodd" d="M139.176 75.0641C129.859 75.0641 122.305 67.51 122.305 58.1933V43.4628C122.305 37.5035 127.152 32.6562 133.111 32.6562H147.884C152.395 32.6562 156.067 36.3284 156.067 40.8399V58.1723C156.067 67.489 148.513 75.0641 139.176 75.0641Z" fill="#EAA58B"/>
<path fill-rule="evenodd" clip-rule="evenodd" d="M147.882 32.0273H133.11C126.803 32.0273 121.674 37.1564 121.674 43.4634V58.1939C121.674 67.8583 129.51 75.6942 139.174 75.6942L139.459 75.6919C149.02 75.5368 156.695 67.7364 156.695 58.1729V40.8405C156.695 35.9813 152.741 32.0273 147.882 32.0273ZM133.11 33.2872H147.883C152.046 33.2872 155.437 36.6775 155.437 40.8413V58.1737C155.437 67.0498 148.312 74.2899 139.444 74.4338L139.169 74.436C130.205 74.436 122.933 67.1638 122.933 58.1947V43.4642C122.933 37.8525 127.498 33.2872 133.11 33.2872Z" fill="#2E186A"/>
<path fill-rule="evenodd" clip-rule="evenodd" d="M159.991 66.1687C159.97 60.4402 159.173 56.2644 158.963 55.2152C158.963 55.1523 158.984 55.0684 158.984 55.0054C158.984 53.6834 157.913 52.6133 156.592 52.6133V55.0054L156.654 57.3975C157.158 57.3766 157.62 57.2087 157.997 56.9359C158.774 61.7621 160.306 76.1569 153.843 88.3903C152.668 90.6356 151.555 92.713 150.464 94.7064C144.379 106.059 140.35 113.571 140.455 120.264C140.455 120.6 140.749 120.894 141.085 120.894C141.441 120.894 141.714 120.6 141.714 120.264C141.63 113.885 145.596 106.499 151.576 95.3149C152.647 93.3005 153.759 91.2441 154.955 88.9779C159.173 80.9831 160.033 72.17 159.991 66.1687Z" fill="#FEC80A"/>
<path fill-rule="evenodd" clip-rule="evenodd" d="M120.667 57.6687C120.96 57.8366 121.275 57.9415 121.632 57.9625V53.1992C120.52 53.3041 119.639 54.1435 119.492 55.2346C119.429 55.3395 119.387 55.4654 119.387 55.5913C119.387 56.5566 119.387 79.1559 126.101 89.354C132.963 99.8038 135.082 105.763 135.565 115.877C135.586 116.213 135.859 116.486 136.195 116.486H136.216C136.572 116.465 136.824 116.171 136.824 115.835C136.341 105.427 134.18 99.3422 127.151 88.6615C121.779 80.5199 120.835 63.5651 120.667 57.6687Z" fill="#FEC80A"/>
<path fill-rule="evenodd" clip-rule="evenodd" d="M134.002 47.4298C134.337 47.4241 134.615 47.6815 134.64 48.0115L134.642 48.0485L134.868 61.3697L134.878 61.3735C134.923 61.3883 134.974 61.3851 135.043 61.3595L135.074 61.3471C135.398 61.2087 135.824 60.7403 136.314 59.844C136.48 59.5389 136.863 59.4266 137.168 59.5933C137.473 59.7599 137.585 60.1423 137.419 60.4475C136.268 62.5536 135.031 63.083 134.042 62.3359C133.896 62.225 133.792 62.1108 133.726 62.0161C133.664 61.9264 133.626 61.8222 133.616 61.7139L133.614 61.6673L133.383 48.0699C133.377 47.7223 133.654 47.4357 134.002 47.4298Z" fill="#2E186A"/>
<path fill-rule="evenodd" clip-rule="evenodd" d="M140.634 63.3531C140.985 63.1233 141.459 63.295 141.581 63.6964L141.596 63.7484C141.611 63.8065 141.628 63.883 141.645 63.9759C141.774 64.7136 141.704 65.5297 141.282 66.3112C140.579 67.6132 139.06 68.4621 136.613 68.703C136.267 68.7371 135.959 68.4843 135.925 68.1383C135.891 67.7923 136.144 67.4842 136.49 67.4501C138.55 67.2472 139.69 66.6104 140.174 65.7131C140.294 65.4919 140.369 65.2625 140.409 65.0335L140.422 64.9446L140.403 64.9551C137.667 66.4287 134.933 66.527 133.579 65.0115L133.533 64.9598C133.308 64.6953 133.339 64.298 133.604 64.0724C133.868 63.8468 134.266 63.8783 134.491 64.1428C135.465 65.2847 138.043 65.0488 140.634 63.3531Z" fill="#2E186A"/>
<path fill-rule="evenodd" clip-rule="evenodd" d="M139.733 42.5184C141.107 41.4736 142.738 41.362 144.497 42.7611C144.769 42.9776 144.814 43.3736 144.598 43.6457C144.381 43.9178 143.985 43.9629 143.713 43.7464C142.44 42.734 141.44 42.8025 140.496 43.5205C140.368 43.6175 140.254 43.7169 140.131 43.835L139.9 44.0634C139.868 44.0946 139.84 44.1197 139.811 44.1436C139.729 44.2094 139.658 44.2536 139.536 44.2842C139.199 44.3685 138.857 44.1634 138.773 43.8261C138.71 43.5732 138.809 43.3177 139.005 43.1702L139.033 43.1506L139.17 43.0136C139.359 42.8269 139.53 42.673 139.733 42.5184Z" fill="#2E186A"/>
<path fill-rule="evenodd" clip-rule="evenodd" d="M144.106 53.6846C144.685 53.6846 145.155 52.9612 145.155 52.0689C145.155 51.1765 144.685 50.4531 144.106 50.4531C143.526 50.4531 143.057 51.1765 143.057 52.0689C143.057 52.9612 143.526 53.6846 144.106 53.6846Z" fill="#2E186A"/>
<path fill-rule="evenodd" clip-rule="evenodd" d="M128.85 54.083C129.429 54.083 129.899 53.3596 129.899 52.4673C129.899 51.575 129.429 50.8516 128.85 50.8516C128.271 50.8516 127.801 51.575 127.801 52.4673C127.801 53.3596 128.271 54.083 128.85 54.083Z" fill="#2E186A"/>
<path fill-rule="evenodd" clip-rule="evenodd" d="M125.925 42.3227C127.496 41.0692 129.219 41.0102 130.732 42.954C130.946 43.2283 130.897 43.6238 130.622 43.8374C130.348 44.051 129.953 44.0018 129.739 43.7274C128.717 42.4153 127.788 42.4471 126.71 43.3069C126.564 43.4232 126.432 43.542 126.287 43.6845L126.039 43.9314C126.006 43.9639 125.978 43.9896 125.949 44.0135C125.863 44.0851 125.796 44.129 125.667 44.1613C125.33 44.2456 124.988 44.0405 124.904 43.7032C124.84 43.4503 124.94 43.1948 125.136 43.0473L125.16 43.0299L125.322 42.8675C125.529 42.6609 125.712 42.4925 125.925 42.3227Z" fill="#2E186A"/>
<path fill-rule="evenodd" clip-rule="evenodd" d="M143.391 28.9866C139.299 29.0496 136.194 29.2384 134.347 29.5951C119.323 33.0155 121.757 44.1368 121.757 44.1368C121.757 44.1368 129.101 45.5427 135.082 36.6876C135.082 36.6876 143.286 43.3814 155.436 46.0883C155.625 46.0463 155.855 45.9833 156.065 45.9204V46.5289C156.779 46.3401 157.933 46.1302 159.129 46.2142C159.003 41.8286 158.206 36.2889 154.596 32.7217C152.036 30.1827 148.259 28.9237 143.391 28.9866Z" fill="#2E186A"/>
<path fill-rule="evenodd" clip-rule="evenodd" d="M134.68 28.2389C137.074 27.9064 140.842 27.6879 144.09 27.7084C150.575 27.777 154.91 30.1667 157.478 34.3814C158.49 36.0406 159.195 37.929 159.67 40.0476C160.02 41.6116 160.208 43.0448 160.385 45.0701C160.415 45.4164 160.159 45.7217 159.812 45.7518C159.466 45.782 159.161 45.5257 159.131 45.1793L159.097 44.8027C158.706 40.575 158.034 37.7128 156.403 35.0366C154.064 31.1983 150.134 29.0314 144.079 28.9673L143.709 28.966C140.609 28.964 137.094 29.1747 134.853 29.4859C134.509 29.5338 134.191 29.2934 134.143 28.949C134.095 28.6047 134.335 28.2867 134.68 28.2389Z" fill="white"/>
<path fill-rule="evenodd" clip-rule="evenodd" d="M182.819 19.8594C177.636 5.04496 162.947 -3.28553 150 1.24692C139.362 4.96102 133.213 16.2292 134.221 28.3368C136.172 28.001 139.236 27.7912 143.39 27.7282C148.615 27.6653 152.686 29.0292 155.498 31.82C159.485 35.765 160.303 41.7453 160.408 46.4036C162.339 46.9282 164.122 48.502 164.269 52.4679C164.29 52.8666 163.933 55.9512 164.017 55.9302C164.017 56.9164 164.227 58.1545 164.962 59.3715C166.409 61.7007 169.347 63.1486 173.712 63.6522C173.733 63.6522 173.754 63.6522 173.796 63.6522C174.11 63.6522 174.383 63.4213 174.425 63.1066C174.467 62.7709 174.215 62.4561 173.88 62.4141C169.935 61.9525 167.291 60.7145 166.053 58.721C165.549 57.9236 165.36 57.1053 165.297 56.3918C166.367 57.6509 168.235 59.0148 171.194 59.0148C171.907 59.0148 172.684 58.9309 173.523 58.763C173.859 58.7 174.089 58.3643 174.005 58.0286C173.943 57.6928 173.607 57.462 173.271 57.5459C169.452 58.3433 167.333 56.8954 166.221 55.5945C167.081 55.4056 167.92 55.1748 168.76 54.881C181.685 50.3276 187.981 34.6528 182.819 19.8594Z" fill="#2E186A"/>
<path fill-rule="evenodd" clip-rule="evenodd" d="M145.007 44.1602C140.418 44.1602 136.697 47.8804 136.697 52.4697C136.697 57.0589 140.418 60.7792 145.007 60.7792C149.596 60.7792 153.316 57.0589 153.316 52.4697C153.316 47.8804 149.596 44.1602 145.007 44.1602ZM145.007 45.42C148.901 45.42 152.057 48.5766 152.057 52.4705C152.057 56.3644 148.901 59.521 145.007 59.521C141.113 59.521 137.956 56.3644 137.956 52.4705C137.956 48.5766 141.113 45.42 145.007 45.42Z" fill="#2E186A"/>
<path fill-rule="evenodd" clip-rule="evenodd" d="M137.159 51.6484C137.506 51.6484 137.788 51.9303 137.788 52.2779C137.788 52.6132 137.526 52.8872 137.196 52.9064L137.159 52.9075H132.165C131.817 52.9075 131.535 52.6256 131.535 52.2779C131.535 51.9427 131.797 51.6687 132.128 51.6495L132.165 51.6484H137.159Z" fill="#2E186A"/>
<path fill-rule="evenodd" clip-rule="evenodd" d="M155.755 45.7535C156.058 45.5824 156.442 45.6891 156.613 45.9917C156.778 46.2832 156.685 46.6501 156.408 46.8297L156.375 46.8495L152.031 49.3046C151.729 49.4757 151.344 49.369 151.173 49.0663C151.009 48.7749 151.101 48.408 151.379 48.2284L151.412 48.2085L155.755 45.7535Z" fill="#2E186A"/>
<path fill-rule="evenodd" clip-rule="evenodd" d="M124.231 44.1602C119.642 44.1602 115.922 47.8804 115.922 52.4697C115.922 57.0589 119.642 60.7792 124.231 60.7792C128.821 60.7792 132.541 57.0589 132.541 52.4697C132.541 47.8804 128.821 44.1602 124.231 44.1602ZM124.232 45.42C128.125 45.42 131.282 48.5766 131.282 52.4705C131.282 56.3644 128.125 59.521 124.232 59.521C120.338 59.521 117.181 56.3644 117.181 52.4705C117.181 48.5766 120.338 45.42 124.232 45.42Z" fill="#2E186A"/>
<path fill-rule="evenodd" clip-rule="evenodd" d="M177.052 140.133H172.687L170.547 108.384C170.4 106.16 168.47 104.355 166.245 104.355H105.414C103.19 104.355 101.49 106.16 101.658 108.384L104.029 143.532C104.176 145.756 106.106 147.561 108.331 147.561L177.031 147.477C178.29 147.477 179.297 146.449 179.297 145.211V142.42C179.318 141.161 178.311 140.133 177.052 140.133Z" fill="#30242A"/>
<path fill-rule="evenodd" clip-rule="evenodd" d="M256.978 147.562C257.325 147.562 257.607 147.844 257.607 148.192C257.607 148.527 257.345 148.801 257.015 148.82L256.978 148.822H1.16662C0.81895 148.822 0.537109 148.54 0.537109 148.192C0.537109 147.857 0.799178 147.583 1.12963 147.564L1.16662 147.562H256.978Z" fill="#2E186A"/>
<path d="M128.325 121.958C129.873 120.029 136.894 125.124 137.412 125.543C137.68 125.124 141.337 120.032 144.017 121.958C146.344 123.63 141.23 131.098 139.87 133.002C139.813 133.06 139.743 133.106 139.665 133.138C139.587 133.169 139.503 133.185 139.418 133.185C139.333 133.185 139.249 133.169 139.171 133.138C139.093 133.106 139.023 133.06 138.966 133.002C136.485 131.098 126.981 123.63 128.325 121.958Z" fill="#A15842"/>
<path d="M136.832 123.25C137.419 123.084 137.441 121.623 136.882 119.988C136.323 118.352 135.395 117.161 134.809 117.328C134.223 117.494 134.201 118.955 134.76 120.59C135.318 122.226 136.246 123.417 136.832 123.25Z" fill="#A15842"/>
</svg>
