<svg width="30" height="30" viewBox="0 0 30 30" fill="none" xmlns="http://www.w3.org/2000/svg">
<path d="M6 16.1121C6 23.2232 11.2889 25.001 13.9333 25.001C15.2874 25.001 17.2481 24.6441 19 23.6107M21.7207 21.001C22.5021 19.7546 23 18.153 23 16.1121C23 11.5852 20.1653 8.35224 17.6023 6.49865C16.4438 5.66083 15 6.58097 15 8.01069V8.33431C15 9.77617 14.3938 12.408 12.7093 13.5027C11.8493 14.0616 10.9205 13.2251 10.816 12.2048L10.7302 11.367C10.6304 10.393 9.63841 9.80167 8.85996 10.3955C8.18794 10.9082 7.50139 11.6058 6.96944 12.501" stroke="#DADADA" stroke-width="1.5" stroke-linecap="round"/>
<path d="M11 21.4435C11 24.2879 13.4889 24.999 14.7333 24.999C15.8222 24.999 18 24.2879 18 21.4435C18 20.3425 17.4107 19.5992 16.8404 19.1703C16.4424 18.871 15.8828 19.1398 15.7459 19.6186C15.5675 20.2428 14.9228 20.635 14.5944 20.075C14.2941 19.5628 14.2941 18.7947 14.2941 18.3324C14.2941 17.6959 13.6539 17.2837 13.1389 17.6579C12.1065 18.4081 11 19.6805 11 21.4435Z" stroke="#DADADA" stroke-width="1.5"/>
</svg>
