<svg width="25" height="24" viewBox="0 0 25 24" fill="none" xmlns="http://www.w3.org/2000/svg">
<path d="M12.0996 22.75C6.16961 22.75 1.34961 17.93 1.34961 12C1.34961 6.07 6.16961 1.25 12.0996 1.25C18.0296 1.25 22.8496 6.07 22.8496 12C22.8496 17.93 18.0296 22.75 12.0996 22.75ZM12.0996 2.75C6.99961 2.75 2.84961 6.9 2.84961 12C2.84961 17.1 6.99961 21.25 12.0996 21.25C17.1996 21.25 21.3496 17.1 21.3496 12C21.3496 6.9 17.1996 2.75 12.0996 2.75Z" fill="#DADADA"/>
<path d="M9.09984 21.75H8.09984C7.68984 21.75 7.34984 21.41 7.34984 21C7.34984 20.59 7.66984 20.26 8.07984 20.25C6.50984 14.89 6.50984 9.11 8.07984 3.75C7.66984 3.74 7.34984 3.41 7.34984 3C7.34984 2.59 7.68984 2.25 8.09984 2.25H9.09984C9.33984 2.25 9.56984 2.37 9.70984 2.56C9.84984 2.76 9.88984 3.01 9.80984 3.24C7.92984 8.89 7.92984 15.11 9.80984 20.77C9.88984 21 9.84984 21.25 9.70984 21.45C9.56984 21.63 9.33984 21.75 9.09984 21.75Z" fill="#DADADA"/>
<path d="M15.1 21.7507C15.02 21.7507 14.94 21.7407 14.86 21.7107C14.47 21.5807 14.25 21.1507 14.39 20.7607C16.27 15.1107 16.27 8.89067 14.39 3.23067C14.26 2.84067 14.47 2.41067 14.86 2.28067C15.26 2.15067 15.68 2.36067 15.81 2.75067C17.8 8.71067 17.8 15.2707 15.81 21.2207C15.71 21.5507 15.41 21.7507 15.1 21.7507Z" fill="#DADADA"/>
<path d="M12.0996 17.2008C9.30961 17.2008 6.52961 16.8108 3.84961 16.0208C3.83961 16.4208 3.50961 16.7508 3.09961 16.7508C2.68961 16.7508 2.34961 16.4108 2.34961 16.0008V15.0008C2.34961 14.7608 2.46961 14.5308 2.65961 14.3908C2.85961 14.2508 3.10961 14.2108 3.33961 14.2908C8.98961 16.1708 15.2196 16.1708 20.8696 14.2908C21.0996 14.2108 21.3496 14.2508 21.5496 14.3908C21.7496 14.5308 21.8596 14.7608 21.8596 15.0008V16.0008C21.8596 16.4108 21.5196 16.7508 21.1096 16.7508C20.6996 16.7508 20.3696 16.4308 20.3596 16.0208C17.6696 16.8108 14.8896 17.2008 12.0996 17.2008Z" fill="#DADADA"/>
<path d="M21.0994 9.74938C21.0194 9.74938 20.9394 9.73938 20.8594 9.70938C15.2094 7.82938 8.97939 7.82938 3.32939 9.70938C2.92939 9.83938 2.50939 9.62937 2.37939 9.23937C2.25939 8.83937 2.46939 8.41938 2.85939 8.28938C8.81939 6.29938 15.3794 6.29938 21.3294 8.28938C21.7194 8.41938 21.9394 8.84937 21.7994 9.23937C21.7094 9.54937 21.4094 9.74938 21.0994 9.74938Z" fill="#DADADA"/>
</svg>
