<svg width="104" height="100" viewBox="0 0 104 100" fill="none" xmlns="http://www.w3.org/2000/svg">
<rect width="103.95" height="99.75" fill="#DABDFF"/>
<path d="M64.9038 28H55.24C54.34 28 53.4738 28.3375 52.81 28.945L41.7512 39.07C41.74 39.0812 41.7288 39.1038 41.7175 39.115C39.85 40.87 39.8837 43.6712 41.4812 45.415C42.91 46.9788 45.9138 47.395 47.7925 45.7188C47.8038 45.7075 47.8263 45.7075 47.8375 45.6962L56.8263 37.4613C57.5575 36.7975 58.705 36.8425 59.3688 37.5738C60.0438 38.305 59.9875 39.4412 59.2562 40.1163L56.32 42.805L72.7 56.1025C73.0262 56.3725 73.3187 56.665 73.5887 56.9688V35.2L67.4463 29.0575C66.7825 28.3825 65.86 28 64.9038 28ZM77.2 35.2225V60.4113C77.2 62.4025 78.8088 64.0112 80.8 64.0112H88V35.2225H77.2ZM82.6 60.4113C81.61 60.4113 80.8 59.6012 80.8 58.6112C80.8 57.6212 81.61 56.8113 82.6 56.8113C83.59 56.8113 84.4 57.6212 84.4 58.6112C84.4 59.6012 83.59 60.4113 82.6 60.4113ZM16 64H23.2C25.1912 64 26.8 62.3913 26.8 60.4V35.2225H16V64ZM21.4 56.8113C22.39 56.8113 23.2 57.6212 23.2 58.6112C23.2 59.6012 22.39 60.4113 21.4 60.4113C20.41 60.4113 19.6 59.6012 19.6 58.6112C19.6 57.61 20.41 56.8113 21.4 56.8113ZM70.4387 58.9038L53.6425 45.2687L50.2675 48.3625C46.9262 51.4112 41.8075 51.1188 38.8263 47.8675C35.8 44.56 36.0362 39.4412 39.3212 36.4262L48.5238 28H39.0962C38.14 28 37.2288 28.3825 36.5538 29.0575L30.4 35.2V60.3887H32.4587L42.64 69.6025C45.7225 72.1112 50.2562 71.6388 52.765 68.5563L52.7875 68.5337L54.8012 70.2775C56.59 71.74 59.2337 71.4588 60.685 69.67L64.2175 65.3275L64.825 65.8225C66.3662 67.0713 68.6387 66.8462 69.8875 65.2938L70.9562 63.9775C72.2163 62.425 71.98 60.1638 70.4387 58.9038Z" fill="#A00FE4"/>
</svg>
