<svg width="31" height="30" viewBox="0 0 31 30" fill="none" xmlns="http://www.w3.org/2000/svg">
<path d="M18.7626 11.6314C18.9325 12.0091 19.3765 12.1776 19.7542 12.0076C20.132 11.8377 20.3004 11.3937 20.1305 11.0159L18.7626 11.6314ZM22.451 18.0015L21.767 18.3092L22.451 18.0015ZM7.74825 18.0015L7.06429 17.6938L7.74825 18.0015ZM10.7527 11.3236L11.4367 11.6314L10.7527 11.3236ZM17.8544 23.4857L17.5408 24.167L17.8544 23.4857ZM16.083 22.7743L15.9152 23.5053H15.9152L16.083 22.7743ZM12.3448 23.4857L12.6585 24.167L12.3448 23.4857ZM14.1162 22.7743L14.284 23.5053H14.284L14.1162 22.7743ZM6.10831 22.6471L5.36271 22.7281H5.36271L6.10831 22.6471ZM8.05895 24.9744L8.21668 24.2411L8.05895 24.9744ZM24.0909 22.6471L23.3453 22.566L23.3453 22.566L24.0909 22.6471ZM22.1403 24.9744L21.9825 24.2411L22.1403 24.9744ZM22.0095 15.1923C21.8395 14.8145 21.3955 14.6461 21.0178 14.816C20.64 14.986 20.4716 15.43 20.6415 15.8077L22.0095 15.1923ZM8.43222 18.3092L11.4367 11.6314L10.0687 11.0159L7.06429 17.6938L8.43222 18.3092ZM18.168 22.8044C17.3166 22.4125 16.795 22.1683 16.2509 22.0434L15.9152 23.5053C16.273 23.5875 16.6317 23.7485 17.5408 24.167L18.168 22.8044ZM12.6585 24.167C13.5675 23.7485 13.9262 23.5875 14.284 23.5053L13.9483 22.0434C13.4042 22.1683 12.8827 22.4125 12.0312 22.8044L12.6585 24.167ZM16.2509 22.0434C15.4917 21.869 14.7076 21.869 13.9483 22.0434L14.284 23.5053C14.8223 23.3817 15.3769 23.3817 15.9152 23.5053L16.2509 22.0434ZM7.06429 17.6938C6.49287 18.9639 6.04863 19.9503 5.76104 20.7194C5.48164 21.4666 5.29814 22.1344 5.36271 22.7281L6.85392 22.566C6.83087 22.354 6.89148 21.9789 7.16603 21.2448C7.43239 20.5324 7.85193 19.599 8.43222 18.3092L7.06429 17.6938ZM12.0312 22.8044C10.83 23.3574 9.96858 23.7534 9.31714 23.9956C8.635 24.2493 8.34275 24.2683 8.21668 24.2411L7.90122 25.7076C8.49217 25.8347 9.15324 25.657 9.83998 25.4016C10.5574 25.1348 11.4804 24.7093 12.6585 24.167L12.0312 22.8044ZM5.36271 22.7281C5.51932 24.1684 6.50693 25.4077 7.90122 25.7076L8.21668 24.2411C7.53915 24.0954 6.95049 23.454 6.85392 22.566L5.36271 22.7281ZM21.767 18.3092C22.3473 19.599 22.7668 20.5324 23.0332 21.2448C23.3077 21.9789 23.3683 22.354 23.3453 22.566L24.8365 22.7281C24.9011 22.1344 24.7176 21.4666 24.4382 20.7194C24.1506 19.9503 23.7064 18.9639 23.1349 17.6938L21.767 18.3092ZM17.5408 24.167C18.7188 24.7093 19.6418 25.1348 20.3592 25.4016C21.046 25.657 21.707 25.8347 22.298 25.7076L21.9825 24.2411C21.8565 24.2683 21.5642 24.2493 20.8821 23.9956C20.2306 23.7534 19.3692 23.3574 18.168 22.8044L17.5408 24.167ZM23.3453 22.566C23.2487 23.4541 22.6601 24.0954 21.9825 24.2411L22.298 25.7076C23.6923 25.4077 24.6799 24.1684 24.8365 22.7281L23.3453 22.566ZM20.1305 11.0159C19.1922 8.93046 18.4565 7.29083 17.7601 6.18203C17.079 5.09749 16.2714 4.25 15.0996 4.25V5.75C15.4296 5.75 15.8472 5.95645 16.4898 6.9798C17.1173 7.97888 17.8041 9.50108 18.7626 11.6314L20.1305 11.0159ZM11.4367 11.6314C12.3951 9.50108 13.0819 7.97888 13.7094 6.97979C14.3521 5.95645 14.7696 5.75 15.0996 5.75V4.25C13.9278 4.25 13.1202 5.09749 12.4391 6.18203C11.7428 7.29083 11.007 8.93046 10.0687 11.0159L11.4367 11.6314ZM20.6415 15.8077L21.767 18.3092L23.1349 17.6938L22.0095 15.1923L20.6415 15.8077Z" fill="#DADADA"/>
</svg>
