<svg width="30" height="30" viewBox="0 0 30 30" fill="none" xmlns="http://www.w3.org/2000/svg">
<path d="M20 11V9C20 7.11438 20 6.17157 19.4142 5.58579C18.8284 5 17.8856 5 16 5H14C12.1144 5 11.1716 5 10.5858 5.58579C10 6.17157 10 7.11438 10 9V11" stroke="#DADADA" stroke-width="1.5"/>
<path d="M22.7935 14.0321C22.7935 12.9342 22.1937 11.9239 21.2297 11.3983L16.4355 8.78408C15.5403 8.29593 14.4584 8.29593 13.5631 8.78408L8.76889 11.3983C7.8049 11.9239 7.20508 12.9342 7.20508 14.0321V18.9698C7.20508 20.0678 7.8049 21.078 8.76888 21.6037L13.5631 24.2178C14.4584 24.706 15.5403 24.706 16.4355 24.2178L21.2297 21.6037C22.1937 21.078 22.7935 20.0678 22.7935 18.9698V18.001" stroke="#DADADA" stroke-width="1.5" stroke-linecap="round"/>
<path d="M14.1459 14.5225C14.5259 13.8408 14.7159 13.5 15 13.5C15.2841 13.5 15.4741 13.8408 15.8541 14.5225L15.9524 14.6989C16.0603 14.8926 16.1143 14.9894 16.1985 15.0533C16.2827 15.1172 16.3875 15.141 16.5972 15.1884L16.7881 15.2316C17.526 15.3986 17.895 15.482 17.9828 15.7643C18.0706 16.0466 17.819 16.3407 17.316 16.929L17.1858 17.0812C17.0429 17.2483 16.9714 17.3319 16.9392 17.4353C16.9071 17.5387 16.9179 17.6502 16.9395 17.8733L16.9592 18.0763C17.0352 18.8612 17.0733 19.2536 16.8435 19.4281C16.6136 19.6025 16.2682 19.4435 15.5773 19.1254L15.3986 19.0431C15.2022 18.9527 15.1041 18.9075 15 18.9075C14.8959 18.9075 14.7978 18.9527 14.6014 19.0431L14.4227 19.1254C13.7318 19.4435 13.3864 19.6025 13.1565 19.4281C12.9267 19.2536 12.9648 18.8612 13.0408 18.0763L13.0605 17.8733C13.0821 17.6502 13.0929 17.5387 13.0608 17.4353C13.0286 17.3319 12.9571 17.2483 12.8142 17.0812L12.684 16.929C12.181 16.3407 11.9294 16.0466 12.0172 15.7643C12.105 15.482 12.474 15.3986 13.2119 15.2316L13.4028 15.1884C13.6125 15.141 13.7173 15.1172 13.8015 15.0533C13.8857 14.9894 13.9397 14.8926 14.0476 14.6989L14.1459 14.5225Z" stroke="#DADADA" stroke-width="1.5"/>
</svg>
