<svg width="18" height="17" viewBox="0 0 18 17" fill="none" xmlns="http://www.w3.org/2000/svg">
<path d="M8.84827 0.67799C8.9991 0.213766 9.65586 0.213765 9.80669 0.67799L11.4769 5.81833C11.5443 6.02593 11.7378 6.16649 11.9561 6.16649H17.361C17.8491 6.16649 18.052 6.7911 17.6571 7.07801L13.2845 10.2549C13.1079 10.3832 13.034 10.6107 13.1015 10.8183L14.7717 15.9586C14.9225 16.4228 14.3912 16.8088 13.9963 16.5219L9.62365 13.345C9.44705 13.2167 9.20791 13.2167 9.03131 13.345L4.65868 16.5219C4.26379 16.8088 3.73246 16.4228 3.8833 15.9586L5.55349 10.8183C5.62095 10.6107 5.54705 10.3832 5.37045 10.2549L0.997822 7.07801C0.602929 6.7911 0.805877 6.16649 1.29399 6.16649H6.69886C6.91715 6.16649 7.11062 6.02593 7.17807 5.81833L8.84827 0.67799Z" fill="url(#paint0_linear_65_11559)"/>
<defs>
<linearGradient id="paint0_linear_65_11559" x1="12.0148" y1="8.27286" x2="17.7254" y2="8.27286" gradientUnits="userSpaceOnUse">
<stop offset="0.359375" stop-color="#FEC80A"/>
<stop offset="0.515625" stop-color="#3E3E3E"/>
<stop offset="0.976132" stop-color="#3E3E3E"/>
</linearGradient>
</defs>
</svg>
