<svg width="25" height="24" viewBox="0 0 25 24" fill="none" xmlns="http://www.w3.org/2000/svg">
<path d="M14.8906 19.4184C14.7806 19.4184 14.6606 19.3884 14.5606 19.3384C14.1906 19.1484 14.0406 18.6984 14.2206 18.3284L16.3606 14.0584C16.4906 13.8084 16.7506 13.6484 17.0306 13.6484C17.3106 13.6484 17.5706 13.8084 17.7006 14.0684L19.8406 18.3384C20.0306 18.7084 19.8806 19.1584 19.5006 19.3484C19.1306 19.5384 18.6806 19.3884 18.4906 19.0084L17.0306 16.0784L15.5706 19.0084C15.4306 19.2684 15.1606 19.4184 14.8906 19.4184Z" fill="#DADADA"/>
<path d="M18.7798 18.6602H15.2598C14.8498 18.6602 14.5098 18.3202 14.5098 17.9102C14.5098 17.5002 14.8498 17.1602 15.2598 17.1602H18.7798C19.1898 17.1602 19.5298 17.5002 19.5298 17.9102C19.5298 18.3202 19.1998 18.6602 18.7798 18.6602Z" fill="#DADADA"/>
<path d="M17.0195 22.7498C13.8095 22.7498 11.1895 20.1398 11.1895 16.9198C11.1895 13.6998 13.7995 11.0898 17.0195 11.0898C20.2295 11.0898 22.8495 13.6998 22.8495 16.9198C22.8495 20.1398 20.2395 22.7498 17.0195 22.7498ZM17.0195 12.5998C14.6295 12.5998 12.6895 14.5398 12.6895 16.9298C12.6895 19.3198 14.6295 21.2598 17.0195 21.2598C19.3995 21.2598 21.3495 19.3198 21.3495 16.9298C21.3495 14.5398 19.4095 12.5998 17.0195 12.5998Z" fill="#DADADA"/>
<path d="M4.95961 12.6983C3.84961 12.6983 2.96961 12.3883 2.34961 11.7883C1.68961 11.1483 1.34961 10.1783 1.34961 8.92828V5.0083C1.34961 2.5783 2.68961 1.23828 5.11961 1.23828H9.03961C10.2896 1.23828 11.2496 1.56828 11.8996 2.23828C12.5296 2.88828 12.8396 3.82832 12.8096 5.02832V8.92828C12.8396 10.1483 12.5296 11.1083 11.8796 11.7583C11.2296 12.4083 10.2696 12.7083 9.0296 12.6883H5.12961C5.05961 12.6983 5.00961 12.6983 4.95961 12.6983ZM5.11961 2.74829C3.50961 2.74829 2.84961 3.40831 2.84961 5.01831V8.93829C2.84961 9.76829 3.0296 10.3683 3.3896 10.7183C3.7396 11.0583 4.29961 11.2083 5.08961 11.1983H9.0296C9.8696 11.2183 10.4496 11.0483 10.7996 10.6983C11.1496 10.3483 11.3096 9.7583 11.2896 8.9483V5.0083C11.3096 4.2083 11.1496 3.63827 10.8096 3.28827C10.4596 2.92827 9.8596 2.74829 9.0296 2.74829H5.11961Z" fill="#DADADA"/>
<path d="M9.09906 6.60156H5.03906C4.62906 6.60156 4.28906 6.26156 4.28906 5.85156C4.28906 5.44156 4.62906 5.10156 5.03906 5.10156H9.09906C9.50906 5.10156 9.84906 5.44156 9.84906 5.85156C9.84906 6.26156 9.51906 6.60156 9.09906 6.60156Z" fill="#DADADA"/>
<path d="M7.08008 6.60187C6.67008 6.60187 6.33008 6.26187 6.33008 5.85187V5.17188C6.33008 4.76188 6.67008 4.42188 7.08008 4.42188C7.49008 4.42188 7.83008 4.76188 7.83008 5.17188V5.85187C7.83008 6.26187 7.49008 6.60187 7.08008 6.60187Z" fill="#DADADA"/>
<path d="M5.03906 9.75983C4.62906 9.75983 4.28906 9.41983 4.28906 9.00983C4.28906 8.59983 4.62906 8.25983 5.03906 8.25983C6.30906 8.25983 7.33907 7.17984 7.33907 5.83984C7.33907 5.42984 7.67907 5.08984 8.08907 5.08984C8.49907 5.08984 8.83907 5.42984 8.83907 5.83984C8.83907 7.99984 7.13906 9.75983 5.03906 9.75983Z" fill="#DADADA"/>
<path d="M9.11003 9.75811C8.18003 9.75811 7.29004 9.28813 6.66004 8.45813C6.41004 8.12813 6.48004 7.65808 6.81004 7.40808C7.14004 7.15808 7.61003 7.2281 7.86003 7.5581C8.20003 8.0181 8.65003 8.26812 9.11003 8.26812C9.52003 8.26812 9.86003 8.60812 9.86003 9.01812C9.86003 9.42812 9.52003 9.75811 9.11003 9.75811Z" fill="#DADADA"/>
<path d="M9.09961 22.75C4.82961 22.75 1.34961 19.27 1.34961 15C1.34961 14.59 1.68961 14.25 2.09961 14.25C2.50961 14.25 2.84961 14.59 2.84961 15C2.84961 17.96 4.90961 20.44 7.67961 21.09L7.40961 20.64C7.19961 20.28 7.30962 19.82 7.66962 19.61C8.01962 19.4 8.48962 19.51 8.69962 19.87L9.7496 21.62C9.8896 21.85 9.88961 22.14 9.75961 22.37C9.61961 22.6 9.36961 22.75 9.09961 22.75Z" fill="#DADADA"/>
<path d="M22.1 9.75C21.69 9.75 21.35 9.41 21.35 9C21.35 6.04 19.29 3.55997 16.52 2.90997L16.79 3.35999C17 3.71999 16.89 4.18001 16.53 4.39001C16.18 4.60001 15.71 4.49001 15.5 4.13L14.45 2.38C14.31 2.15 14.31 1.86 14.44 1.63C14.57 1.39 14.82 1.25 15.09 1.25C19.36 1.25 22.84 4.73 22.84 9C22.85 9.41 22.51 9.75 22.1 9.75Z" fill="#DADADA"/>
</svg>
